%TF.GenerationSoftware,KiCad,Pcbnew,8.0.2*%
%TF.CreationDate,2025-02-12T15:49:00+05:00*%
%TF.ProjectId,kicad_pcb,6b696361-645f-4706-9362-2e6b69636164,rev?*%
%TF.SameCoordinates,Original*%
%TF.FileFunction,Soldermask,Bot*%
%TF.FilePolarity,Negative*%
%FSLAX46Y46*%
G04 Gerber Fmt 4.6, Leading zero omitted, Abs format (unit mm)*
G04 Created by KiCad (PCBNEW 8.0.2) date 2025-02-12 15:49:00*
%MOMM*%
%LPD*%
G01*
G04 APERTURE LIST*
G04 Aperture macros list*
%AMRoundRect*
0 Rectangle with rounded corners*
0 $1 Rounding radius*
0 $2 $3 $4 $5 $6 $7 $8 $9 X,Y pos of 4 corners*
0 Add a 4 corners polygon primitive as box body*
4,1,4,$2,$3,$4,$5,$6,$7,$8,$9,$2,$3,0*
0 Add four circle primitives for the rounded corners*
1,1,$1+$1,$2,$3*
1,1,$1+$1,$4,$5*
1,1,$1+$1,$6,$7*
1,1,$1+$1,$8,$9*
0 Add four rect primitives between the rounded corners*
20,1,$1+$1,$2,$3,$4,$5,0*
20,1,$1+$1,$4,$5,$6,$7,0*
20,1,$1+$1,$6,$7,$8,$9,0*
20,1,$1+$1,$8,$9,$2,$3,0*%
G04 Aperture macros list end*
%ADD10C,1.500000*%
%ADD11RoundRect,0.375000X0.375000X-0.375000X0.375000X0.375000X-0.375000X0.375000X-0.375000X-0.375000X0*%
%ADD12R,1.800000X1.800000*%
%ADD13O,1.800000X1.800000*%
%ADD14R,2.020000X5.020000*%
%ADD15O,2.020000X5.020000*%
%ADD16R,1.600000X2.200000*%
%ADD17R,1.000000X2.510000*%
%ADD18RoundRect,0.200000X0.200000X0.275000X-0.200000X0.275000X-0.200000X-0.275000X0.200000X-0.275000X0*%
%ADD19RoundRect,0.250000X1.625000X-0.587500X1.625000X0.587500X-1.625000X0.587500X-1.625000X-0.587500X0*%
%ADD20RoundRect,0.250000X-0.550000X1.500000X-0.550000X-1.500000X0.550000X-1.500000X0.550000X1.500000X0*%
%ADD21RoundRect,0.375000X0.625000X0.375000X-0.625000X0.375000X-0.625000X-0.375000X0.625000X-0.375000X0*%
%ADD22RoundRect,0.500000X0.500000X1.400000X-0.500000X1.400000X-0.500000X-1.400000X0.500000X-1.400000X0*%
%ADD23R,2.510000X1.000000*%
%ADD24R,2.700000X3.600000*%
%ADD25RoundRect,0.250000X-1.500000X-0.550000X1.500000X-0.550000X1.500000X0.550000X-1.500000X0.550000X0*%
%ADD26RoundRect,0.250000X1.500000X0.550000X-1.500000X0.550000X-1.500000X-0.550000X1.500000X-0.550000X0*%
%ADD27R,1.000000X1.900000*%
%ADD28RoundRect,0.200000X0.275000X-0.200000X0.275000X0.200000X-0.275000X0.200000X-0.275000X-0.200000X0*%
%ADD29R,3.100000X1.600000*%
%ADD30RoundRect,0.250000X0.850000X0.350000X-0.850000X0.350000X-0.850000X-0.350000X0.850000X-0.350000X0*%
%ADD31RoundRect,0.249997X2.950003X2.650003X-2.950003X2.650003X-2.950003X-2.650003X2.950003X-2.650003X0*%
%ADD32RoundRect,0.250000X-0.475000X0.250000X-0.475000X-0.250000X0.475000X-0.250000X0.475000X0.250000X0*%
%ADD33RoundRect,0.200000X-0.275000X0.200000X-0.275000X-0.200000X0.275000X-0.200000X0.275000X0.200000X0*%
%ADD34RoundRect,0.250000X0.550000X-1.500000X0.550000X1.500000X-0.550000X1.500000X-0.550000X-1.500000X0*%
%ADD35RoundRect,0.250000X-0.350000X0.850000X-0.350000X-0.850000X0.350000X-0.850000X0.350000X0.850000X0*%
%ADD36RoundRect,0.249997X-2.650003X2.950003X-2.650003X-2.950003X2.650003X-2.950003X2.650003X2.950003X0*%
%ADD37RoundRect,0.250000X0.587500X1.625000X-0.587500X1.625000X-0.587500X-1.625000X0.587500X-1.625000X0*%
%ADD38RoundRect,0.250000X-0.850000X-0.350000X0.850000X-0.350000X0.850000X0.350000X-0.850000X0.350000X0*%
%ADD39RoundRect,0.249997X-2.950003X-2.650003X2.950003X-2.650003X2.950003X2.650003X-2.950003X2.650003X0*%
%ADD40R,3.600000X2.700000*%
G04 APERTURE END LIST*
D10*
%TO.C,R36*%
X123698000Y-165432000D03*
X123698000Y-168832000D03*
%TD*%
D11*
%TO.C,7_SEG1*%
X122428000Y-40861500D03*
D10*
X124968000Y-40861500D03*
X127508000Y-40861500D03*
X130048000Y-40861500D03*
X132588000Y-40861500D03*
X135128000Y-40861500D03*
X137668000Y-40861500D03*
X140208000Y-40861500D03*
X140208000Y-30701500D03*
X135128000Y-30701500D03*
X130048000Y-30701500D03*
X127508000Y-30701500D03*
X124968000Y-30701500D03*
X122428000Y-30701500D03*
%TD*%
D12*
%TO.C,U1*%
X139187000Y-175023000D03*
D13*
X140457000Y-169943000D03*
X141727000Y-175023000D03*
X142997000Y-169943000D03*
X144267000Y-175023000D03*
X145537000Y-169943000D03*
X146807000Y-175023000D03*
X148077000Y-169943000D03*
X149347000Y-175023000D03*
X150617000Y-169943000D03*
X151887000Y-175023000D03*
X153157000Y-169943000D03*
X154427000Y-175023000D03*
X155697000Y-169943000D03*
X156967000Y-175023000D03*
%TD*%
D14*
%TO.C,J10*%
X65538000Y-184404000D03*
D15*
X70718000Y-184404000D03*
%TD*%
D11*
%TO.C,7_SEG2*%
X122174000Y-69088000D03*
D10*
X124714000Y-69088000D03*
X127254000Y-69088000D03*
X129794000Y-69088000D03*
X132334000Y-69088000D03*
X134874000Y-69088000D03*
X137414000Y-69088000D03*
X139954000Y-69088000D03*
X139954000Y-58928000D03*
X134874000Y-58928000D03*
X129794000Y-58928000D03*
X127254000Y-58928000D03*
X124714000Y-58928000D03*
X122174000Y-58928000D03*
%TD*%
D16*
%TO.C,C10*%
X200860000Y-63284000D03*
X200860000Y-66284000D03*
%TD*%
D17*
%TO.C,LEFT_IR_SENSOR1*%
X119380000Y-35183000D03*
X116840000Y-31873000D03*
X114300000Y-35183000D03*
%TD*%
D18*
%TO.C,R6*%
X182498000Y-54356000D03*
X180848000Y-54356000D03*
%TD*%
D19*
%TO.C,D4*%
X92657000Y-149146000D03*
X92657000Y-144771000D03*
%TD*%
D20*
%TO.C,C15*%
X161290000Y-54704000D03*
X161290000Y-60104000D03*
%TD*%
D18*
%TO.C,R8*%
X179895000Y-65024000D03*
X178245000Y-65024000D03*
%TD*%
D21*
%TO.C,U23*%
X165950000Y-36700000D03*
X165950000Y-39000000D03*
D22*
X159650000Y-39000000D03*
D21*
X165950000Y-41300000D03*
%TD*%
D23*
%TO.C,LEFT_SERVO1*%
X70997000Y-115316000D03*
X67687000Y-117856000D03*
X70997000Y-120396000D03*
%TD*%
D24*
%TO.C,L1*%
X104828000Y-101854000D03*
X96528000Y-101854000D03*
%TD*%
D25*
%TO.C,C19*%
X84877000Y-153816500D03*
X90277000Y-153816500D03*
%TD*%
D20*
%TO.C,C7*%
X90518000Y-87978000D03*
X90518000Y-93378000D03*
%TD*%
D18*
%TO.C,R4*%
X97947000Y-93980000D03*
X96297000Y-93980000D03*
%TD*%
D26*
%TO.C,C11*%
X181676000Y-46990000D03*
X176276000Y-46990000D03*
%TD*%
D16*
%TO.C,C16*%
X90100000Y-136200000D03*
X90100000Y-139200000D03*
%TD*%
D27*
%TO.C,DIST_SENSOR1*%
X143002000Y-31370000D03*
X145542000Y-34670000D03*
X148082000Y-31370000D03*
X150622000Y-34670000D03*
%TD*%
D20*
%TO.C,C18*%
X68273000Y-133336500D03*
X68273000Y-138736500D03*
%TD*%
D18*
%TO.C,R11*%
X75385000Y-132480500D03*
X73735000Y-132480500D03*
%TD*%
D28*
%TO.C,R5*%
X90772000Y-98361000D03*
X90772000Y-96711000D03*
%TD*%
D29*
%TO.C,U15*%
X194310000Y-58674000D03*
X194310000Y-61214000D03*
X194310000Y-63754000D03*
X194310000Y-66294000D03*
X185420000Y-66294000D03*
X185420000Y-63754000D03*
X185420000Y-61214000D03*
X185420000Y-58674000D03*
%TD*%
D23*
%TO.C,RIGHT_MOTOR1*%
X171073000Y-171958000D03*
X167763000Y-174498000D03*
%TD*%
D26*
%TO.C,C13*%
X157132000Y-69342000D03*
X151732000Y-69342000D03*
%TD*%
D23*
%TO.C,LEFT_MOTOR1*%
X129540000Y-172466000D03*
X126230000Y-175006000D03*
%TD*%
D28*
%TO.C,R7*%
X178245000Y-69659000D03*
X178245000Y-68009000D03*
%TD*%
D17*
%TO.C,RIGHT_IR_SENSOR1*%
X179324000Y-34929000D03*
X176784000Y-31619000D03*
X174244000Y-34929000D03*
%TD*%
D18*
%TO.C,R10*%
X75448000Y-136036500D03*
X73798000Y-136036500D03*
%TD*%
D30*
%TO.C,U24*%
X107525000Y-123345000D03*
D31*
X101225000Y-125625000D03*
D30*
X107525000Y-127905000D03*
%TD*%
D16*
%TO.C,C4*%
X111370000Y-86662000D03*
X111370000Y-89662000D03*
%TD*%
D18*
%TO.C,R2*%
X102925000Y-93800000D03*
X101275000Y-93800000D03*
%TD*%
D29*
%TO.C,U4*%
X90742000Y-121060500D03*
X90742000Y-123600500D03*
X90742000Y-126140500D03*
X90742000Y-128680500D03*
X81852000Y-128680500D03*
X81852000Y-126140500D03*
X81852000Y-123600500D03*
X81852000Y-121060500D03*
%TD*%
D32*
%TO.C,C2*%
X111704500Y-135968500D03*
X111704500Y-137868500D03*
%TD*%
D24*
%TO.C,L2*%
X173314000Y-68580000D03*
X165014000Y-68580000D03*
%TD*%
D33*
%TO.C,R9*%
X75131000Y-126321500D03*
X75131000Y-127971500D03*
%TD*%
D23*
%TO.C,RIGHT_SERVO1*%
X226953000Y-107950000D03*
X223643000Y-110490000D03*
X226953000Y-113030000D03*
%TD*%
D34*
%TO.C,C8*%
X100170000Y-116238000D03*
X100170000Y-110838000D03*
%TD*%
D35*
%TO.C,U3*%
X101807000Y-134054500D03*
D36*
X104087000Y-140354500D03*
D35*
X106367000Y-134054500D03*
%TD*%
D25*
%TO.C,C9*%
X109662000Y-98806000D03*
X115062000Y-98806000D03*
%TD*%
D37*
%TO.C,D3*%
X176431500Y-57912000D03*
X172056500Y-57912000D03*
%TD*%
D29*
%TO.C,U5*%
X105885000Y-81534000D03*
X105885000Y-84074000D03*
X105885000Y-86614000D03*
X105885000Y-89154000D03*
X96995000Y-89154000D03*
X96995000Y-86614000D03*
X96995000Y-84074000D03*
X96995000Y-81534000D03*
%TD*%
D38*
%TO.C,U2*%
X109432000Y-110735500D03*
D39*
X115732000Y-108455500D03*
D38*
X109432000Y-106175500D03*
%TD*%
D19*
%TO.C,D1*%
X90010000Y-105311500D03*
X90010000Y-100936500D03*
%TD*%
D40*
%TO.C,L3*%
X80973000Y-138998500D03*
X80973000Y-147298500D03*
%TD*%
D32*
%TO.C,C3*%
X111704500Y-141114500D03*
X111704500Y-143014500D03*
%TD*%
M02*
