M48
; DRILL file {KiCad 8.0.2} date 2025-02-12T15:49:44+0500
; FORMAT={-:-/ absolute / metric / decimal}
; #@! TF.CreationDate,2025-02-12T15:49:44+05:00
; #@! TF.GenerationSoftware,Kicad,Pcbnew,8.0.2
; #@! TF.FileFunction,Plated,1,2,PTH
FMAT,2
METRIC
; #@! TA.AperFunction,Plated,PTH,ViaDrill
T1C0.200
; #@! TA.AperFunction,Plated,PTH,ComponentDrill
T2C0.700
; #@! TA.AperFunction,Plated,PTH,ComponentDrill
T3C0.800
; #@! TA.AperFunction,Plated,PTH,ComponentDrill
T4C1.000
; #@! TA.AperFunction,Plated,PTH,ComponentDrill
T5C1.020
%
G90
G05
T1
X69.533Y-117.916
X70.494Y-53.063
X75.879Y-133.524
X79.813Y-81.305
X80.134Y-54.136
X85.381Y-149.519
X86.349Y-106.426
X87.008Y-51.622
X87.489Y-53.228
X87.767Y-59.754
X87.807Y-105.669
X88.34Y-114.549
X89.07Y-107.257
X90.277Y-147.357
X90.724Y-131.499
X90.742Y-130.154
X91.672Y-130.154
X91.712Y-86.26
X97.924Y-113.231
X100.166Y-88.0
X100.844Y-143.747
X103.974Y-88.885
X107.393Y-90.346
X108.581Y-102.298
X109.139Y-88.924
X109.662Y-102.491
X110.931Y-125.818
X111.706Y-85.01
X111.828Y-127.672
X111.919Y-117.159
X114.809Y-94.981
X114.906Y-137.833
X114.998Y-32.662
X115.682Y-32.091
X115.707Y-101.763
X116.199Y-142.409
X116.244Y-143.068
X116.792Y-148.205
X117.407Y-101.331
X118.982Y-84.974
X119.363Y-110.614
X119.363Y-118.12
X119.474Y-96.335
X119.999Y-102.222
X120.124Y-69.439
X120.338Y-36.141
X120.885Y-35.573
X121.55Y-103.16
X121.557Y-148.453
X121.637Y-103.798
X121.703Y-87.695
X121.896Y-96.331
X122.556Y-93.701
X122.564Y-88.921
X122.962Y-143.068
X123.745Y-145.456
X123.842Y-85.4
X123.865Y-92.592
X124.024Y-86.556
X124.035Y-92.04
X124.038Y-93.143
X124.386Y-175.42
X124.456Y-139.836
X124.58Y-91.734
X124.81Y-86.026
X124.925Y-88.96
X125.051Y-108.278
X125.371Y-94.538
X125.377Y-92.402
X125.394Y-92.954
X125.394Y-93.506
X125.401Y-104.333
X125.451Y-102.293
X125.49Y-105.554
X125.531Y-158.206
X125.628Y-103.774
X125.683Y-106.97
X125.766Y-96.419
X125.851Y-147.519
X126.532Y-109.823
X126.6Y-117.341
X126.693Y-115.63
X126.752Y-87.239
X127.085Y-105.371
X127.09Y-103.165
X127.165Y-99.022
X127.343Y-106.663
X127.355Y-100.222
X127.362Y-102.612
X127.408Y-140.946
X127.445Y-96.528
X127.608Y-183.649
X127.685Y-115.929
X127.689Y-101.51
X127.709Y-95.87
X128.154Y-98.652
X128.261Y-99.28
X128.265Y-100.146
X128.361Y-110.07
X128.808Y-144.996
X128.838Y-102.222
X129.172Y-93.359
X129.731Y-94.257
X130.017Y-108.39
X134.525Y-115.386
X142.527Y-165.494
X142.993Y-102.222
X143.002Y-30.079
X143.993Y-161.624
X144.926Y-38.223
X145.201Y-103.048
X148.574Y-104.423
X149.073Y-104.98
X150.056Y-77.81
X150.202Y-73.813
X150.322Y-77.19
X155.991Y-98.425
X158.171Y-67.548
X159.26Y-61.916
X159.771Y-101.611
X160.122Y-103.498
X161.641Y-102.54
X161.96Y-76.277
X162.036Y-99.384
X162.26Y-139.255
X162.477Y-39.0
X162.477Y-47.376
X162.878Y-57.678
X164.078Y-110.908
X165.37Y-92.551
X165.875Y-132.617
X165.95Y-45.022
X166.301Y-169.773
X166.438Y-57.819
X166.564Y-111.004
X166.673Y-100.964
X166.826Y-96.961
X166.893Y-94.823
X166.953Y-98.995
X166.987Y-99.884
X167.124Y-96.479
X167.163Y-85.37
X167.163Y-93.452
X167.217Y-103.749
X167.218Y-139.309
X167.221Y-97.822
X167.226Y-106.181
X167.234Y-106.858
X167.278Y-110.461
X167.482Y-22.343
X167.715Y-20.722
X167.737Y-108.971
X168.18Y-49.759
X168.256Y-112.81
X168.54Y-110.358
X168.551Y-99.531
X168.555Y-107.58
X168.558Y-96.681
X168.587Y-93.935
X168.703Y-98.649
X168.751Y-97.747
X168.882Y-102.222
X168.9Y-103.822
X168.911Y-106.537
X168.924Y-92.622
X168.932Y-104.502
X168.937Y-105.973
X169.168Y-46.531
X169.6Y-23.68
X169.653Y-91.424
X169.768Y-26.551
X170.042Y-63.232
X170.261Y-97.479
X170.263Y-104.056
X170.309Y-95.643
X170.365Y-64.608
X170.394Y-103.376
X170.728Y-96.74
X170.829Y-101.884
X170.917Y-62.243
X171.248Y-103.119
X171.249Y-46.404
X171.41Y-99.751
X171.457Y-92.514
X171.588Y-93.25
X172.106Y-26.099
X172.157Y-63.056
X172.24Y-100.982
X172.301Y-101.553
X172.404Y-61.924
X172.702Y-106.222
X172.842Y-63.73
X173.119Y-94.181
X173.316Y-64.156
X173.834Y-62.043
X174.045Y-49.245
X174.096Y-20.584
X174.141Y-58.402
X174.358Y-96.336
X175.014Y-68.288
X175.252Y-58.878
X176.062Y-104.94
X176.125Y-64.345
X176.14Y-105.984
X176.584Y-93.74
X176.591Y-109.772
X178.229Y-26.54
X179.324Y-26.908
X181.854Y-62.302
X183.537Y-67.175
X183.936Y-101.592
X185.344Y-100.787
X186.226Y-110.654
X189.654Y-101.156
X193.633Y-26.107
X197.415Y-131.653
X197.793Y-66.976
X197.823Y-167.265
X198.098Y-78.386
X199.065Y-114.86
X199.108Y-66.697
X199.561Y-67.27
X199.866Y-106.899
X199.885Y-67.837
X200.309Y-90.831
X201.025Y-79.693
X201.321Y-158.918
X201.61Y-77.853
X202.028Y-46.01
X202.632Y-66.516
X203.45Y-89.576
X203.569Y-88.948
X206.171Y-45.744
X206.74Y-20.33
X213.388Y-116.894
X215.641Y-51.308
X226.84Y-30.988
X226.84Y-45.151
X226.953Y-114.156
T2
X122.174Y-58.928
X122.174Y-69.088
X122.428Y-30.701
X122.428Y-40.861
X124.714Y-58.928
X124.714Y-69.088
X124.968Y-30.701
X124.968Y-40.861
X127.254Y-58.928
X127.254Y-69.088
X127.508Y-30.701
X127.508Y-40.861
X129.794Y-58.928
X129.794Y-69.088
X130.048Y-30.701
X130.048Y-40.861
X132.334Y-69.088
X132.588Y-40.861
X134.874Y-58.928
X134.874Y-69.088
X135.128Y-30.701
X135.128Y-40.861
X137.414Y-69.088
X137.668Y-40.861
X139.954Y-58.928
X139.954Y-69.088
X140.208Y-30.701
X140.208Y-40.861
T3
X123.698Y-165.432
X123.698Y-168.832
T4
X139.187Y-175.023
X140.457Y-169.943
X141.727Y-175.023
X142.997Y-169.943
X144.267Y-175.023
X145.537Y-169.943
X146.807Y-175.023
X148.077Y-169.943
X149.347Y-175.023
X150.617Y-169.943
X151.887Y-175.023
X153.157Y-169.943
X154.427Y-175.023
X155.697Y-169.943
X156.967Y-175.023
T5
G00X65.538Y-185.904
M15
G01X65.538Y-182.904
M16
G05
G00X70.718Y-185.904
M15
G01X70.718Y-182.904
M16
G05
M30
