%TF.GenerationSoftware,KiCad,Pcbnew,8.0.2*%
%TF.CreationDate,2025-02-12T15:49:00+05:00*%
%TF.ProjectId,kicad_pcb,6b696361-645f-4706-9362-2e6b69636164,rev?*%
%TF.SameCoordinates,Original*%
%TF.FileFunction,Soldermask,Top*%
%TF.FilePolarity,Negative*%
%FSLAX46Y46*%
G04 Gerber Fmt 4.6, Leading zero omitted, Abs format (unit mm)*
G04 Created by KiCad (PCBNEW 8.0.2) date 2025-02-12 15:49:00*
%MOMM*%
%LPD*%
G01*
G04 APERTURE LIST*
G04 Aperture macros list*
%AMRoundRect*
0 Rectangle with rounded corners*
0 $1 Rounding radius*
0 $2 $3 $4 $5 $6 $7 $8 $9 X,Y pos of 4 corners*
0 Add a 4 corners polygon primitive as box body*
4,1,4,$2,$3,$4,$5,$6,$7,$8,$9,$2,$3,0*
0 Add four circle primitives for the rounded corners*
1,1,$1+$1,$2,$3*
1,1,$1+$1,$4,$5*
1,1,$1+$1,$6,$7*
1,1,$1+$1,$8,$9*
0 Add four rect primitives between the rounded corners*
20,1,$1+$1,$2,$3,$4,$5,0*
20,1,$1+$1,$4,$5,$6,$7,0*
20,1,$1+$1,$6,$7,$8,$9,0*
20,1,$1+$1,$8,$9,$2,$3,0*%
G04 Aperture macros list end*
%ADD10RoundRect,0.200000X-0.200000X-0.275000X0.200000X-0.275000X0.200000X0.275000X-0.200000X0.275000X0*%
%ADD11R,1.000000X1.900000*%
%ADD12RoundRect,0.100000X-0.130000X-0.100000X0.130000X-0.100000X0.130000X0.100000X-0.130000X0.100000X0*%
%ADD13R,2.160000X1.120000*%
%ADD14RoundRect,0.200000X-0.200000X-0.800000X0.200000X-0.800000X0.200000X0.800000X-0.200000X0.800000X0*%
%ADD15RoundRect,0.200000X0.200000X0.275000X-0.200000X0.275000X-0.200000X-0.275000X0.200000X-0.275000X0*%
%ADD16C,1.500000*%
%ADD17RoundRect,0.200000X0.275000X-0.200000X0.275000X0.200000X-0.275000X0.200000X-0.275000X-0.200000X0*%
%ADD18R,2.000000X2.500000*%
%ADD19R,1.900000X1.000000*%
%ADD20RoundRect,0.200000X-0.275000X0.200000X-0.275000X-0.200000X0.275000X-0.200000X0.275000X0.200000X0*%
%ADD21RoundRect,0.100000X-0.100000X0.130000X-0.100000X-0.130000X0.100000X-0.130000X0.100000X0.130000X0*%
%ADD22RoundRect,0.375000X0.375000X-0.375000X0.375000X0.375000X-0.375000X0.375000X-0.375000X-0.375000X0*%
%ADD23R,1.800000X1.800000*%
%ADD24O,1.800000X1.800000*%
%ADD25R,0.660000X0.220000*%
%ADD26R,0.440000X0.350000*%
%ADD27R,1.000000X2.510000*%
%ADD28RoundRect,0.225000X-0.250000X0.225000X-0.250000X-0.225000X0.250000X-0.225000X0.250000X0.225000X0*%
%ADD29R,2.020000X5.020000*%
%ADD30O,2.020000X5.020000*%
%ADD31R,2.510000X1.000000*%
G04 APERTURE END LIST*
D10*
%TO.C,R46*%
X93663000Y-124206000D03*
X95313000Y-124206000D03*
%TD*%
%TO.C,R35*%
X93663000Y-43942000D03*
X95313000Y-43942000D03*
%TD*%
D11*
%TO.C,RFID1*%
X194818000Y-22478000D03*
X197358000Y-19178000D03*
X199898000Y-22478000D03*
X202438000Y-19178000D03*
X204978000Y-22478000D03*
X207518000Y-19178000D03*
X210058000Y-22478000D03*
X212598000Y-19178000D03*
%TD*%
%TO.C,PIEZO_VIBRATION_SENSOR1*%
X202184000Y-44704000D03*
X204724000Y-41404000D03*
X207264000Y-44704000D03*
%TD*%
D12*
%TO.C,LED_15*%
X87981000Y-152146000D03*
X88621000Y-152146000D03*
%TD*%
D13*
%TO.C,SW16*%
X65215000Y-161798000D03*
X71945000Y-161798000D03*
%TD*%
D14*
%TO.C,PUSH_BTN_5*%
X204148000Y-100330000D03*
X208348000Y-100330000D03*
%TD*%
D10*
%TO.C,R12*%
X196342000Y-68326000D03*
X197992000Y-68326000D03*
%TD*%
D12*
%TO.C,LED_5*%
X88138000Y-61976000D03*
X88778000Y-61976000D03*
%TD*%
D13*
%TO.C,SW13*%
X65215000Y-132842000D03*
X71945000Y-132842000D03*
%TD*%
D15*
%TO.C,R18*%
X81343000Y-80264000D03*
X79693000Y-80264000D03*
%TD*%
%TO.C,R26*%
X81343000Y-152146000D03*
X79693000Y-152146000D03*
%TD*%
D11*
%TO.C,ESP8266_BOT1*%
X178562000Y-40894000D03*
X176022000Y-44194000D03*
X173482000Y-40894000D03*
X170942000Y-44194000D03*
%TD*%
D16*
%TO.C,R36*%
X123698000Y-165432000D03*
X123698000Y-168832000D03*
%TD*%
D11*
%TO.C,LORA_USED_PINS1*%
X160274000Y-22732000D03*
X162814000Y-19432000D03*
X165354000Y-22732000D03*
X167894000Y-19432000D03*
X170434000Y-22732000D03*
X172974000Y-19432000D03*
X175514000Y-22732000D03*
X178054000Y-19432000D03*
X180594000Y-22732000D03*
%TD*%
D15*
%TO.C,R16*%
X81343000Y-61976000D03*
X79693000Y-61976000D03*
%TD*%
%TO.C,R17*%
X81343000Y-71120000D03*
X79693000Y-71120000D03*
%TD*%
D13*
%TO.C,SW6*%
X65215000Y-71120000D03*
X71945000Y-71120000D03*
%TD*%
D17*
%TO.C,R30*%
X200152000Y-81343000D03*
X200152000Y-79693000D03*
%TD*%
D14*
%TO.C,PUSH_BTN_3*%
X204148000Y-85598000D03*
X208348000Y-85598000D03*
%TD*%
D12*
%TO.C,LED_12*%
X88072000Y-124206000D03*
X88712000Y-124206000D03*
%TD*%
D11*
%TO.C,PIR_MOTION_SENSOR1*%
X190754000Y-132080000D03*
X193294000Y-128780000D03*
X195834000Y-132080000D03*
%TD*%
D14*
%TO.C,PUSH_BTN_4*%
X204148000Y-115316000D03*
X208348000Y-115316000D03*
%TD*%
D18*
%TO.C,POT2*%
X170806000Y-185935000D03*
X168656000Y-177285000D03*
X166506000Y-185935000D03*
%TD*%
D12*
%TO.C,LED_9*%
X88072000Y-97536000D03*
X88712000Y-97536000D03*
%TD*%
D14*
%TO.C,PUSH_BTN_2*%
X218558000Y-100584000D03*
X222758000Y-100584000D03*
%TD*%
D19*
%TO.C,COLOR_SENSOR_DATA1*%
X215010000Y-137414000D03*
X211710000Y-134874000D03*
X215010000Y-132334000D03*
X211710000Y-129794000D03*
X215010000Y-127254000D03*
%TD*%
D13*
%TO.C,SW2*%
X65215000Y-36068000D03*
X71945000Y-36068000D03*
%TD*%
D15*
%TO.C,R22*%
X81343000Y-115316000D03*
X79693000Y-115316000D03*
%TD*%
D10*
%TO.C,R39*%
X93663000Y-61976000D03*
X95313000Y-61976000D03*
%TD*%
D20*
%TO.C,R32*%
X199136000Y-105855000D03*
X199136000Y-107505000D03*
%TD*%
D10*
%TO.C,R33*%
X93663000Y-27178000D03*
X95313000Y-27178000D03*
%TD*%
D21*
%TO.C,R37*%
X225552000Y-83917000D03*
X225552000Y-84557000D03*
%TD*%
D19*
%TO.C,BUZZER1*%
X226822000Y-156210000D03*
X223522000Y-153670000D03*
X226822000Y-151130000D03*
%TD*%
D10*
%TO.C,R50*%
X93663000Y-161798000D03*
X95313000Y-161798000D03*
%TD*%
D22*
%TO.C,7_SEG1*%
X122428000Y-40861500D03*
D16*
X124968000Y-40861500D03*
X127508000Y-40861500D03*
X130048000Y-40861500D03*
X132588000Y-40861500D03*
X135128000Y-40861500D03*
X137668000Y-40861500D03*
X140208000Y-40861500D03*
X140208000Y-30701500D03*
X135128000Y-30701500D03*
X130048000Y-30701500D03*
X127508000Y-30701500D03*
X124968000Y-30701500D03*
X122428000Y-30701500D03*
%TD*%
D10*
%TO.C,R14*%
X196299000Y-63605000D03*
X197949000Y-63605000D03*
%TD*%
D23*
%TO.C,U1*%
X139187000Y-175023000D03*
D24*
X140457000Y-169943000D03*
X141727000Y-175023000D03*
X142997000Y-169943000D03*
X144267000Y-175023000D03*
X145537000Y-169943000D03*
X146807000Y-175023000D03*
X148077000Y-169943000D03*
X149347000Y-175023000D03*
X150617000Y-169943000D03*
X151887000Y-175023000D03*
X153157000Y-169943000D03*
X154427000Y-175023000D03*
X155697000Y-169943000D03*
X156967000Y-175023000D03*
%TD*%
D25*
%TO.C,X_conns1*%
X124714000Y-92222000D03*
X126424000Y-92222000D03*
X124714000Y-92622000D03*
X126424000Y-92622000D03*
X124714000Y-93022000D03*
X126424000Y-93022000D03*
X124714000Y-93422000D03*
X126424000Y-93422000D03*
X124714000Y-93822000D03*
X126424000Y-93822000D03*
X124714000Y-94222000D03*
X126424000Y-94222000D03*
X124714000Y-94622000D03*
X126424000Y-94622000D03*
X124714000Y-95022000D03*
X126424000Y-95022000D03*
X124714000Y-95422000D03*
X126424000Y-95422000D03*
X124714000Y-95822000D03*
X126424000Y-95822000D03*
X124714000Y-96222000D03*
X126424000Y-96222000D03*
X124714000Y-96622000D03*
X126424000Y-96622000D03*
X124714000Y-97022000D03*
X126424000Y-97022000D03*
X124714000Y-97422000D03*
X126424000Y-97422000D03*
X124714000Y-97822000D03*
X126424000Y-97822000D03*
X124714000Y-98222000D03*
X126424000Y-98222000D03*
X124714000Y-98622000D03*
X126424000Y-98622000D03*
X124714000Y-99022000D03*
X126424000Y-99022000D03*
X124714000Y-99422000D03*
X126424000Y-99422000D03*
X124714000Y-99822000D03*
X126424000Y-99822000D03*
X124714000Y-100222000D03*
X126424000Y-100222000D03*
X124714000Y-100622000D03*
X126424000Y-100622000D03*
X124714000Y-101022000D03*
X126424000Y-101022000D03*
X124714000Y-101422000D03*
X126424000Y-101422000D03*
X124714000Y-101822000D03*
X126424000Y-101822000D03*
X124714000Y-102222000D03*
X126424000Y-102222000D03*
X124714000Y-102622000D03*
X126424000Y-102622000D03*
X124714000Y-103022000D03*
X126424000Y-103022000D03*
X124714000Y-103422000D03*
X126424000Y-103422000D03*
X124714000Y-103822000D03*
X126424000Y-103822000D03*
X124714000Y-104222000D03*
X126424000Y-104222000D03*
X124714000Y-104622000D03*
X126424000Y-104622000D03*
X124714000Y-105022000D03*
X126424000Y-105022000D03*
X124714000Y-105422000D03*
X126424000Y-105422000D03*
X124714000Y-105822000D03*
X126424000Y-105822000D03*
X124714000Y-106222000D03*
X126424000Y-106222000D03*
X124714000Y-106622000D03*
X126424000Y-106622000D03*
X124714000Y-107022000D03*
X126424000Y-107022000D03*
X124714000Y-107422000D03*
X126424000Y-107422000D03*
X124714000Y-107822000D03*
X126424000Y-107822000D03*
D26*
X125569000Y-91272000D03*
X125569000Y-108772000D03*
%TD*%
D15*
%TO.C,R31*%
X199961000Y-115316000D03*
X198311000Y-115316000D03*
%TD*%
D27*
%TO.C,MOISTURE_SENSOR1*%
X114300000Y-134120000D03*
X116840000Y-130810000D03*
X119380000Y-134120000D03*
%TD*%
D13*
%TO.C,SW5*%
X65215000Y-61976000D03*
X71945000Y-61976000D03*
%TD*%
D14*
%TO.C,PUSH_BTN_1*%
X188654000Y-100330000D03*
X192854000Y-100330000D03*
%TD*%
D10*
%TO.C,R38*%
X93663000Y-53340000D03*
X95313000Y-53340000D03*
%TD*%
D15*
%TO.C,R24*%
X81343000Y-132842000D03*
X79693000Y-132842000D03*
%TD*%
%TO.C,R21*%
X81343000Y-106426000D03*
X79693000Y-106426000D03*
%TD*%
D13*
%TO.C,SW15*%
X65215000Y-152146000D03*
X71945000Y-152146000D03*
%TD*%
D15*
%TO.C,R27*%
X81280000Y-161798000D03*
X79630000Y-161798000D03*
%TD*%
D28*
%TO.C,C5*%
X172466000Y-49771000D03*
X172466000Y-51321000D03*
%TD*%
D15*
%TO.C,R20*%
X81343000Y-97536000D03*
X79693000Y-97536000D03*
%TD*%
%TO.C,R28*%
X184276000Y-100584000D03*
X182626000Y-100584000D03*
%TD*%
D13*
%TO.C,SW11*%
X65215000Y-115316000D03*
X71945000Y-115316000D03*
%TD*%
D12*
%TO.C,LED_6*%
X88006000Y-71120000D03*
X88646000Y-71120000D03*
%TD*%
D13*
%TO.C,SW4*%
X65215000Y-53086000D03*
X71945000Y-53086000D03*
%TD*%
D19*
%TO.C,DHT22*%
X228728000Y-81534000D03*
X232028000Y-84074000D03*
X228728000Y-86614000D03*
X232028000Y-89154000D03*
%TD*%
D29*
%TO.C,J10*%
X65538000Y-184404000D03*
D30*
X70718000Y-184404000D03*
%TD*%
D10*
%TO.C,R42*%
X93600000Y-88646000D03*
X95250000Y-88646000D03*
%TD*%
D20*
%TO.C,R29*%
X226568000Y-104522000D03*
X226568000Y-106172000D03*
%TD*%
D12*
%TO.C,LED_3*%
X88006000Y-43942000D03*
X88646000Y-43942000D03*
%TD*%
D13*
%TO.C,SW3*%
X65215000Y-44196000D03*
X71945000Y-44196000D03*
%TD*%
D15*
%TO.C,R25*%
X81343000Y-142494000D03*
X79693000Y-142494000D03*
%TD*%
D10*
%TO.C,R44*%
X93663000Y-106426000D03*
X95313000Y-106426000D03*
%TD*%
D12*
%TO.C,LED_1*%
X87818000Y-27178000D03*
X88458000Y-27178000D03*
%TD*%
D13*
%TO.C,SW9*%
X65215000Y-97536000D03*
X71945000Y-97536000D03*
%TD*%
%TO.C,SW10*%
X65215000Y-106426000D03*
X71945000Y-106426000D03*
%TD*%
D12*
%TO.C,LED_13*%
X87981000Y-132842000D03*
X88621000Y-132842000D03*
%TD*%
D15*
%TO.C,R15*%
X81343000Y-53340000D03*
X79693000Y-53340000D03*
%TD*%
D11*
%TO.C,MIC_MODULE1*%
X149352000Y-138684000D03*
X151892000Y-135384000D03*
X154432000Y-138684000D03*
X156972000Y-135384000D03*
%TD*%
%TO.C,ESP8266_TOP1*%
X178054000Y-56896000D03*
X175514000Y-60196000D03*
X172974000Y-56896000D03*
X170434000Y-60196000D03*
%TD*%
D15*
%TO.C,R3*%
X81343000Y-35560000D03*
X79693000Y-35560000D03*
%TD*%
%TO.C,R19*%
X81343000Y-88646000D03*
X79693000Y-88646000D03*
%TD*%
D10*
%TO.C,R40*%
X93663000Y-71120000D03*
X95313000Y-71120000D03*
%TD*%
D11*
%TO.C,OLED1*%
X193294000Y-168656000D03*
X195834000Y-165356000D03*
X198374000Y-168656000D03*
X200914000Y-165356000D03*
%TD*%
D10*
%TO.C,R43*%
X93663000Y-97536000D03*
X95313000Y-97536000D03*
%TD*%
D12*
%TO.C,LED_16*%
X87981000Y-161798000D03*
X88621000Y-161798000D03*
%TD*%
D10*
%TO.C,R49*%
X93663000Y-152146000D03*
X95313000Y-152146000D03*
%TD*%
%TO.C,R41*%
X93663000Y-80264000D03*
X95313000Y-80264000D03*
%TD*%
D18*
%TO.C,POT1*%
X127626000Y-185935000D03*
X125476000Y-177285000D03*
X123326000Y-185935000D03*
%TD*%
D15*
%TO.C,R1*%
X81089000Y-27178000D03*
X79439000Y-27178000D03*
%TD*%
%TO.C,R13*%
X81343000Y-43942000D03*
X79693000Y-43942000D03*
%TD*%
D10*
%TO.C,R47*%
X93663000Y-132842000D03*
X95313000Y-132842000D03*
%TD*%
D19*
%TO.C,COLOR_SENSOR_PWR1*%
X231012000Y-137414000D03*
X227712000Y-134874000D03*
X231012000Y-132334000D03*
X227712000Y-129794000D03*
X231012000Y-127254000D03*
%TD*%
D15*
%TO.C,R23*%
X81343000Y-124206000D03*
X79693000Y-124206000D03*
%TD*%
D31*
%TO.C,HC05_BLE1*%
X226052000Y-172974000D03*
X229362000Y-175514000D03*
X226052000Y-178054000D03*
X229362000Y-180594000D03*
X226052000Y-183134000D03*
X229362000Y-185674000D03*
%TD*%
D22*
%TO.C,7_SEG2*%
X122174000Y-69088000D03*
D16*
X124714000Y-69088000D03*
X127254000Y-69088000D03*
X129794000Y-69088000D03*
X132334000Y-69088000D03*
X134874000Y-69088000D03*
X137414000Y-69088000D03*
X139954000Y-69088000D03*
X139954000Y-58928000D03*
X134874000Y-58928000D03*
X129794000Y-58928000D03*
X127254000Y-58928000D03*
X124714000Y-58928000D03*
X122174000Y-58928000D03*
%TD*%
D13*
%TO.C,SW8*%
X65215000Y-88646000D03*
X71945000Y-88646000D03*
%TD*%
D27*
%TO.C,KEYPAD1*%
X110998000Y-150376000D03*
X113538000Y-147066000D03*
X116078000Y-150376000D03*
X118618000Y-147066000D03*
X121158000Y-150376000D03*
X123698000Y-147066000D03*
X126238000Y-150376000D03*
X128778000Y-147066000D03*
%TD*%
D12*
%TO.C,LED_11*%
X88072000Y-115316000D03*
X88712000Y-115316000D03*
%TD*%
D10*
%TO.C,R34*%
X93663000Y-35560000D03*
X95313000Y-35560000D03*
%TD*%
D12*
%TO.C,LED_2*%
X87818000Y-35560000D03*
X88458000Y-35560000D03*
%TD*%
%TO.C,LED_7*%
X88144000Y-80264000D03*
X88784000Y-80264000D03*
%TD*%
%TO.C,LED_10*%
X88072000Y-106426000D03*
X88712000Y-106426000D03*
%TD*%
D25*
%TO.C,Y_conns1*%
X169604000Y-107822000D03*
X167894000Y-107822000D03*
X169604000Y-107422000D03*
X167894000Y-107422000D03*
X169604000Y-107022000D03*
X167894000Y-107022000D03*
X169604000Y-106622000D03*
X167894000Y-106622000D03*
X169604000Y-106222000D03*
X167894000Y-106222000D03*
X169604000Y-105822000D03*
X167894000Y-105822000D03*
X169604000Y-105422000D03*
X167894000Y-105422000D03*
X169604000Y-105022000D03*
X167894000Y-105022000D03*
X169604000Y-104622000D03*
X167894000Y-104622000D03*
X169604000Y-104222000D03*
X167894000Y-104222000D03*
X169604000Y-103822000D03*
X167894000Y-103822000D03*
X169604000Y-103422000D03*
X167894000Y-103422000D03*
X169604000Y-103022000D03*
X167894000Y-103022000D03*
X169604000Y-102622000D03*
X167894000Y-102622000D03*
X169604000Y-102222000D03*
X167894000Y-102222000D03*
X169604000Y-101822000D03*
X167894000Y-101822000D03*
X169604000Y-101422000D03*
X167894000Y-101422000D03*
X169604000Y-101022000D03*
X167894000Y-101022000D03*
X169604000Y-100622000D03*
X167894000Y-100622000D03*
X169604000Y-100222000D03*
X167894000Y-100222000D03*
X169604000Y-99822000D03*
X167894000Y-99822000D03*
X169604000Y-99422000D03*
X167894000Y-99422000D03*
X169604000Y-99022000D03*
X167894000Y-99022000D03*
X169604000Y-98622000D03*
X167894000Y-98622000D03*
X169604000Y-98222000D03*
X167894000Y-98222000D03*
X169604000Y-97822000D03*
X167894000Y-97822000D03*
X169604000Y-97422000D03*
X167894000Y-97422000D03*
X169604000Y-97022000D03*
X167894000Y-97022000D03*
X169604000Y-96622000D03*
X167894000Y-96622000D03*
X169604000Y-96222000D03*
X167894000Y-96222000D03*
X169604000Y-95822000D03*
X167894000Y-95822000D03*
X169604000Y-95422000D03*
X167894000Y-95422000D03*
X169604000Y-95022000D03*
X167894000Y-95022000D03*
X169604000Y-94622000D03*
X167894000Y-94622000D03*
X169604000Y-94222000D03*
X167894000Y-94222000D03*
X169604000Y-93822000D03*
X167894000Y-93822000D03*
X169604000Y-93422000D03*
X167894000Y-93422000D03*
X169604000Y-93022000D03*
X167894000Y-93022000D03*
X169604000Y-92622000D03*
X167894000Y-92622000D03*
X169604000Y-92222000D03*
X167894000Y-92222000D03*
D26*
X168749000Y-108772000D03*
X168749000Y-91272000D03*
%TD*%
D13*
%TO.C,SW12*%
X65215000Y-124206000D03*
X71945000Y-124206000D03*
%TD*%
%TO.C,SW1*%
X65215000Y-27432000D03*
X71945000Y-27432000D03*
%TD*%
%TO.C,SW7*%
X65215000Y-80264000D03*
X71945000Y-80264000D03*
%TD*%
D12*
%TO.C,LED_4*%
X88072000Y-53340000D03*
X88712000Y-53340000D03*
%TD*%
D10*
%TO.C,R45*%
X93663000Y-115316000D03*
X95313000Y-115316000D03*
%TD*%
D12*
%TO.C,LED_8*%
X88235000Y-88646000D03*
X88875000Y-88646000D03*
%TD*%
D10*
%TO.C,R48*%
X93600000Y-142494000D03*
X95250000Y-142494000D03*
%TD*%
D12*
%TO.C,LED_14*%
X88006000Y-142494000D03*
X88646000Y-142494000D03*
%TD*%
D19*
%TO.C,GPIOs1*%
X228728000Y-25908000D03*
X232028000Y-28448000D03*
X228728000Y-30988000D03*
X232028000Y-33528000D03*
X228728000Y-36068000D03*
X232028000Y-38608000D03*
X228728000Y-41148000D03*
X232028000Y-43688000D03*
X228728000Y-46228000D03*
X232028000Y-48768000D03*
X228728000Y-51308000D03*
X232028000Y-53848000D03*
X228728000Y-56388000D03*
X232028000Y-58928000D03*
X228728000Y-61468000D03*
X232028000Y-64008000D03*
%TD*%
D13*
%TO.C,SW14*%
X65215000Y-142494000D03*
X71945000Y-142494000D03*
%TD*%
M02*
