%TF.GenerationSoftware,KiCad,Pcbnew,8.0.2*%
%TF.CreationDate,2025-02-12T15:49:00+05:00*%
%TF.ProjectId,kicad_pcb,6b696361-645f-4706-9362-2e6b69636164,rev?*%
%TF.SameCoordinates,Original*%
%TF.FileFunction,Copper,L1,Top*%
%TF.FilePolarity,Positive*%
%FSLAX46Y46*%
G04 Gerber Fmt 4.6, Leading zero omitted, Abs format (unit mm)*
G04 Created by KiCad (PCBNEW 8.0.2) date 2025-02-12 15:49:00*
%MOMM*%
%LPD*%
G01*
G04 APERTURE LIST*
G04 Aperture macros list*
%AMRoundRect*
0 Rectangle with rounded corners*
0 $1 Rounding radius*
0 $2 $3 $4 $5 $6 $7 $8 $9 X,Y pos of 4 corners*
0 Add a 4 corners polygon primitive as box body*
4,1,4,$2,$3,$4,$5,$6,$7,$8,$9,$2,$3,0*
0 Add four circle primitives for the rounded corners*
1,1,$1+$1,$2,$3*
1,1,$1+$1,$4,$5*
1,1,$1+$1,$6,$7*
1,1,$1+$1,$8,$9*
0 Add four rect primitives between the rounded corners*
20,1,$1+$1,$2,$3,$4,$5,0*
20,1,$1+$1,$4,$5,$6,$7,0*
20,1,$1+$1,$6,$7,$8,$9,0*
20,1,$1+$1,$8,$9,$2,$3,0*%
G04 Aperture macros list end*
%TA.AperFunction,SMDPad,CuDef*%
%ADD10RoundRect,0.200000X-0.200000X-0.275000X0.200000X-0.275000X0.200000X0.275000X-0.200000X0.275000X0*%
%TD*%
%TA.AperFunction,SMDPad,CuDef*%
%ADD11R,1.000000X1.900000*%
%TD*%
%TA.AperFunction,SMDPad,CuDef*%
%ADD12RoundRect,0.100000X-0.130000X-0.100000X0.130000X-0.100000X0.130000X0.100000X-0.130000X0.100000X0*%
%TD*%
%TA.AperFunction,SMDPad,CuDef*%
%ADD13R,2.160000X1.120000*%
%TD*%
%TA.AperFunction,SMDPad,CuDef*%
%ADD14RoundRect,0.200000X-0.200000X-0.800000X0.200000X-0.800000X0.200000X0.800000X-0.200000X0.800000X0*%
%TD*%
%TA.AperFunction,SMDPad,CuDef*%
%ADD15RoundRect,0.200000X0.200000X0.275000X-0.200000X0.275000X-0.200000X-0.275000X0.200000X-0.275000X0*%
%TD*%
%TA.AperFunction,ComponentPad*%
%ADD16C,1.500000*%
%TD*%
%TA.AperFunction,SMDPad,CuDef*%
%ADD17RoundRect,0.200000X0.275000X-0.200000X0.275000X0.200000X-0.275000X0.200000X-0.275000X-0.200000X0*%
%TD*%
%TA.AperFunction,SMDPad,CuDef*%
%ADD18R,2.000000X2.500000*%
%TD*%
%TA.AperFunction,SMDPad,CuDef*%
%ADD19R,1.900000X1.000000*%
%TD*%
%TA.AperFunction,SMDPad,CuDef*%
%ADD20RoundRect,0.200000X-0.275000X0.200000X-0.275000X-0.200000X0.275000X-0.200000X0.275000X0.200000X0*%
%TD*%
%TA.AperFunction,SMDPad,CuDef*%
%ADD21RoundRect,0.100000X-0.100000X0.130000X-0.100000X-0.130000X0.100000X-0.130000X0.100000X0.130000X0*%
%TD*%
%TA.AperFunction,ComponentPad*%
%ADD22RoundRect,0.375000X0.375000X-0.375000X0.375000X0.375000X-0.375000X0.375000X-0.375000X-0.375000X0*%
%TD*%
%TA.AperFunction,ComponentPad*%
%ADD23R,1.800000X1.800000*%
%TD*%
%TA.AperFunction,ComponentPad*%
%ADD24O,1.800000X1.800000*%
%TD*%
%TA.AperFunction,SMDPad,CuDef*%
%ADD25R,0.660000X0.220000*%
%TD*%
%TA.AperFunction,SMDPad,CuDef*%
%ADD26R,0.440000X0.350000*%
%TD*%
%TA.AperFunction,SMDPad,CuDef*%
%ADD27R,1.000000X2.510000*%
%TD*%
%TA.AperFunction,SMDPad,CuDef*%
%ADD28RoundRect,0.225000X-0.250000X0.225000X-0.250000X-0.225000X0.250000X-0.225000X0.250000X0.225000X0*%
%TD*%
%TA.AperFunction,ComponentPad*%
%ADD29R,2.020000X5.020000*%
%TD*%
%TA.AperFunction,ComponentPad*%
%ADD30O,2.020000X5.020000*%
%TD*%
%TA.AperFunction,SMDPad,CuDef*%
%ADD31R,2.510000X1.000000*%
%TD*%
%TA.AperFunction,ViaPad*%
%ADD32C,0.450000*%
%TD*%
%TA.AperFunction,Conductor*%
%ADD33C,0.200000*%
%TD*%
G04 APERTURE END LIST*
D10*
%TO.P,R46,1*%
%TO.N,X49*%
X93663000Y-124206000D03*
%TO.P,R46,2*%
%TO.N,Net-(LED_12-A)*%
X95313000Y-124206000D03*
%TD*%
%TO.P,R35,1*%
%TO.N,X26*%
X93663000Y-43942000D03*
%TO.P,R35,2*%
%TO.N,Net-(LED_3-A)*%
X95313000Y-43942000D03*
%TD*%
D11*
%TO.P,RFID1,1,Pin_1*%
%TO.N,Y51*%
X194818000Y-22478000D03*
%TO.P,RFID1,2,Pin_2*%
%TO.N,X9*%
X197358000Y-19178000D03*
%TO.P,RFID1,3,Pin_3*%
%TO.N,X11*%
X199898000Y-22478000D03*
%TO.P,RFID1,4,Pin_4*%
%TO.N,X10*%
X202438000Y-19178000D03*
%TO.P,RFID1,5,Pin_5*%
%TO.N,unconnected-(RFID1-Pin_5-Pad5)*%
X204978000Y-22478000D03*
%TO.P,RFID1,6,Pin_6*%
%TO.N,GND*%
X207518000Y-19178000D03*
%TO.P,RFID1,7,Pin_7*%
%TO.N,Y52*%
X210058000Y-22478000D03*
%TO.P,RFID1,8,Pin_8*%
%TO.N,3V3*%
X212598000Y-19178000D03*
%TD*%
%TO.P,PIEZO_VIBRATION_SENSOR1,1,Pin_1*%
%TO.N,GND*%
X202184000Y-44704000D03*
%TO.P,PIEZO_VIBRATION_SENSOR1,2,Pin_2*%
%TO.N,3V3*%
X204724000Y-41404000D03*
%TO.P,PIEZO_VIBRATION_SENSOR1,3,Pin_3*%
%TO.N,Y74*%
X207264000Y-44704000D03*
%TD*%
D12*
%TO.P,LED_15,1,K*%
%TO.N,GND*%
X87981000Y-152146000D03*
%TO.P,LED_15,2,A*%
%TO.N,Net-(LED_15-A)*%
X88621000Y-152146000D03*
%TD*%
D13*
%TO.P,SW16,1*%
%TO.N,X72*%
X65215000Y-161798000D03*
%TO.P,SW16,2*%
%TO.N,3V3*%
X71945000Y-161798000D03*
%TD*%
D14*
%TO.P,PUSH_BTN_5,1,1*%
%TO.N,Y78*%
X204148000Y-100330000D03*
%TO.P,PUSH_BTN_5,2,2*%
%TO.N,3V3*%
X208348000Y-100330000D03*
%TD*%
D10*
%TO.P,R12,1*%
%TO.N,5V*%
X196342000Y-68326000D03*
%TO.P,R12,2*%
%TO.N,X44*%
X197992000Y-68326000D03*
%TD*%
D12*
%TO.P,LED_5,1,K*%
%TO.N,GND*%
X88138000Y-61976000D03*
%TO.P,LED_5,2,A*%
%TO.N,Net-(LED_5-A)*%
X88778000Y-61976000D03*
%TD*%
D13*
%TO.P,SW13,1*%
%TO.N,X69*%
X65215000Y-132842000D03*
%TO.P,SW13,2*%
%TO.N,3V3*%
X71945000Y-132842000D03*
%TD*%
D15*
%TO.P,R18,1*%
%TO.N,GND*%
X81343000Y-80264000D03*
%TO.P,R18,2*%
%TO.N,X62*%
X79693000Y-80264000D03*
%TD*%
%TO.P,R26,1*%
%TO.N,GND*%
X81343000Y-152146000D03*
%TO.P,R26,2*%
%TO.N,X71*%
X79693000Y-152146000D03*
%TD*%
D11*
%TO.P,ESP8266_BOT1,1,Pin_1*%
%TO.N,X14_WLAN_RXD*%
X178562000Y-40894000D03*
%TO.P,ESP8266_BOT1,2,Pin_2*%
%TO.N,unconnected-(ESP8266_BOT1-Pin_2-Pad2)*%
X176022000Y-44194000D03*
%TO.P,ESP8266_BOT1,3,Pin_3*%
%TO.N,unconnected-(ESP8266_BOT1-Pin_3-Pad3)*%
X173482000Y-40894000D03*
%TO.P,ESP8266_BOT1,4,Pin_4*%
%TO.N,GND*%
X170942000Y-44194000D03*
%TD*%
D16*
%TO.P,R36,1*%
%TO.N,Y73*%
X123698000Y-165432000D03*
%TO.P,R36,2*%
%TO.N,3V3*%
X123698000Y-168832000D03*
%TD*%
D11*
%TO.P,LORA_USED_PINS1,1,Pin_1*%
%TO.N,3V3*%
X160274000Y-22732000D03*
%TO.P,LORA_USED_PINS1,2,Pin_2*%
%TO.N,GND*%
X162814000Y-19432000D03*
%TO.P,LORA_USED_PINS1,3,Pin_3*%
%TO.N,unconnected-(LORA_USED_PINS1-Pin_3-Pad3)*%
X165354000Y-22732000D03*
%TO.P,LORA_USED_PINS1,4,Pin_4*%
%TO.N,Y48*%
X167894000Y-19432000D03*
%TO.P,LORA_USED_PINS1,5,Pin_5*%
%TO.N,X9*%
X170434000Y-22732000D03*
%TO.P,LORA_USED_PINS1,6,Pin_6*%
%TO.N,X10*%
X172974000Y-19432000D03*
%TO.P,LORA_USED_PINS1,7,Pin_7*%
%TO.N,X11*%
X175514000Y-22732000D03*
%TO.P,LORA_USED_PINS1,8,Pin_8*%
%TO.N,Y49*%
X178054000Y-19432000D03*
%TO.P,LORA_USED_PINS1,9,Pin_9*%
%TO.N,Y50*%
X180594000Y-22732000D03*
%TD*%
D15*
%TO.P,R16,1*%
%TO.N,GND*%
X81343000Y-61976000D03*
%TO.P,R16,2*%
%TO.N,X60*%
X79693000Y-61976000D03*
%TD*%
%TO.P,R17,1*%
%TO.N,GND*%
X81343000Y-71120000D03*
%TO.P,R17,2*%
%TO.N,X61*%
X79693000Y-71120000D03*
%TD*%
D13*
%TO.P,SW6,1*%
%TO.N,X61*%
X65215000Y-71120000D03*
%TO.P,SW6,2*%
%TO.N,3V3*%
X71945000Y-71120000D03*
%TD*%
D17*
%TO.P,R30,1*%
%TO.N,X77*%
X200152000Y-81343000D03*
%TO.P,R30,2*%
%TO.N,GND*%
X200152000Y-79693000D03*
%TD*%
D14*
%TO.P,PUSH_BTN_3,1,1*%
%TO.N,X77*%
X204148000Y-85598000D03*
%TO.P,PUSH_BTN_3,2,2*%
%TO.N,3V3*%
X208348000Y-85598000D03*
%TD*%
D12*
%TO.P,LED_12,1,K*%
%TO.N,GND*%
X88072000Y-124206000D03*
%TO.P,LED_12,2,A*%
%TO.N,Net-(LED_12-A)*%
X88712000Y-124206000D03*
%TD*%
D11*
%TO.P,PIR_MOTION_SENSOR1,1,Pin_1*%
%TO.N,GND*%
X190754000Y-132080000D03*
%TO.P,PIR_MOTION_SENSOR1,2,Pin_2*%
%TO.N,Y46*%
X193294000Y-128780000D03*
%TO.P,PIR_MOTION_SENSOR1,3,Pin_3*%
%TO.N,3V3*%
X195834000Y-132080000D03*
%TD*%
D14*
%TO.P,PUSH_BTN_4,1,1*%
%TO.N,X78*%
X204148000Y-115316000D03*
%TO.P,PUSH_BTN_4,2,2*%
%TO.N,3V3*%
X208348000Y-115316000D03*
%TD*%
D18*
%TO.P,POT2,1,1*%
%TO.N,3V3*%
X170806000Y-185935000D03*
%TO.P,POT2,2,2*%
%TO.N,Y75*%
X168656000Y-177285000D03*
%TO.P,POT2,3,3*%
%TO.N,GND*%
X166506000Y-185935000D03*
%TD*%
D12*
%TO.P,LED_9,1,K*%
%TO.N,GND*%
X88072000Y-97536000D03*
%TO.P,LED_9,2,A*%
%TO.N,Net-(LED_9-A)*%
X88712000Y-97536000D03*
%TD*%
D14*
%TO.P,PUSH_BTN_2,1,1*%
%TO.N,X76*%
X218558000Y-100584000D03*
%TO.P,PUSH_BTN_2,2,2*%
%TO.N,3V3*%
X222758000Y-100584000D03*
%TD*%
D19*
%TO.P,COLOR_SENSOR_DATA1,1,Pin_1*%
%TO.N,Y1*%
X215010000Y-137414000D03*
%TO.P,COLOR_SENSOR_DATA1,2,Pin_2*%
%TO.N,Y3*%
X211710000Y-134874000D03*
%TO.P,COLOR_SENSOR_DATA1,3,Pin_3*%
%TO.N,Y4*%
X215010000Y-132334000D03*
%TO.P,COLOR_SENSOR_DATA1,4,Pin_4*%
%TO.N,Y14*%
X211710000Y-129794000D03*
%TO.P,COLOR_SENSOR_DATA1,5,Pin_5*%
%TO.N,Y22*%
X215010000Y-127254000D03*
%TD*%
D13*
%TO.P,SW2,1*%
%TO.N,X57*%
X65215000Y-36068000D03*
%TO.P,SW2,2*%
%TO.N,3V3*%
X71945000Y-36068000D03*
%TD*%
D15*
%TO.P,R22,1*%
%TO.N,GND*%
X81343000Y-115316000D03*
%TO.P,R22,2*%
%TO.N,X67*%
X79693000Y-115316000D03*
%TD*%
D10*
%TO.P,R39,1*%
%TO.N,X34*%
X93663000Y-61976000D03*
%TO.P,R39,2*%
%TO.N,Net-(LED_5-A)*%
X95313000Y-61976000D03*
%TD*%
D20*
%TO.P,R32,1*%
%TO.N,Y78*%
X199136000Y-105855000D03*
%TO.P,R32,2*%
%TO.N,GND*%
X199136000Y-107505000D03*
%TD*%
D10*
%TO.P,R33,1*%
%TO.N,X24*%
X93663000Y-27178000D03*
%TO.P,R33,2*%
%TO.N,Net-(LED_1-A)*%
X95313000Y-27178000D03*
%TD*%
D21*
%TO.P,R37,1*%
%TO.N,3V3*%
X225552000Y-83917000D03*
%TO.P,R37,2*%
%TO.N,Y54*%
X225552000Y-84557000D03*
%TD*%
D19*
%TO.P,BUZZER1,1,Pin_1*%
%TO.N,3V3*%
X226822000Y-156210000D03*
%TO.P,BUZZER1,2,Pin_2*%
%TO.N,Y13*%
X223522000Y-153670000D03*
%TO.P,BUZZER1,3,Pin_3*%
%TO.N,GND*%
X226822000Y-151130000D03*
%TD*%
D10*
%TO.P,R50,1*%
%TO.N,Y77*%
X93663000Y-161798000D03*
%TO.P,R50,2*%
%TO.N,Net-(LED_16-A)*%
X95313000Y-161798000D03*
%TD*%
D22*
%TO.P,7_SEG1,1,CA1*%
%TO.N,Y25*%
X122428000Y-40861500D03*
D16*
%TO.P,7_SEG1,2,CA2*%
%TO.N,Y26*%
X124968000Y-40861500D03*
%TO.P,7_SEG1,3,D*%
%TO.N,Y18*%
X127508000Y-40861500D03*
%TO.P,7_SEG1,4,CAL*%
%TO.N,unconnected-(7_SEG1-CAL-Pad4)*%
X130048000Y-40861500D03*
%TO.P,7_SEG1,5,E*%
%TO.N,Y19*%
X132588000Y-40861500D03*
%TO.P,7_SEG1,6,CA3*%
%TO.N,Y27*%
X135128000Y-40861500D03*
%TO.P,7_SEG1,7,DP*%
%TO.N,unconnected-(7_SEG1-DP-Pad7)*%
X137668000Y-40861500D03*
%TO.P,7_SEG1,8,CA4*%
%TO.N,Y28*%
X140208000Y-40861500D03*
%TO.P,7_SEG1,9,NC*%
%TO.N,unconnected-(7_SEG1-NC-Pad9)*%
X140208000Y-30701500D03*
%TO.P,7_SEG1,11,F*%
%TO.N,Y20*%
X135128000Y-30701500D03*
%TO.P,7_SEG1,13,C*%
%TO.N,Y17*%
X130048000Y-30701500D03*
%TO.P,7_SEG1,14,A*%
%TO.N,Y15*%
X127508000Y-30701500D03*
%TO.P,7_SEG1,15,G*%
%TO.N,Y21*%
X124968000Y-30701500D03*
%TO.P,7_SEG1,16,B*%
%TO.N,Y16*%
X122428000Y-30701500D03*
%TD*%
D10*
%TO.P,R14,1*%
%TO.N,5V*%
X196299000Y-63605000D03*
%TO.P,R14,2*%
%TO.N,X46*%
X197949000Y-63605000D03*
%TD*%
D23*
%TO.P,U1,1,SENSE_A*%
%TO.N,unconnected-(U1-SENSE_A-Pad1)*%
X139187000Y-175023000D03*
D24*
%TO.P,U1,2,OUT1*%
%TO.N,Net-(LEFT_MOTOR1-Pin_2)*%
X140457000Y-169943000D03*
%TO.P,U1,3,OUT2*%
%TO.N,Net-(LEFT_MOTOR1-Pin_1)*%
X141727000Y-175023000D03*
%TO.P,U1,4,Vs*%
%TO.N,12V*%
X142997000Y-169943000D03*
%TO.P,U1,5,IN1*%
%TO.N,Y60*%
X144267000Y-175023000D03*
%TO.P,U1,6,EnA*%
%TO.N,Y62*%
X145537000Y-169943000D03*
%TO.P,U1,7,IN2*%
%TO.N,Y36*%
X146807000Y-175023000D03*
%TO.P,U1,8,GND*%
%TO.N,GND*%
X148077000Y-169943000D03*
%TO.P,U1,9,Vss*%
%TO.N,unconnected-(U1-Vss-Pad9)*%
X149347000Y-175023000D03*
%TO.P,U1,10,IN3*%
%TO.N,Y63*%
X150617000Y-169943000D03*
%TO.P,U1,11,EnB*%
%TO.N,Y65*%
X151887000Y-175023000D03*
%TO.P,U1,12,IN4*%
%TO.N,Y42*%
X153157000Y-169943000D03*
%TO.P,U1,13,OUT3*%
%TO.N,Net-(RIGHT_MOTOR1-Pin_2)*%
X154427000Y-175023000D03*
%TO.P,U1,14,OUT4*%
%TO.N,Net-(RIGHT_MOTOR1-Pin_1)*%
X155697000Y-169943000D03*
%TO.P,U1,15,SENSE_B*%
%TO.N,unconnected-(U1-SENSE_B-Pad15)*%
X156967000Y-175023000D03*
%TD*%
D25*
%TO.P,X_conns1,1,Pin_1*%
%TO.N,X1*%
X124714000Y-92222000D03*
%TO.P,X_conns1,2,Pin_2*%
%TO.N,X2*%
X126424000Y-92222000D03*
%TO.P,X_conns1,3,Pin_3*%
%TO.N,X3*%
X124714000Y-92622000D03*
%TO.P,X_conns1,4,Pin_4*%
%TO.N,X4*%
X126424000Y-92622000D03*
%TO.P,X_conns1,5,Pin_5*%
%TO.N,X5*%
X124714000Y-93022000D03*
%TO.P,X_conns1,6,Pin_6*%
%TO.N,X6*%
X126424000Y-93022000D03*
%TO.P,X_conns1,7,Pin_7*%
%TO.N,X7*%
X124714000Y-93422000D03*
%TO.P,X_conns1,8,Pin_8*%
%TO.N,X8*%
X126424000Y-93422000D03*
%TO.P,X_conns1,9,Pin_9*%
%TO.N,X9*%
X124714000Y-93822000D03*
%TO.P,X_conns1,10,Pin_10*%
%TO.N,X10*%
X126424000Y-93822000D03*
%TO.P,X_conns1,11,Pin_11*%
%TO.N,X11*%
X124714000Y-94222000D03*
%TO.P,X_conns1,12,Pin_12*%
%TO.N,X12_BLE_RXD*%
X126424000Y-94222000D03*
%TO.P,X_conns1,13,Pin_13*%
%TO.N,X13_BLE_TXD*%
X124714000Y-94622000D03*
%TO.P,X_conns1,14,Pin_14*%
%TO.N,X14_WLAN_RXD*%
X126424000Y-94622000D03*
%TO.P,X_conns1,15,Pin_15*%
%TO.N,X15_WLAN_TXD*%
X124714000Y-95022000D03*
%TO.P,X_conns1,16,Pin_16*%
%TO.N,X16*%
X126424000Y-95022000D03*
%TO.P,X_conns1,17,Pin_17*%
%TO.N,X17*%
X124714000Y-95422000D03*
%TO.P,X_conns1,18,Pin_18*%
%TO.N,X18*%
X126424000Y-95422000D03*
%TO.P,X_conns1,19,Pin_19*%
%TO.N,X19*%
X124714000Y-95822000D03*
%TO.P,X_conns1,20,Pin_20*%
%TO.N,unconnected-(X_conns1-Pin_20-Pad20)*%
X126424000Y-95822000D03*
%TO.P,X_conns1,21,Pin_21*%
%TO.N,VDD*%
X124714000Y-96222000D03*
%TO.P,X_conns1,22,Pin_22*%
%TO.N,GND*%
X126424000Y-96222000D03*
%TO.P,X_conns1,23,Pin_23*%
%TO.N,unconnected-(X_conns1-Pin_23-Pad23)*%
X124714000Y-96622000D03*
%TO.P,X_conns1,24,Pin_24*%
%TO.N,X24*%
X126424000Y-96622000D03*
%TO.P,X_conns1,25,Pin_25*%
%TO.N,X25*%
X124714000Y-97022000D03*
%TO.P,X_conns1,26,Pin_26*%
%TO.N,X26*%
X126424000Y-97022000D03*
%TO.P,X_conns1,27,Pin_27*%
%TO.N,X27*%
X124714000Y-97422000D03*
%TO.P,X_conns1,28,Pin_28*%
%TO.N,X28*%
X126424000Y-97422000D03*
%TO.P,X_conns1,29,Pin_29*%
%TO.N,X29*%
X124714000Y-97822000D03*
%TO.P,X_conns1,30,Pin_30*%
%TO.N,X30*%
X126424000Y-97822000D03*
%TO.P,X_conns1,31,Pin_31*%
%TO.N,GND*%
X124714000Y-98222000D03*
%TO.P,X_conns1,32,Pin_32*%
%TO.N,VDD*%
X126424000Y-98222000D03*
%TO.P,X_conns1,33,Pin_33*%
%TO.N,X33*%
X124714000Y-98622000D03*
%TO.P,X_conns1,34,Pin_34*%
%TO.N,X34*%
X126424000Y-98622000D03*
%TO.P,X_conns1,35,Pin_35*%
%TO.N,X35*%
X124714000Y-99022000D03*
%TO.P,X_conns1,36,Pin_36*%
%TO.N,X36*%
X126424000Y-99022000D03*
%TO.P,X_conns1,37,Pin_37*%
%TO.N,X37*%
X124714000Y-99422000D03*
%TO.P,X_conns1,38,Pin_38*%
%TO.N,X38*%
X126424000Y-99422000D03*
%TO.P,X_conns1,39,Pin_39*%
%TO.N,X39*%
X124714000Y-99822000D03*
%TO.P,X_conns1,40,Pin_40*%
%TO.N,X40*%
X126424000Y-99822000D03*
%TO.P,X_conns1,41,Pin_41*%
%TO.N,VDD*%
X124714000Y-100222000D03*
%TO.P,X_conns1,42,Pin_42*%
%TO.N,GND*%
X126424000Y-100222000D03*
%TO.P,X_conns1,43,Pin_43*%
%TO.N,unconnected-(X_conns1-Pin_43-Pad43)*%
X124714000Y-100622000D03*
%TO.P,X_conns1,44,Pin_44*%
%TO.N,X44*%
X126424000Y-100622000D03*
%TO.P,X_conns1,45,Pin_45*%
%TO.N,unconnected-(X_conns1-Pin_45-Pad45)*%
X124714000Y-101022000D03*
%TO.P,X_conns1,46,Pin_46*%
%TO.N,X46*%
X126424000Y-101022000D03*
%TO.P,X_conns1,47,Pin_47*%
%TO.N,GND*%
X124714000Y-101422000D03*
%TO.P,X_conns1,48,Pin_48*%
%TO.N,VDD*%
X126424000Y-101422000D03*
%TO.P,X_conns1,49,Pin_49*%
%TO.N,X49*%
X124714000Y-101822000D03*
%TO.P,X_conns1,50,Pin_50*%
%TO.N,X50*%
X126424000Y-101822000D03*
%TO.P,X_conns1,51,Pin_51*%
%TO.N,X51*%
X124714000Y-102222000D03*
%TO.P,X_conns1,52,Pin_52*%
%TO.N,X52*%
X126424000Y-102222000D03*
%TO.P,X_conns1,53,Pin_53*%
%TO.N,3V3*%
X124714000Y-102622000D03*
%TO.P,X_conns1,54,Pin_54*%
%TO.N,GND*%
X126424000Y-102622000D03*
%TO.P,X_conns1,55,Pin_55*%
%TO.N,unconnected-(X_conns1-Pin_55-Pad55)*%
X124714000Y-103022000D03*
%TO.P,X_conns1,56,Pin_56*%
%TO.N,X56*%
X126424000Y-103022000D03*
%TO.P,X_conns1,57,Pin_57*%
%TO.N,X57*%
X124714000Y-103422000D03*
%TO.P,X_conns1,58,Pin_58*%
%TO.N,X58*%
X126424000Y-103422000D03*
%TO.P,X_conns1,59,Pin_59*%
%TO.N,X59*%
X124714000Y-103822000D03*
%TO.P,X_conns1,60,Pin_60*%
%TO.N,X60*%
X126424000Y-103822000D03*
%TO.P,X_conns1,61,Pin_61*%
%TO.N,X61*%
X124714000Y-104222000D03*
%TO.P,X_conns1,62,Pin_62*%
%TO.N,X62*%
X126424000Y-104222000D03*
%TO.P,X_conns1,63,Pin_63*%
%TO.N,X63*%
X124714000Y-104622000D03*
%TO.P,X_conns1,64,Pin_64*%
%TO.N,3V3*%
X126424000Y-104622000D03*
%TO.P,X_conns1,65,Pin_65*%
%TO.N,X65*%
X124714000Y-105022000D03*
%TO.P,X_conns1,66,Pin_66*%
%TO.N,X66*%
X126424000Y-105022000D03*
%TO.P,X_conns1,67,Pin_67*%
%TO.N,X67*%
X124714000Y-105422000D03*
%TO.P,X_conns1,68,Pin_68*%
%TO.N,X68*%
X126424000Y-105422000D03*
%TO.P,X_conns1,69,Pin_69*%
%TO.N,X69*%
X124714000Y-105822000D03*
%TO.P,X_conns1,70,Pin_70*%
%TO.N,X70*%
X126424000Y-105822000D03*
%TO.P,X_conns1,71,Pin_71*%
%TO.N,X71*%
X124714000Y-106222000D03*
%TO.P,X_conns1,72,Pin_72*%
%TO.N,X72*%
X126424000Y-106222000D03*
%TO.P,X_conns1,73,Pin_73*%
%TO.N,unconnected-(X_conns1-Pin_73-Pad73)*%
X124714000Y-106622000D03*
%TO.P,X_conns1,74,Pin_74*%
%TO.N,unconnected-(X_conns1-Pin_74-Pad74)*%
X126424000Y-106622000D03*
%TO.P,X_conns1,75,Pin_75*%
%TO.N,X75*%
X124714000Y-107022000D03*
%TO.P,X_conns1,76,Pin_76*%
%TO.N,X76*%
X126424000Y-107022000D03*
%TO.P,X_conns1,77,Pin_77*%
%TO.N,X77*%
X124714000Y-107422000D03*
%TO.P,X_conns1,78,Pin_78*%
%TO.N,X78*%
X126424000Y-107422000D03*
%TO.P,X_conns1,79,Pin_79*%
%TO.N,X79*%
X124714000Y-107822000D03*
%TO.P,X_conns1,80,Pin_80*%
%TO.N,unconnected-(X_conns1-Pin_80-Pad80)*%
X126424000Y-107822000D03*
D26*
%TO.P,X_conns1,MP1*%
%TO.N,N/C*%
X125569000Y-91272000D03*
%TO.P,X_conns1,MP2*%
X125569000Y-108772000D03*
%TD*%
D15*
%TO.P,R31,1*%
%TO.N,X78*%
X199961000Y-115316000D03*
%TO.P,R31,2*%
%TO.N,GND*%
X198311000Y-115316000D03*
%TD*%
D27*
%TO.P,MOISTURE_SENSOR1,1,Pin_1*%
%TO.N,Y2*%
X114300000Y-134120000D03*
%TO.P,MOISTURE_SENSOR1,2,Pin_2*%
%TO.N,3V3*%
X116840000Y-130810000D03*
%TO.P,MOISTURE_SENSOR1,3,Pin_3*%
%TO.N,GND*%
X119380000Y-134120000D03*
%TD*%
D13*
%TO.P,SW5,1*%
%TO.N,X60*%
X65215000Y-61976000D03*
%TO.P,SW5,2*%
%TO.N,3V3*%
X71945000Y-61976000D03*
%TD*%
D14*
%TO.P,PUSH_BTN_1,1,1*%
%TO.N,X75*%
X188654000Y-100330000D03*
%TO.P,PUSH_BTN_1,2,2*%
%TO.N,3V3*%
X192854000Y-100330000D03*
%TD*%
D10*
%TO.P,R38,1*%
%TO.N,X33*%
X93663000Y-53340000D03*
%TO.P,R38,2*%
%TO.N,Net-(LED_4-A)*%
X95313000Y-53340000D03*
%TD*%
D15*
%TO.P,R24,1*%
%TO.N,GND*%
X81343000Y-132842000D03*
%TO.P,R24,2*%
%TO.N,X69*%
X79693000Y-132842000D03*
%TD*%
%TO.P,R21,1*%
%TO.N,GND*%
X81343000Y-106426000D03*
%TO.P,R21,2*%
%TO.N,X66*%
X79693000Y-106426000D03*
%TD*%
D13*
%TO.P,SW15,1*%
%TO.N,X71*%
X65215000Y-152146000D03*
%TO.P,SW15,2*%
%TO.N,3V3*%
X71945000Y-152146000D03*
%TD*%
D15*
%TO.P,R27,1*%
%TO.N,GND*%
X81280000Y-161798000D03*
%TO.P,R27,2*%
%TO.N,X72*%
X79630000Y-161798000D03*
%TD*%
D28*
%TO.P,C5,1*%
%TO.N,GND*%
X172466000Y-49771000D03*
%TO.P,C5,2*%
%TO.N,3V3*%
X172466000Y-51321000D03*
%TD*%
D15*
%TO.P,R20,1*%
%TO.N,GND*%
X81343000Y-97536000D03*
%TO.P,R20,2*%
%TO.N,X65*%
X79693000Y-97536000D03*
%TD*%
%TO.P,R28,1*%
%TO.N,X75*%
X184276000Y-100584000D03*
%TO.P,R28,2*%
%TO.N,GND*%
X182626000Y-100584000D03*
%TD*%
D13*
%TO.P,SW11,1*%
%TO.N,X67*%
X65215000Y-115316000D03*
%TO.P,SW11,2*%
%TO.N,3V3*%
X71945000Y-115316000D03*
%TD*%
D12*
%TO.P,LED_6,1,K*%
%TO.N,GND*%
X88006000Y-71120000D03*
%TO.P,LED_6,2,A*%
%TO.N,Net-(LED_6-A)*%
X88646000Y-71120000D03*
%TD*%
D13*
%TO.P,SW4,1*%
%TO.N,X59*%
X65215000Y-53086000D03*
%TO.P,SW4,2*%
%TO.N,3V3*%
X71945000Y-53086000D03*
%TD*%
D19*
%TO.P,DHT22,1,Pin_1*%
%TO.N,3V3*%
X228728000Y-81534000D03*
%TO.P,DHT22,2,Pin_2*%
%TO.N,Y54*%
X232028000Y-84074000D03*
%TO.P,DHT22,3,Pin_3*%
%TO.N,unconnected-(DHT22-Pin_3-Pad3)*%
X228728000Y-86614000D03*
%TO.P,DHT22,4,Pin_4*%
%TO.N,GND*%
X232028000Y-89154000D03*
%TD*%
D29*
%TO.P,J10,1*%
%TO.N,/Power/VIN_IP*%
X65538000Y-184404000D03*
D30*
%TO.P,J10,2*%
%TO.N,GND*%
X70718000Y-184404000D03*
%TD*%
D10*
%TO.P,R42,1*%
%TO.N,X37*%
X93600000Y-88646000D03*
%TO.P,R42,2*%
%TO.N,Net-(LED_8-A)*%
X95250000Y-88646000D03*
%TD*%
D20*
%TO.P,R29,1*%
%TO.N,X76*%
X226568000Y-104522000D03*
%TO.P,R29,2*%
%TO.N,GND*%
X226568000Y-106172000D03*
%TD*%
D12*
%TO.P,LED_3,1,K*%
%TO.N,GND*%
X88006000Y-43942000D03*
%TO.P,LED_3,2,A*%
%TO.N,Net-(LED_3-A)*%
X88646000Y-43942000D03*
%TD*%
D13*
%TO.P,SW3,1*%
%TO.N,X58*%
X65215000Y-44196000D03*
%TO.P,SW3,2*%
%TO.N,3V3*%
X71945000Y-44196000D03*
%TD*%
D15*
%TO.P,R25,1*%
%TO.N,GND*%
X81343000Y-142494000D03*
%TO.P,R25,2*%
%TO.N,X70*%
X79693000Y-142494000D03*
%TD*%
D10*
%TO.P,R44,1*%
%TO.N,X39*%
X93663000Y-106426000D03*
%TO.P,R44,2*%
%TO.N,Net-(LED_10-A)*%
X95313000Y-106426000D03*
%TD*%
D12*
%TO.P,LED_1,1,K*%
%TO.N,GND*%
X87818000Y-27178000D03*
%TO.P,LED_1,2,A*%
%TO.N,Net-(LED_1-A)*%
X88458000Y-27178000D03*
%TD*%
D13*
%TO.P,SW9,1*%
%TO.N,X65*%
X65215000Y-97536000D03*
%TO.P,SW9,2*%
%TO.N,3V3*%
X71945000Y-97536000D03*
%TD*%
%TO.P,SW10,1*%
%TO.N,X66*%
X65215000Y-106426000D03*
%TO.P,SW10,2*%
%TO.N,3V3*%
X71945000Y-106426000D03*
%TD*%
D12*
%TO.P,LED_13,1,K*%
%TO.N,GND*%
X87981000Y-132842000D03*
%TO.P,LED_13,2,A*%
%TO.N,Net-(LED_13-A)*%
X88621000Y-132842000D03*
%TD*%
D15*
%TO.P,R15,1*%
%TO.N,GND*%
X81343000Y-53340000D03*
%TO.P,R15,2*%
%TO.N,X59*%
X79693000Y-53340000D03*
%TD*%
D11*
%TO.P,MIC_MODULE1,1,Pin_1*%
%TO.N,Y79*%
X149352000Y-138684000D03*
%TO.P,MIC_MODULE1,2,Pin_2*%
%TO.N,GND*%
X151892000Y-135384000D03*
%TO.P,MIC_MODULE1,3,Pin_3*%
%TO.N,3V3*%
X154432000Y-138684000D03*
%TO.P,MIC_MODULE1,4,Pin_4*%
%TO.N,unconnected-(MIC_MODULE1-Pin_4-Pad4)*%
X156972000Y-135384000D03*
%TD*%
%TO.P,ESP8266_TOP1,1,Pin_1*%
%TO.N,3V3*%
X178054000Y-56896000D03*
%TO.P,ESP8266_TOP1,2,Pin_2*%
%TO.N,unconnected-(ESP8266_TOP1-Pin_2-Pad2)*%
X175514000Y-60196000D03*
%TO.P,ESP8266_TOP1,3,Pin_3*%
%TO.N,3V3*%
X172974000Y-56896000D03*
%TO.P,ESP8266_TOP1,4,Pin_4*%
%TO.N,X15_WLAN_TXD*%
X170434000Y-60196000D03*
%TD*%
D15*
%TO.P,R3,1*%
%TO.N,GND*%
X81343000Y-35560000D03*
%TO.P,R3,2*%
%TO.N,X57*%
X79693000Y-35560000D03*
%TD*%
%TO.P,R19,1*%
%TO.N,GND*%
X81343000Y-88646000D03*
%TO.P,R19,2*%
%TO.N,X63*%
X79693000Y-88646000D03*
%TD*%
D10*
%TO.P,R40,1*%
%TO.N,X35*%
X93663000Y-71120000D03*
%TO.P,R40,2*%
%TO.N,Net-(LED_6-A)*%
X95313000Y-71120000D03*
%TD*%
D11*
%TO.P,OLED1,1,Pin_1*%
%TO.N,GND*%
X193294000Y-168656000D03*
%TO.P,OLED1,2,Pin_2*%
%TO.N,3V3*%
X195834000Y-165356000D03*
%TO.P,OLED1,3,Pin_3*%
%TO.N,X46*%
X198374000Y-168656000D03*
%TO.P,OLED1,4,Pin_4*%
%TO.N,X44*%
X200914000Y-165356000D03*
%TD*%
D10*
%TO.P,R43,1*%
%TO.N,X38*%
X93663000Y-97536000D03*
%TO.P,R43,2*%
%TO.N,Net-(LED_9-A)*%
X95313000Y-97536000D03*
%TD*%
D12*
%TO.P,LED_16,1,K*%
%TO.N,GND*%
X87981000Y-161798000D03*
%TO.P,LED_16,2,A*%
%TO.N,Net-(LED_16-A)*%
X88621000Y-161798000D03*
%TD*%
D10*
%TO.P,R49,1*%
%TO.N,X52*%
X93663000Y-152146000D03*
%TO.P,R49,2*%
%TO.N,Net-(LED_15-A)*%
X95313000Y-152146000D03*
%TD*%
%TO.P,R41,1*%
%TO.N,X36*%
X93663000Y-80264000D03*
%TO.P,R41,2*%
%TO.N,Net-(LED_7-A)*%
X95313000Y-80264000D03*
%TD*%
D18*
%TO.P,POT1,1,1*%
%TO.N,3V3*%
X127626000Y-185935000D03*
%TO.P,POT1,2,2*%
%TO.N,X79*%
X125476000Y-177285000D03*
%TO.P,POT1,3,3*%
%TO.N,GND*%
X123326000Y-185935000D03*
%TD*%
D15*
%TO.P,R1,1*%
%TO.N,GND*%
X81089000Y-27178000D03*
%TO.P,R1,2*%
%TO.N,X56*%
X79439000Y-27178000D03*
%TD*%
%TO.P,R13,1*%
%TO.N,GND*%
X81343000Y-43942000D03*
%TO.P,R13,2*%
%TO.N,X58*%
X79693000Y-43942000D03*
%TD*%
D10*
%TO.P,R47,1*%
%TO.N,X50*%
X93663000Y-132842000D03*
%TO.P,R47,2*%
%TO.N,Net-(LED_13-A)*%
X95313000Y-132842000D03*
%TD*%
D19*
%TO.P,COLOR_SENSOR_PWR1,1,Pin_1*%
%TO.N,GND*%
X231012000Y-137414000D03*
%TO.P,COLOR_SENSOR_PWR1,2,Pin_2*%
%TO.N,unconnected-(COLOR_SENSOR_PWR1-Pin_2-Pad2)*%
X227712000Y-134874000D03*
%TO.P,COLOR_SENSOR_PWR1,3,Pin_3*%
%TO.N,unconnected-(COLOR_SENSOR_PWR1-Pin_3-Pad3)*%
X231012000Y-132334000D03*
%TO.P,COLOR_SENSOR_PWR1,4,Pin_4*%
%TO.N,unconnected-(COLOR_SENSOR_PWR1-Pin_4-Pad4)*%
X227712000Y-129794000D03*
%TO.P,COLOR_SENSOR_PWR1,5,Pin_5*%
%TO.N,3V3*%
X231012000Y-127254000D03*
%TD*%
D15*
%TO.P,R23,1*%
%TO.N,GND*%
X81343000Y-124206000D03*
%TO.P,R23,2*%
%TO.N,X68*%
X79693000Y-124206000D03*
%TD*%
D31*
%TO.P,HC05_BLE1,1,Pin_1*%
%TO.N,unconnected-(HC05_BLE1-Pin_1-Pad1)*%
X226052000Y-172974000D03*
%TO.P,HC05_BLE1,2,Pin_2*%
%TO.N,X12_BLE_RXD*%
X229362000Y-175514000D03*
%TO.P,HC05_BLE1,3,Pin_3*%
%TO.N,X13_BLE_TXD*%
X226052000Y-178054000D03*
%TO.P,HC05_BLE1,4,Pin_4*%
%TO.N,GND*%
X229362000Y-180594000D03*
%TO.P,HC05_BLE1,5,Pin_5*%
%TO.N,3V3*%
X226052000Y-183134000D03*
%TO.P,HC05_BLE1,6,Pin_6*%
%TO.N,unconnected-(HC05_BLE1-Pin_6-Pad6)*%
X229362000Y-185674000D03*
%TD*%
D22*
%TO.P,7_SEG2,1,CA1*%
%TO.N,Y29*%
X122174000Y-69088000D03*
D16*
%TO.P,7_SEG2,2,CA2*%
%TO.N,Y30*%
X124714000Y-69088000D03*
%TO.P,7_SEG2,3,D*%
%TO.N,Y18*%
X127254000Y-69088000D03*
%TO.P,7_SEG2,4,CAL*%
%TO.N,unconnected-(7_SEG2-CAL-Pad4)*%
X129794000Y-69088000D03*
%TO.P,7_SEG2,5,E*%
%TO.N,Y19*%
X132334000Y-69088000D03*
%TO.P,7_SEG2,6,CA3*%
%TO.N,Y31*%
X134874000Y-69088000D03*
%TO.P,7_SEG2,7,DP*%
%TO.N,unconnected-(7_SEG2-DP-Pad7)*%
X137414000Y-69088000D03*
%TO.P,7_SEG2,8,CA4*%
%TO.N,Y32*%
X139954000Y-69088000D03*
%TO.P,7_SEG2,9,NC*%
%TO.N,unconnected-(7_SEG2-NC-Pad9)*%
X139954000Y-58928000D03*
%TO.P,7_SEG2,11,F*%
%TO.N,Y20*%
X134874000Y-58928000D03*
%TO.P,7_SEG2,13,C*%
%TO.N,Y17*%
X129794000Y-58928000D03*
%TO.P,7_SEG2,14,A*%
%TO.N,Y15*%
X127254000Y-58928000D03*
%TO.P,7_SEG2,15,G*%
%TO.N,Y21*%
X124714000Y-58928000D03*
%TO.P,7_SEG2,16,B*%
%TO.N,Y16*%
X122174000Y-58928000D03*
%TD*%
D13*
%TO.P,SW8,1*%
%TO.N,X63*%
X65215000Y-88646000D03*
%TO.P,SW8,2*%
%TO.N,3V3*%
X71945000Y-88646000D03*
%TD*%
D27*
%TO.P,KEYPAD1,1,Pin_1*%
%TO.N,X1*%
X110998000Y-150376000D03*
%TO.P,KEYPAD1,2,Pin_2*%
%TO.N,X2*%
X113538000Y-147066000D03*
%TO.P,KEYPAD1,3,Pin_3*%
%TO.N,X3*%
X116078000Y-150376000D03*
%TO.P,KEYPAD1,4,Pin_4*%
%TO.N,X4*%
X118618000Y-147066000D03*
%TO.P,KEYPAD1,5,Pin_5*%
%TO.N,X5*%
X121158000Y-150376000D03*
%TO.P,KEYPAD1,6,Pin_6*%
%TO.N,X6*%
X123698000Y-147066000D03*
%TO.P,KEYPAD1,7,Pin_7*%
%TO.N,X7*%
X126238000Y-150376000D03*
%TO.P,KEYPAD1,8,Pin_8*%
%TO.N,X8*%
X128778000Y-147066000D03*
%TD*%
D12*
%TO.P,LED_11,1,K*%
%TO.N,GND*%
X88072000Y-115316000D03*
%TO.P,LED_11,2,A*%
%TO.N,Net-(LED_11-A)*%
X88712000Y-115316000D03*
%TD*%
D10*
%TO.P,R34,1*%
%TO.N,X25*%
X93663000Y-35560000D03*
%TO.P,R34,2*%
%TO.N,Net-(LED_2-A)*%
X95313000Y-35560000D03*
%TD*%
D12*
%TO.P,LED_2,1,K*%
%TO.N,GND*%
X87818000Y-35560000D03*
%TO.P,LED_2,2,A*%
%TO.N,Net-(LED_2-A)*%
X88458000Y-35560000D03*
%TD*%
%TO.P,LED_7,1,K*%
%TO.N,GND*%
X88144000Y-80264000D03*
%TO.P,LED_7,2,A*%
%TO.N,Net-(LED_7-A)*%
X88784000Y-80264000D03*
%TD*%
%TO.P,LED_10,1,K*%
%TO.N,GND*%
X88072000Y-106426000D03*
%TO.P,LED_10,2,A*%
%TO.N,Net-(LED_10-A)*%
X88712000Y-106426000D03*
%TD*%
D25*
%TO.P,Y_conns1,1,Pin_1*%
%TO.N,Y1*%
X169604000Y-107822000D03*
%TO.P,Y_conns1,2,Pin_2*%
%TO.N,Y2*%
X167894000Y-107822000D03*
%TO.P,Y_conns1,3,Pin_3*%
%TO.N,Y3*%
X169604000Y-107422000D03*
%TO.P,Y_conns1,4,Pin_4*%
%TO.N,Y4*%
X167894000Y-107422000D03*
%TO.P,Y_conns1,5,Pin_5*%
%TO.N,Y5*%
X169604000Y-107022000D03*
%TO.P,Y_conns1,6,Pin_6*%
%TO.N,Y6*%
X167894000Y-107022000D03*
%TO.P,Y_conns1,7,Pin_7*%
%TO.N,Y7*%
X169604000Y-106622000D03*
%TO.P,Y_conns1,8,Pin_8*%
%TO.N,Y8*%
X167894000Y-106622000D03*
%TO.P,Y_conns1,9,Pin_9*%
%TO.N,Y9*%
X169604000Y-106222000D03*
%TO.P,Y_conns1,10,Pin_10*%
%TO.N,Y10*%
X167894000Y-106222000D03*
%TO.P,Y_conns1,11,Pin_11*%
%TO.N,Y11*%
X169604000Y-105822000D03*
%TO.P,Y_conns1,12,Pin_12*%
%TO.N,Y12*%
X167894000Y-105822000D03*
%TO.P,Y_conns1,13,Pin_13*%
%TO.N,Y13*%
X169604000Y-105422000D03*
%TO.P,Y_conns1,14,Pin_14*%
%TO.N,Y14*%
X167894000Y-105422000D03*
%TO.P,Y_conns1,15,Pin_15*%
%TO.N,Y15*%
X169604000Y-105022000D03*
%TO.P,Y_conns1,16,Pin_16*%
%TO.N,Y16*%
X167894000Y-105022000D03*
%TO.P,Y_conns1,17,Pin_17*%
%TO.N,Y17*%
X169604000Y-104622000D03*
%TO.P,Y_conns1,18,Pin_18*%
%TO.N,Y18*%
X167894000Y-104622000D03*
%TO.P,Y_conns1,19,Pin_19*%
%TO.N,Y19*%
X169604000Y-104222000D03*
%TO.P,Y_conns1,20,Pin_20*%
%TO.N,Y20*%
X167894000Y-104222000D03*
%TO.P,Y_conns1,21,Pin_21*%
%TO.N,Y21*%
X169604000Y-103822000D03*
%TO.P,Y_conns1,22,Pin_22*%
%TO.N,Y22*%
X167894000Y-103822000D03*
%TO.P,Y_conns1,23,Pin_23*%
%TO.N,3V3*%
X169604000Y-103422000D03*
%TO.P,Y_conns1,24,Pin_24*%
%TO.N,GND*%
X167894000Y-103422000D03*
%TO.P,Y_conns1,25,Pin_25*%
%TO.N,Y25*%
X169604000Y-103022000D03*
%TO.P,Y_conns1,26,Pin_26*%
%TO.N,Y26*%
X167894000Y-103022000D03*
%TO.P,Y_conns1,27,Pin_27*%
%TO.N,Y27*%
X169604000Y-102622000D03*
%TO.P,Y_conns1,28,Pin_28*%
%TO.N,Y28*%
X167894000Y-102622000D03*
%TO.P,Y_conns1,29,Pin_29*%
%TO.N,Y29*%
X169604000Y-102222000D03*
%TO.P,Y_conns1,30,Pin_30*%
%TO.N,Y30*%
X167894000Y-102222000D03*
%TO.P,Y_conns1,31,Pin_31*%
%TO.N,Y31*%
X169604000Y-101822000D03*
%TO.P,Y_conns1,32,Pin_32*%
%TO.N,Y32*%
X167894000Y-101822000D03*
%TO.P,Y_conns1,33,Pin_33*%
%TO.N,GND*%
X169604000Y-101422000D03*
%TO.P,Y_conns1,34,Pin_34*%
%TO.N,3V3*%
X167894000Y-101422000D03*
%TO.P,Y_conns1,35,Pin_35*%
%TO.N,unconnected-(Y_conns1-Pin_35-Pad35)*%
X169604000Y-101022000D03*
%TO.P,Y_conns1,36,Pin_36*%
%TO.N,Y36*%
X167894000Y-101022000D03*
%TO.P,Y_conns1,37,Pin_37*%
%TO.N,unconnected-(Y_conns1-Pin_37-Pad37)*%
X169604000Y-100622000D03*
%TO.P,Y_conns1,38,Pin_38*%
%TO.N,Y38*%
X167894000Y-100622000D03*
%TO.P,Y_conns1,39,Pin_39*%
%TO.N,unconnected-(Y_conns1-Pin_39-Pad39)*%
X169604000Y-100222000D03*
%TO.P,Y_conns1,40,Pin_40*%
%TO.N,Y40*%
X167894000Y-100222000D03*
%TO.P,Y_conns1,41,Pin_41*%
%TO.N,unconnected-(Y_conns1-Pin_41-Pad41)*%
X169604000Y-99822000D03*
%TO.P,Y_conns1,42,Pin_42*%
%TO.N,Y42*%
X167894000Y-99822000D03*
%TO.P,Y_conns1,43,Pin_43*%
%TO.N,3V3*%
X169604000Y-99422000D03*
%TO.P,Y_conns1,44,Pin_44*%
%TO.N,GND*%
X167894000Y-99422000D03*
%TO.P,Y_conns1,45,Pin_45*%
%TO.N,unconnected-(Y_conns1-Pin_45-Pad45)*%
X169604000Y-99022000D03*
%TO.P,Y_conns1,46,Pin_46*%
%TO.N,Y46*%
X167894000Y-99022000D03*
%TO.P,Y_conns1,47,Pin_47*%
%TO.N,unconnected-(Y_conns1-Pin_47-Pad47)*%
X169604000Y-98622000D03*
%TO.P,Y_conns1,48,Pin_48*%
%TO.N,Y48*%
X167894000Y-98622000D03*
%TO.P,Y_conns1,49,Pin_49*%
%TO.N,Y49*%
X169604000Y-98222000D03*
%TO.P,Y_conns1,50,Pin_50*%
%TO.N,Y50*%
X167894000Y-98222000D03*
%TO.P,Y_conns1,51,Pin_51*%
%TO.N,Y51*%
X169604000Y-97822000D03*
%TO.P,Y_conns1,52,Pin_52*%
%TO.N,Y52*%
X167894000Y-97822000D03*
%TO.P,Y_conns1,53,Pin_53*%
%TO.N,unconnected-(Y_conns1-Pin_53-Pad53)*%
X169604000Y-97422000D03*
%TO.P,Y_conns1,54,Pin_54*%
%TO.N,Y54*%
X167894000Y-97422000D03*
%TO.P,Y_conns1,55,Pin_55*%
%TO.N,unconnected-(Y_conns1-Pin_55-Pad55)*%
X169604000Y-97022000D03*
%TO.P,Y_conns1,56,Pin_56*%
%TO.N,unconnected-(Y_conns1-Pin_56-Pad56)*%
X167894000Y-97022000D03*
%TO.P,Y_conns1,57,Pin_57*%
%TO.N,GND*%
X169604000Y-96622000D03*
%TO.P,Y_conns1,58,Pin_58*%
%TO.N,unconnected-(Y_conns1-Pin_58-Pad58)*%
X167894000Y-96622000D03*
%TO.P,Y_conns1,59,Pin_59*%
%TO.N,Y59*%
X169604000Y-96222000D03*
%TO.P,Y_conns1,60,Pin_60*%
%TO.N,Y60*%
X167894000Y-96222000D03*
%TO.P,Y_conns1,61,Pin_61*%
%TO.N,Y61*%
X169604000Y-95822000D03*
%TO.P,Y_conns1,62,Pin_62*%
%TO.N,Y62*%
X167894000Y-95822000D03*
%TO.P,Y_conns1,63,Pin_63*%
%TO.N,Y63*%
X169604000Y-95422000D03*
%TO.P,Y_conns1,64,Pin_64*%
%TO.N,unconnected-(Y_conns1-Pin_64-Pad64)*%
X167894000Y-95422000D03*
%TO.P,Y_conns1,65,Pin_65*%
%TO.N,Y65*%
X169604000Y-95022000D03*
%TO.P,Y_conns1,66,Pin_66*%
%TO.N,unconnected-(Y_conns1-Pin_66-Pad66)*%
X167894000Y-95022000D03*
%TO.P,Y_conns1,67,Pin_67*%
%TO.N,Y67*%
X169604000Y-94622000D03*
%TO.P,Y_conns1,68,Pin_68*%
%TO.N,unconnected-(Y_conns1-Pin_68-Pad68)*%
X167894000Y-94622000D03*
%TO.P,Y_conns1,69,Pin_69*%
%TO.N,3V3*%
X169604000Y-94222000D03*
%TO.P,Y_conns1,70,Pin_70*%
%TO.N,GND*%
X167894000Y-94222000D03*
%TO.P,Y_conns1,71,Pin_71*%
%TO.N,unconnected-(Y_conns1-Pin_71-Pad71)*%
X169604000Y-93822000D03*
%TO.P,Y_conns1,72,Pin_72*%
%TO.N,unconnected-(Y_conns1-Pin_72-Pad72)*%
X167894000Y-93822000D03*
%TO.P,Y_conns1,73,Pin_73*%
%TO.N,Y73*%
X169604000Y-93422000D03*
%TO.P,Y_conns1,74,Pin_74*%
%TO.N,Y74*%
X167894000Y-93422000D03*
%TO.P,Y_conns1,75,Pin_75*%
%TO.N,Y75*%
X169604000Y-93022000D03*
%TO.P,Y_conns1,76,Pin_76*%
%TO.N,Y76*%
X167894000Y-93022000D03*
%TO.P,Y_conns1,77,Pin_77*%
%TO.N,Y77*%
X169604000Y-92622000D03*
%TO.P,Y_conns1,78,Pin_78*%
%TO.N,Y78*%
X167894000Y-92622000D03*
%TO.P,Y_conns1,79,Pin_79*%
%TO.N,Y79*%
X169604000Y-92222000D03*
%TO.P,Y_conns1,80,Pin_80*%
%TO.N,unconnected-(Y_conns1-Pin_80-Pad80)*%
X167894000Y-92222000D03*
D26*
%TO.P,Y_conns1,MP1*%
%TO.N,N/C*%
X168749000Y-108772000D03*
%TO.P,Y_conns1,MP2*%
X168749000Y-91272000D03*
%TD*%
D13*
%TO.P,SW12,1*%
%TO.N,X68*%
X65215000Y-124206000D03*
%TO.P,SW12,2*%
%TO.N,3V3*%
X71945000Y-124206000D03*
%TD*%
%TO.P,SW1,1*%
%TO.N,X56*%
X65215000Y-27432000D03*
%TO.P,SW1,2*%
%TO.N,3V3*%
X71945000Y-27432000D03*
%TD*%
%TO.P,SW7,1*%
%TO.N,X62*%
X65215000Y-80264000D03*
%TO.P,SW7,2*%
%TO.N,3V3*%
X71945000Y-80264000D03*
%TD*%
D12*
%TO.P,LED_4,1,K*%
%TO.N,GND*%
X88072000Y-53340000D03*
%TO.P,LED_4,2,A*%
%TO.N,Net-(LED_4-A)*%
X88712000Y-53340000D03*
%TD*%
D10*
%TO.P,R45,1*%
%TO.N,X40*%
X93663000Y-115316000D03*
%TO.P,R45,2*%
%TO.N,Net-(LED_11-A)*%
X95313000Y-115316000D03*
%TD*%
D12*
%TO.P,LED_8,1,K*%
%TO.N,GND*%
X88235000Y-88646000D03*
%TO.P,LED_8,2,A*%
%TO.N,Net-(LED_8-A)*%
X88875000Y-88646000D03*
%TD*%
D10*
%TO.P,R48,1*%
%TO.N,X51*%
X93600000Y-142494000D03*
%TO.P,R48,2*%
%TO.N,Net-(LED_14-A)*%
X95250000Y-142494000D03*
%TD*%
D12*
%TO.P,LED_14,1,K*%
%TO.N,GND*%
X88006000Y-142494000D03*
%TO.P,LED_14,2,A*%
%TO.N,Net-(LED_14-A)*%
X88646000Y-142494000D03*
%TD*%
D19*
%TO.P,GPIOs1,1,Pin_1*%
%TO.N,X16*%
X228728000Y-25908000D03*
%TO.P,GPIOs1,2,Pin_2*%
%TO.N,X17*%
X232028000Y-28448000D03*
%TO.P,GPIOs1,3,Pin_3*%
%TO.N,X18*%
X228728000Y-30988000D03*
%TO.P,GPIOs1,4,Pin_4*%
%TO.N,X19*%
X232028000Y-33528000D03*
%TO.P,GPIOs1,5,Pin_5*%
%TO.N,X27*%
X228728000Y-36068000D03*
%TO.P,GPIOs1,6,Pin_6*%
%TO.N,X28*%
X232028000Y-38608000D03*
%TO.P,GPIOs1,7,Pin_7*%
%TO.N,X29*%
X228728000Y-41148000D03*
%TO.P,GPIOs1,8,Pin_8*%
%TO.N,X30*%
X232028000Y-43688000D03*
%TO.P,GPIOs1,9,Pin_9*%
%TO.N,Y5*%
X228728000Y-46228000D03*
%TO.P,GPIOs1,10,Pin_10*%
%TO.N,Y6*%
X232028000Y-48768000D03*
%TO.P,GPIOs1,11,Pin_11*%
%TO.N,Y7*%
X228728000Y-51308000D03*
%TO.P,GPIOs1,12,Pin_12*%
%TO.N,Y8*%
X232028000Y-53848000D03*
%TO.P,GPIOs1,13,Pin_13*%
%TO.N,Y9*%
X228728000Y-56388000D03*
%TO.P,GPIOs1,14,Pin_14*%
%TO.N,Y10*%
X232028000Y-58928000D03*
%TO.P,GPIOs1,15,Pin_15*%
%TO.N,Y11*%
X228728000Y-61468000D03*
%TO.P,GPIOs1,16,Pin_16*%
%TO.N,Y12*%
X232028000Y-64008000D03*
%TD*%
D13*
%TO.P,SW14,1*%
%TO.N,X70*%
X65215000Y-142494000D03*
%TO.P,SW14,2*%
%TO.N,3V3*%
X71945000Y-142494000D03*
%TD*%
D32*
%TO.N,X13_BLE_TXD*%
X125371000Y-94537900D03*
X142527000Y-165494000D03*
%TO.N,X12_BLE_RXD*%
X143993000Y-161624000D03*
X129731000Y-94257300D03*
%TO.N,Y38*%
X162036000Y-99383800D03*
%TO.N,3V3*%
X120338000Y-36140800D03*
X143002000Y-30079200D03*
X124456000Y-139836000D03*
X127608000Y-183649000D03*
X109662000Y-102491000D03*
X173119000Y-94181200D03*
X170394000Y-103376000D03*
X174141000Y-58402200D03*
X179324000Y-26908000D03*
X110931000Y-125818000D03*
X171410000Y-99751300D03*
%TO.N,GND*%
X114906000Y-137833000D03*
X127445000Y-96528300D03*
X88340000Y-114549000D03*
X90742000Y-130154000D03*
X100844000Y-143747000D03*
X115682000Y-32091400D03*
X169168000Y-46530600D03*
X226953000Y-114156000D03*
X201025000Y-79693000D03*
X75879200Y-133524000D03*
X202028000Y-46010000D03*
X206740000Y-20329700D03*
X127355000Y-100222000D03*
X127362000Y-102612000D03*
X172106000Y-26098800D03*
X114809000Y-94981000D03*
X107393000Y-90346400D03*
X86349500Y-106426000D03*
X90277000Y-147357000D03*
X117407000Y-101331000D03*
X87807200Y-105669000D03*
X174045000Y-49245500D03*
%TO.N,X44*%
X203450000Y-89576200D03*
X201321000Y-158918000D03*
%TO.N,X46*%
X200309000Y-90830500D03*
X202632000Y-66515800D03*
X197823000Y-167265000D03*
%TO.N,Y40*%
X166987000Y-99884300D03*
%TO.N,Y36*%
X166673000Y-100964000D03*
%TO.N,Y42*%
X168551000Y-99530700D03*
%TO.N,VDD*%
X89070000Y-107257000D03*
X203569000Y-88948500D03*
X108581000Y-102298000D03*
%TO.N,/Power/VIN_IP*%
X100166000Y-87999600D03*
X181854000Y-62301700D03*
X103974000Y-88884600D03*
X109139000Y-88923900D03*
%TO.N,Net-(D3-K)*%
X165950000Y-45022200D03*
X166438000Y-57819000D03*
X175252000Y-58877900D03*
X168179800Y-49759500D03*
%TO.N,1V8*%
X162477500Y-39000000D03*
X162477500Y-47375900D03*
%TO.N,Net-(U4-TC)*%
X91672200Y-130154000D03*
X90724500Y-131499000D03*
%TO.N,Net-(U15-SwE)*%
X183537000Y-67174900D03*
X175014000Y-68288200D03*
%TO.N,X60*%
X125628000Y-103774000D03*
X87767300Y-59754300D03*
%TO.N,X15_WLAN_TXD*%
X159260000Y-61916400D03*
X150202000Y-73812700D03*
%TO.N,X2*%
X116199000Y-142409000D03*
X124580000Y-91733800D03*
%TO.N,X77*%
X155991000Y-98424600D03*
X130017000Y-108390000D03*
%TO.N,X78*%
X199065000Y-114860000D03*
X186226000Y-110654000D03*
%TO.N,X1*%
X124035000Y-92039900D03*
X116244000Y-143068000D03*
%TO.N,X14_WLAN_RXD*%
X150322000Y-77190200D03*
X162878000Y-57678500D03*
%TO.N,X52*%
X128838000Y-102222000D03*
X127408000Y-140946000D03*
%TO.N,X66*%
X126532000Y-109823000D03*
X125490000Y-105554000D03*
%TO.N,X4*%
X122962000Y-143068000D03*
X125377000Y-92402400D03*
%TO.N,X75*%
X176062000Y-104940000D03*
X168540000Y-110358000D03*
%TO.N,X79*%
X125051000Y-108278000D03*
X124386000Y-175420000D03*
%TO.N,X8*%
X128808000Y-144996000D03*
X129172000Y-93359300D03*
%TO.N,X25*%
X120124000Y-69439500D03*
X124925000Y-88960500D03*
%TO.N,X17*%
X122564000Y-88920800D03*
X122556000Y-93701000D03*
%TO.N,X76*%
X199866000Y-106899000D03*
X176591000Y-109772000D03*
%TO.N,X72*%
X125531000Y-158206000D03*
X125683000Y-106970000D03*
%TO.N,X6*%
X123745000Y-145456000D03*
X125394000Y-92954200D03*
%TO.N,X7*%
X125394000Y-93506000D03*
X125851000Y-147519000D03*
%TO.N,X5*%
X124038000Y-93143500D03*
X121557000Y-148453000D03*
%TO.N,X34*%
X123842000Y-85400400D03*
X128154000Y-98651800D03*
%TO.N,X33*%
X121896000Y-96330900D03*
X118982000Y-84973700D03*
%TO.N,X38*%
X126752000Y-87239000D03*
X128261000Y-99280100D03*
%TO.N,X71*%
X97924500Y-113231000D03*
X85380600Y-149519000D03*
%TO.N,X59*%
X70494200Y-53062700D03*
X80134000Y-54135600D03*
X121637000Y-103798000D03*
%TO.N,X11*%
X169768000Y-26550900D03*
X158171000Y-67548400D03*
%TO.N,X70*%
X126600000Y-117341000D03*
X127343000Y-106663000D03*
%TO.N,X26*%
X124810000Y-86026000D03*
X127709000Y-95869700D03*
%TO.N,X68*%
X127085000Y-105371000D03*
X126693000Y-115630000D03*
%TO.N,X36*%
X124024000Y-86555700D03*
X127165000Y-99022000D03*
%TO.N,X50*%
X127689000Y-101510000D03*
X127685000Y-115929000D03*
%TO.N,X18*%
X206171000Y-45744000D03*
X226840000Y-30988000D03*
%TO.N,X56*%
X127090000Y-103165000D03*
X120885000Y-35572900D03*
%TO.N,X57*%
X87008500Y-51621800D03*
X121550000Y-103160000D03*
%TO.N,X3*%
X116792000Y-148205000D03*
X123865000Y-92591700D03*
%TO.N,X58*%
X87489200Y-53228200D03*
X125451000Y-102293000D03*
%TO.N,X24*%
X125766000Y-96419200D03*
X114998000Y-32661800D03*
%TO.N,X40*%
X128265000Y-100146000D03*
X128361000Y-110070000D03*
%TO.N,X62*%
X121703000Y-87695500D03*
X125401000Y-104333000D03*
X79812900Y-81304700D03*
X91711700Y-86260500D03*
%TO.N,X35*%
X119474000Y-96334700D03*
X111706000Y-85010000D03*
%TO.N,X10*%
X167482000Y-22342800D03*
X150056000Y-77809700D03*
%TO.N,X49*%
X115707000Y-101763000D03*
X111919000Y-117159000D03*
%TO.N,X9*%
X169600000Y-23679600D03*
X161960000Y-76276900D03*
%TO.N,X51*%
X111828000Y-127672000D03*
X119999000Y-102222000D03*
%TO.N,X69*%
X119363000Y-110614000D03*
X119363000Y-118120000D03*
%TO.N,Y26*%
X145201000Y-103048000D03*
%TO.N,Y50*%
X168703000Y-98648600D03*
X178229000Y-26540500D03*
%TO.N,Y15*%
X171248000Y-103119000D03*
X172157000Y-63055800D03*
%TO.N,Y73*%
X176584000Y-93740500D03*
X167218000Y-139309000D03*
%TO.N,Y32*%
X159771000Y-101611000D03*
%TO.N,Y13*%
X176140000Y-105984000D03*
X197415000Y-131653000D03*
%TO.N,Y6*%
X199108000Y-66696700D03*
X167234000Y-106858000D03*
%TO.N,Y65*%
X170728000Y-96739600D03*
%TO.N,Y30*%
X142993000Y-102222000D03*
%TO.N,Y16*%
X149073000Y-104980000D03*
%TO.N,Y8*%
X168911000Y-106537000D03*
X199561000Y-67270300D03*
%TO.N,Y51*%
X170261000Y-97479400D03*
X193633000Y-26107100D03*
%TO.N,Y21*%
X168900000Y-103822000D03*
X170042000Y-63232200D03*
%TO.N,Y27*%
X170829000Y-101884000D03*
X172404000Y-61924400D03*
%TO.N,Y74*%
X167163000Y-93452000D03*
X167163000Y-85370300D03*
%TO.N,Y29*%
X170365000Y-64608200D03*
X168882000Y-102222000D03*
%TO.N,Y10*%
X197793000Y-66976400D03*
X167226000Y-106181000D03*
%TO.N,Y75*%
X171588000Y-93249700D03*
X166301000Y-169773000D03*
%TO.N,Y48*%
X167715000Y-20722400D03*
X166893000Y-94822700D03*
%TO.N,Y28*%
X161641000Y-102540000D03*
%TO.N,Y79*%
X165875000Y-132617000D03*
X171457000Y-92514000D03*
%TO.N,Y77*%
X162260000Y-139255000D03*
X168924000Y-92622000D03*
%TO.N,Y63*%
X170309000Y-95643000D03*
%TO.N,Y9*%
X172702000Y-106222000D03*
X199885000Y-67837400D03*
%TO.N,Y67*%
X213388000Y-116894000D03*
%TO.N,Y11*%
X183936000Y-101592000D03*
X201610000Y-77852600D03*
%TO.N,Y31*%
X172240000Y-100982000D03*
X173316000Y-64156400D03*
%TO.N,Y76*%
X165370000Y-92550900D03*
%TO.N,Y20*%
X160122000Y-103498000D03*
%TO.N,Y59*%
X144926000Y-38222900D03*
X173834000Y-62043100D03*
X174358000Y-96335700D03*
%TO.N,Y49*%
X168751000Y-97747200D03*
X174096000Y-20583700D03*
%TO.N,Y5*%
X189654000Y-101156000D03*
X226840000Y-45150500D03*
%TO.N,Y46*%
X166953000Y-98995500D03*
X164078000Y-110908000D03*
%TO.N,Y12*%
X198098000Y-78386400D03*
X168937000Y-105973000D03*
%TO.N,Y17*%
X170263000Y-104056000D03*
X170917000Y-62243200D03*
%TO.N,Y60*%
X167124000Y-96479000D03*
%TO.N,Y52*%
X167221000Y-97822000D03*
X171249000Y-46404300D03*
%TO.N,Y2*%
X168555000Y-107580000D03*
X167278000Y-110461000D03*
%TO.N,Y54*%
X168558000Y-96680600D03*
X169653000Y-91424200D03*
%TO.N,Y62*%
X166826000Y-96960800D03*
%TO.N,Y7*%
X215641000Y-51308000D03*
X185344000Y-100787000D03*
%TO.N,Y25*%
X176125000Y-64344800D03*
X172301000Y-101553000D03*
%TO.N,Y61*%
X134525000Y-115386000D03*
X69532700Y-117916000D03*
X168587000Y-93935500D03*
%TO.N,Y19*%
X168932000Y-104502000D03*
X172842000Y-63729700D03*
%TO.N,Y18*%
X148574000Y-104423000D03*
%TO.N,Y14*%
X168256000Y-112810000D03*
X167737000Y-108971000D03*
%TO.N,Y22*%
X167217000Y-103749000D03*
X166564000Y-111004000D03*
%TD*%
D33*
%TO.N,5V*%
X196299000Y-63605000D02*
X196299000Y-68283000D01*
X196299000Y-68283000D02*
X196342000Y-68326000D01*
%TO.N,X13_BLE_TXD*%
X125330000Y-94537900D02*
X125246000Y-94622000D01*
X192420000Y-165494000D02*
X204980000Y-178054000D01*
X125371000Y-94537900D02*
X125330000Y-94537900D01*
X204980000Y-178054000D02*
X226052000Y-178054000D01*
X142527000Y-165494000D02*
X192420000Y-165494000D01*
X125246000Y-94622000D02*
X124714000Y-94622000D01*
%TO.N,X12_BLE_RXD*%
X207105000Y-175514000D02*
X198115000Y-166524000D01*
X195134000Y-166524000D02*
X190234000Y-161624000D01*
X190234000Y-161624000D02*
X143993000Y-161624000D01*
X126424000Y-94222000D02*
X126956000Y-94222000D01*
X126991000Y-94257300D02*
X129731000Y-94257300D01*
X229362000Y-175514000D02*
X207105000Y-175514000D01*
X198115000Y-166524000D02*
X195134000Y-166524000D01*
X126956000Y-94222000D02*
X126991000Y-94257300D01*
%TO.N,Y38*%
X167278000Y-100538000D02*
X163190000Y-100538000D01*
X167362000Y-100622000D02*
X167278000Y-100538000D01*
X163190000Y-100538000D02*
X162036000Y-99383800D01*
X167894000Y-100622000D02*
X167362000Y-100622000D01*
%TO.N,3V3*%
X203122000Y-26533800D02*
X208358000Y-21297900D01*
X189076000Y-138136000D02*
X195132000Y-132080000D01*
X172974000Y-56896000D02*
X172974000Y-58047700D01*
X160186000Y-101422000D02*
X159948000Y-101184000D01*
X124182000Y-102622000D02*
X124094000Y-102710000D01*
X71945000Y-98297700D02*
X70156800Y-100086000D01*
X159948000Y-101184000D02*
X139601000Y-101184000D01*
X63920900Y-132075000D02*
X64151400Y-131845000D01*
X204022000Y-41404000D02*
X192394000Y-41404000D01*
X94208000Y-142488000D02*
X99363700Y-137332000D01*
X171081000Y-99422000D02*
X169604000Y-99422000D01*
X168426000Y-101422000D02*
X169072000Y-100775000D01*
X63625400Y-131319000D02*
X63625400Y-102250000D01*
X210792000Y-31245200D02*
X204022000Y-38014600D01*
X71917200Y-151356000D02*
X71945000Y-151384000D01*
X71945000Y-105664000D02*
X70156800Y-103876000D01*
X163373000Y-26982800D02*
X179249000Y-26982800D01*
X81057900Y-26158400D02*
X110355000Y-26158400D01*
X154432000Y-139836000D02*
X154432000Y-139408000D01*
X63927200Y-153018000D02*
X63927200Y-151481000D01*
X73226700Y-27432000D02*
X73667900Y-27873200D01*
X179249000Y-26982800D02*
X179324000Y-26908000D01*
X178054000Y-58047700D02*
X177700000Y-58402200D01*
X169604000Y-185935000D02*
X170806000Y-185935000D01*
X110355000Y-26158400D02*
X120338000Y-36140800D01*
X167894000Y-101422000D02*
X168426000Y-101422000D01*
X154078000Y-30079200D02*
X160274000Y-23883700D01*
X173328000Y-58402200D02*
X174141000Y-58402200D01*
X71945000Y-143256000D02*
X64051500Y-143256000D01*
X169604000Y-94222000D02*
X170136000Y-94222000D01*
X207109000Y-116555000D02*
X208348000Y-115316000D01*
X202054000Y-103991000D02*
X204687000Y-103991000D01*
X63933300Y-70240100D02*
X63933300Y-61332500D01*
X64051500Y-70358300D02*
X63933300Y-70240100D01*
X204724000Y-41404000D02*
X204022000Y-41404000D01*
X73911800Y-143179000D02*
X80084900Y-143179000D01*
X204022000Y-38014600D02*
X204022000Y-41404000D01*
X227576000Y-81534000D02*
X228728000Y-81534000D01*
X79864100Y-27873200D02*
X80264000Y-27473300D01*
X115741000Y-130628000D02*
X113573000Y-132796000D01*
X208358000Y-21297900D02*
X210792000Y-21297900D01*
X71945000Y-88646000D02*
X71945000Y-81025700D01*
X127626000Y-183667000D02*
X127608000Y-183649000D01*
X64051500Y-81025700D02*
X71945000Y-81025700D01*
X63933300Y-44839500D02*
X64051500Y-44957700D01*
X71945000Y-35306300D02*
X63963100Y-35306300D01*
X128828000Y-185935000D02*
X130279000Y-187387000D01*
X71945000Y-106426000D02*
X71945000Y-105664000D01*
X143002000Y-30079200D02*
X154078000Y-30079200D01*
X124714000Y-102622000D02*
X124182000Y-102622000D01*
X71945000Y-115316000D02*
X71945000Y-106426000D01*
X116138000Y-130810000D02*
X115956000Y-130628000D01*
X178054000Y-55744300D02*
X178054000Y-56896000D01*
X209312000Y-99366300D02*
X208348000Y-100330000D01*
X204687000Y-103991000D02*
X208348000Y-100330000D01*
X64051500Y-44957700D02*
X71945000Y-44957700D01*
X71945000Y-124206000D02*
X71945000Y-124968000D01*
X80264000Y-27473300D02*
X80264000Y-26952300D01*
X70156800Y-103876000D02*
X70156800Y-100086000D01*
X195132000Y-132080000D02*
X195834000Y-132080000D01*
X63625400Y-102250000D02*
X65789600Y-100086000D01*
X71945000Y-132080000D02*
X71945000Y-132842000D01*
X192854000Y-100679000D02*
X198649000Y-106473000D01*
X89999800Y-143191000D02*
X93947600Y-143191000D01*
X199572000Y-106473000D02*
X202054000Y-103991000D01*
X168153000Y-187387000D02*
X169604000Y-185935000D01*
X211760000Y-20329700D02*
X210792000Y-21297900D01*
X63933300Y-35336100D02*
X63933300Y-44839500D01*
X64051500Y-143256000D02*
X63920900Y-143125000D01*
X155704000Y-138136000D02*
X189076000Y-138136000D01*
X160274000Y-23883700D02*
X163373000Y-26982800D01*
X63933300Y-80907500D02*
X64051500Y-81025700D01*
X172466000Y-51321000D02*
X172974000Y-51829000D01*
X64151400Y-131845000D02*
X63625400Y-131319000D01*
X139601000Y-101184000D02*
X136163000Y-104622000D01*
X115956000Y-130628000D02*
X115741000Y-130628000D01*
X64051500Y-151356000D02*
X71917200Y-151356000D01*
X80518000Y-142746000D02*
X80518000Y-142238000D01*
X124456000Y-139836000D02*
X154432000Y-139836000D01*
X197708000Y-107414000D02*
X197708000Y-115758000D01*
X212598000Y-20329700D02*
X211760000Y-20329700D01*
X209312000Y-99366300D02*
X209312000Y-86561700D01*
X210792000Y-21297900D02*
X210792000Y-31245200D01*
X178054000Y-56896000D02*
X178054000Y-58047700D01*
X173119000Y-94181200D02*
X186705000Y-94181200D01*
X63933300Y-61332500D02*
X64051500Y-61214300D01*
X73226700Y-142494000D02*
X73911800Y-143179000D01*
X136163000Y-104622000D02*
X126424000Y-104622000D01*
X136940000Y-36140800D02*
X143002000Y-30079200D01*
X71945000Y-142494000D02*
X71945000Y-143256000D01*
X71945000Y-61214300D02*
X71945000Y-53086000D01*
X154432000Y-138684000D02*
X154432000Y-139408000D01*
X71945000Y-36068000D02*
X71945000Y-35306300D01*
X71945000Y-124968000D02*
X71709400Y-125203000D01*
X177700000Y-58402200D02*
X174141000Y-58402200D01*
X64051500Y-61214300D02*
X71945000Y-61214300D01*
X120338000Y-36140800D02*
X136940000Y-36140800D01*
X115741000Y-130628000D02*
X110931000Y-125818000D01*
X179324000Y-26908000D02*
X179698000Y-26533800D01*
X71709400Y-131845000D02*
X71945000Y-132080000D01*
X195834000Y-156210000D02*
X195834000Y-144894000D01*
X71945000Y-53086000D02*
X71945000Y-44957700D01*
X73667900Y-27873200D02*
X79864100Y-27873200D01*
X63933300Y-70476500D02*
X63933300Y-80907500D01*
X195834000Y-144894000D02*
X189076000Y-138136000D01*
X130279000Y-187387000D02*
X168153000Y-187387000D01*
X198649000Y-106473000D02*
X197708000Y-107414000D01*
X63933300Y-98229600D02*
X65789600Y-100086000D01*
X71945000Y-71120000D02*
X71945000Y-70358300D01*
X172974000Y-58047700D02*
X173328000Y-58402200D01*
X63927200Y-151481000D02*
X64051500Y-151356000D01*
X172974000Y-51829000D02*
X172974000Y-56896000D01*
X71945000Y-35306300D02*
X71945000Y-27432000D01*
X80981900Y-141774000D02*
X88583000Y-141774000D01*
X71709400Y-125203000D02*
X71709400Y-131845000D01*
X171410000Y-99751300D02*
X171081000Y-99422000D01*
X229860000Y-127254000D02*
X217922000Y-115316000D01*
X80084900Y-143179000D02*
X80518000Y-142746000D01*
X209312000Y-86561700D02*
X208348000Y-85598000D01*
X71945000Y-70358300D02*
X64051500Y-70358300D01*
X225552000Y-83917000D02*
X225552000Y-83558300D01*
X160274000Y-22732000D02*
X160274000Y-23883700D01*
X80518000Y-142238000D02*
X80981900Y-141774000D01*
X231012000Y-127254000D02*
X229860000Y-127254000D01*
X198506000Y-116555000D02*
X207109000Y-116555000D01*
X64051500Y-70358300D02*
X63933300Y-70476500D01*
X71945000Y-161798000D02*
X71945000Y-161036000D01*
X80264000Y-26952300D02*
X81057900Y-26158400D01*
X113573000Y-137332000D02*
X116077000Y-139836000D01*
X88583000Y-141774000D02*
X89999800Y-143191000D01*
X71945000Y-61976000D02*
X71945000Y-61214300D01*
X170181000Y-103376000D02*
X170394000Y-103376000D01*
X127626000Y-185935000D02*
X128828000Y-185935000D01*
X71945000Y-44196000D02*
X71945000Y-44957700D01*
X170176000Y-94181200D02*
X173119000Y-94181200D01*
X212598000Y-19178000D02*
X212598000Y-20329700D01*
X93947600Y-143191000D02*
X94208000Y-142930000D01*
X225552000Y-83917000D02*
X225530000Y-83917000D01*
X221540000Y-99366300D02*
X209312000Y-99366300D01*
X225552000Y-83558300D02*
X227576000Y-81534000D01*
X116077000Y-139836000D02*
X124456000Y-139836000D01*
X154432000Y-139408000D02*
X155704000Y-138136000D01*
X71945000Y-151384000D02*
X71945000Y-152146000D01*
X174809000Y-183134000D02*
X226052000Y-183134000D01*
X64051500Y-143256000D02*
X64051500Y-151356000D01*
X71945000Y-97536000D02*
X71945000Y-98297700D01*
X71945000Y-80264000D02*
X71945000Y-81025700D01*
X64151400Y-131845000D02*
X71709400Y-131845000D01*
X197708000Y-115758000D02*
X198506000Y-116555000D01*
X172008000Y-185935000D02*
X174809000Y-183134000D01*
X127626000Y-185935000D02*
X127626000Y-183667000D01*
X169604000Y-103422000D02*
X170136000Y-103422000D01*
X192854000Y-100330000D02*
X192854000Y-100679000D01*
X195834000Y-165356000D02*
X195834000Y-156210000D01*
X170136000Y-94222000D02*
X170176000Y-94181200D01*
X170806000Y-185935000D02*
X172008000Y-185935000D01*
X170136000Y-103422000D02*
X170181000Y-103376000D01*
X63963100Y-35306300D02*
X63933300Y-35336100D01*
X186705000Y-94181200D02*
X192854000Y-100330000D01*
X109882000Y-102710000D02*
X109662000Y-102491000D01*
X169072000Y-100775000D02*
X169072000Y-99422000D01*
X225530000Y-83917000D02*
X221540000Y-87906400D01*
X198649000Y-106473000D02*
X199572000Y-106473000D01*
X222758000Y-100584000D02*
X221540000Y-99366300D01*
X221540000Y-87906400D02*
X221540000Y-99366300D01*
X113573000Y-132796000D02*
X113573000Y-137332000D01*
X71945000Y-27432000D02*
X73226700Y-27432000D01*
X71945000Y-142494000D02*
X73226700Y-142494000D01*
X169072000Y-99422000D02*
X169604000Y-99422000D01*
X65789600Y-100086000D02*
X70156800Y-100086000D01*
X195834000Y-156210000D02*
X226822000Y-156210000D01*
X64051500Y-81025700D02*
X63933300Y-81143900D01*
X99363700Y-137332000D02*
X113573000Y-137332000D01*
X94208000Y-142930000D02*
X94208000Y-142488000D01*
X179698000Y-26533800D02*
X203122000Y-26533800D01*
X63920900Y-143125000D02*
X63920900Y-132075000D01*
X192394000Y-41404000D02*
X178054000Y-55744300D01*
X63933300Y-81143900D02*
X63933300Y-98229600D01*
X71945000Y-161036000D02*
X63927200Y-153018000D01*
X167894000Y-101422000D02*
X160186000Y-101422000D01*
X124094000Y-102710000D02*
X109882000Y-102710000D01*
X116840000Y-130810000D02*
X116138000Y-130810000D01*
X217922000Y-115316000D02*
X208348000Y-115316000D01*
%TO.N,GND*%
X168474000Y-94433900D02*
X168474000Y-95993300D01*
X81343000Y-142494000D02*
X88006000Y-142494000D01*
X161280000Y-98957100D02*
X159467000Y-100770000D01*
X202030000Y-46010000D02*
X202028000Y-46010000D01*
X90200500Y-33094400D02*
X115195000Y-33094400D01*
X97303000Y-147288000D02*
X100844000Y-143747000D01*
X115682000Y-32606700D02*
X115682000Y-32091400D01*
X226568000Y-106172000D02*
X225235000Y-107505000D01*
X229362000Y-180594000D02*
X204080000Y-180594000D01*
X202184000Y-44704000D02*
X202184000Y-45855700D01*
X170630000Y-26098800D02*
X172106000Y-26098800D01*
X153041000Y-174600000D02*
X153041000Y-175253000D01*
X127139000Y-96222000D02*
X126424000Y-96222000D01*
X202184000Y-45855700D02*
X202030000Y-46010000D01*
X199210000Y-107579000D02*
X199136000Y-107505000D01*
X121149000Y-94981000D02*
X114809000Y-94981000D01*
X81343000Y-71120000D02*
X83286000Y-71120000D01*
X167708000Y-185935000D02*
X166506000Y-185935000D01*
X85652900Y-79994300D02*
X85652900Y-73486900D01*
X80597200Y-132096000D02*
X77307500Y-132096000D01*
X168262000Y-94222000D02*
X168474000Y-94433900D01*
X162814000Y-20583700D02*
X165115000Y-20583700D01*
X124714000Y-101422000D02*
X117498000Y-101422000D01*
X138067000Y-100770000D02*
X136189000Y-102649000D01*
X136189000Y-102649000D02*
X127400000Y-102649000D01*
X233180000Y-89154000D02*
X233180000Y-83460900D01*
X88340000Y-114549000D02*
X88072000Y-114817000D01*
X87981000Y-132842000D02*
X81343000Y-132842000D01*
X122323000Y-96154200D02*
X121149000Y-94981000D01*
X88006000Y-53696400D02*
X88072000Y-53630400D01*
X169604000Y-101422000D02*
X170136000Y-101422000D01*
X170136000Y-96622000D02*
X170136000Y-96750500D01*
X226822000Y-151832000D02*
X226822000Y-151130000D01*
X124714000Y-98222000D02*
X124110000Y-98222000D01*
X84961500Y-80289400D02*
X85357800Y-80289400D01*
X232164000Y-137414000D02*
X231012000Y-137414000D01*
X151780000Y-134120000D02*
X151892000Y-134232000D01*
X151892000Y-135384000D02*
X151892000Y-134234000D01*
X88072000Y-124206000D02*
X88072000Y-127633000D01*
X201025000Y-79693000D02*
X200152000Y-79693000D01*
X207518000Y-19178000D02*
X207518000Y-20329700D01*
X225235000Y-107579000D02*
X199210000Y-107579000D01*
X126424000Y-102622000D02*
X126956000Y-102622000D01*
X127400000Y-102649000D02*
X127362000Y-102612000D01*
X191456000Y-132080000D02*
X190754000Y-132080000D01*
X90277000Y-147357000D02*
X87981000Y-149653000D01*
X81343000Y-132842000D02*
X80597200Y-132096000D01*
X81343000Y-61976000D02*
X81343000Y-71120000D01*
X125892000Y-102069000D02*
X125892000Y-102622000D01*
X146975000Y-170738000D02*
X143113000Y-174600000D01*
X77307500Y-132096000D02*
X75879200Y-133524000D01*
X125246000Y-101422000D02*
X125892000Y-102069000D01*
X169072000Y-96592100D02*
X169072000Y-96622000D01*
X81343000Y-61976000D02*
X88138000Y-61976000D01*
X171255000Y-100303000D02*
X171559000Y-100303000D01*
X81343000Y-124206000D02*
X88072000Y-124206000D01*
X135389000Y-182934000D02*
X127529000Y-182934000D01*
X151892000Y-134234000D02*
X154046000Y-132080000D01*
X226822000Y-139422000D02*
X206494000Y-139422000D01*
X198311000Y-108479000D02*
X198311000Y-115316000D01*
X87818000Y-35476900D02*
X87818000Y-35560000D01*
X87818000Y-30711900D02*
X90200500Y-33094400D01*
X88072000Y-105933000D02*
X88072000Y-106426000D01*
X87818000Y-27178000D02*
X87818000Y-30711900D01*
X81343000Y-106426000D02*
X86349500Y-106426000D01*
X149179000Y-169943000D02*
X149179000Y-170738000D01*
X90742000Y-130154000D02*
X90593700Y-130154000D01*
X226822000Y-139422000D02*
X226822000Y-151130000D01*
X87807200Y-105669000D02*
X88072000Y-105933000D01*
X88006000Y-145018000D02*
X90277000Y-147288000D01*
X88006000Y-53696400D02*
X81699400Y-53696400D01*
X87818000Y-27178000D02*
X81089000Y-27178000D01*
X171559000Y-100303000D02*
X171938000Y-99924300D01*
X119380000Y-134120000D02*
X118678000Y-134120000D01*
X170136000Y-96750500D02*
X171938000Y-98552700D01*
X163723000Y-185935000D02*
X166506000Y-185935000D01*
X168426000Y-103422000D02*
X168426000Y-102069000D01*
X168474000Y-95993300D02*
X169072000Y-96592100D01*
X165872000Y-98957100D02*
X161280000Y-98957100D01*
X119380000Y-134120000D02*
X151780000Y-134120000D01*
X228830000Y-137414000D02*
X231012000Y-137414000D01*
X81280000Y-161798000D02*
X84630500Y-161798000D01*
X124110000Y-98222000D02*
X122323000Y-96435100D01*
X81343000Y-35560000D02*
X87818000Y-35560000D01*
X204080000Y-180594000D02*
X193294000Y-169808000D01*
X167894000Y-103422000D02*
X168426000Y-103422000D01*
X88072000Y-114817000D02*
X88072000Y-115316000D01*
X87981000Y-152146000D02*
X84630500Y-152146000D01*
X84936100Y-80264000D02*
X84961500Y-80289400D01*
X124528000Y-185935000D02*
X123326000Y-185935000D01*
X233180000Y-83460900D02*
X229412000Y-79693000D01*
X88072000Y-97536000D02*
X87807200Y-97536000D01*
X169072000Y-101422000D02*
X169604000Y-101422000D01*
X81343000Y-115316000D02*
X88072000Y-115316000D01*
X88194000Y-53884400D02*
X88006000Y-53696400D01*
X88072000Y-127633000D02*
X90593700Y-130154000D01*
X172992000Y-49245500D02*
X172466000Y-49771000D01*
X199210000Y-107579000D02*
X198311000Y-108479000D01*
X85652900Y-73486900D02*
X85646000Y-73480000D01*
X174045000Y-49245500D02*
X172992000Y-49245500D01*
X151892000Y-134232000D02*
X151892000Y-134234000D01*
X85646000Y-73480000D02*
X88006000Y-71120000D01*
X117498000Y-101422000D02*
X117407000Y-101331000D01*
X230819000Y-180594000D02*
X230819000Y-155828000D01*
X225235000Y-107505000D02*
X225235000Y-107579000D01*
X192610000Y-130925000D02*
X191456000Y-132080000D01*
X232028000Y-89154000D02*
X230876000Y-89154000D01*
X143113000Y-175210000D02*
X135389000Y-182934000D01*
X126956000Y-102622000D02*
X126966000Y-102612000D01*
X90593700Y-130154000D02*
X87981000Y-132767000D01*
X172598000Y-100584000D02*
X171938000Y-99924300D01*
X193294000Y-168656000D02*
X193294000Y-169808000D01*
X81343000Y-80264000D02*
X84936100Y-80264000D01*
X126966000Y-102612000D02*
X127362000Y-102612000D01*
X167362000Y-99422000D02*
X167362000Y-99422200D01*
X165872000Y-95239900D02*
X166890000Y-94222000D01*
X88194000Y-61920000D02*
X88194000Y-53884400D01*
X169072000Y-96622000D02*
X169604000Y-96622000D01*
X81699400Y-53696400D02*
X81343000Y-53340000D01*
X87981000Y-132767000D02*
X87981000Y-132842000D01*
X148077000Y-169943000D02*
X146975000Y-169943000D01*
X170690000Y-46530600D02*
X170690000Y-46943600D01*
X107393000Y-90346400D02*
X110174000Y-90346400D01*
X230876000Y-89154000D02*
X230876000Y-101864000D01*
X81343000Y-88646000D02*
X84961500Y-88646000D01*
X124714000Y-101422000D02*
X125246000Y-101422000D01*
X87874300Y-79994300D02*
X88144000Y-80264000D01*
X90200500Y-33094400D02*
X87818000Y-35476900D01*
X81343000Y-43942000D02*
X81343000Y-35560000D01*
X88072000Y-53630400D02*
X88072000Y-53340000D01*
X170136000Y-101422000D02*
X171255000Y-100303000D01*
X169604000Y-96622000D02*
X170136000Y-96622000D01*
X90277000Y-147288000D02*
X90277000Y-147357000D01*
X149179000Y-170738000D02*
X153041000Y-174600000D01*
X229412000Y-79693000D02*
X201025000Y-79693000D01*
X167894000Y-99422000D02*
X167362000Y-99422000D01*
X171938000Y-98552700D02*
X171938000Y-99924300D01*
X170690000Y-46943600D02*
X172992000Y-49245500D01*
X230876000Y-101864000D02*
X226568000Y-106172000D01*
X165115000Y-20583700D02*
X170630000Y-26098800D01*
X88006000Y-43942000D02*
X88006000Y-53274000D01*
X83286000Y-71120000D02*
X85646000Y-73480000D01*
X146975000Y-169943000D02*
X146975000Y-170738000D01*
X226822000Y-139422000D02*
X228830000Y-137414000D01*
X170690000Y-46530600D02*
X170690000Y-45598100D01*
X84630500Y-161798000D02*
X84630500Y-152146000D01*
X226953000Y-114156000D02*
X232164000Y-119367000D01*
X118678000Y-134120000D02*
X114965000Y-137833000D01*
X125892000Y-102622000D02*
X126424000Y-102622000D01*
X154046000Y-132080000D02*
X190754000Y-132080000D01*
X148077000Y-169943000D02*
X149179000Y-169943000D01*
X207518000Y-20329700D02*
X206740000Y-20329700D01*
X115195000Y-33094400D02*
X115682000Y-32606700D01*
X84630500Y-161798000D02*
X87981000Y-161798000D01*
X159467000Y-100770000D02*
X138067000Y-100770000D01*
X127529000Y-182934000D02*
X124528000Y-185935000D01*
X81343000Y-43942000D02*
X88006000Y-43942000D01*
X225235000Y-107579000D02*
X226953000Y-109297000D01*
X165872000Y-98957100D02*
X165872000Y-95239900D01*
X170690000Y-46530600D02*
X169168000Y-46530600D01*
X71929700Y-184404000D02*
X73460700Y-185935000D01*
X114965000Y-137833000D02*
X114906000Y-137833000D01*
X84630500Y-152146000D02*
X81343000Y-152146000D01*
X162814000Y-19432000D02*
X162814000Y-20583700D01*
X232164000Y-119367000D02*
X232164000Y-137414000D01*
X226953000Y-109297000D02*
X226953000Y-114156000D01*
X183835000Y-169808000D02*
X167708000Y-185935000D01*
X88006000Y-53274000D02*
X88072000Y-53340000D01*
X87807200Y-97536000D02*
X81343000Y-97536000D01*
X230819000Y-155828000D02*
X226822000Y-151832000D01*
X167894000Y-94222000D02*
X168262000Y-94222000D01*
X87807200Y-97536000D02*
X87807200Y-105669000D01*
X88138000Y-61976000D02*
X88194000Y-61920000D01*
X232028000Y-89154000D02*
X233180000Y-89154000D01*
X197997000Y-130925000D02*
X192610000Y-130925000D01*
X73460700Y-185935000D02*
X123326000Y-185935000D01*
X166338000Y-99422200D02*
X165872000Y-98957100D01*
X167362000Y-99422200D02*
X166338000Y-99422200D01*
X126424000Y-100222000D02*
X127355000Y-100222000D01*
X193294000Y-169808000D02*
X183835000Y-169808000D01*
X84961500Y-88646000D02*
X88235000Y-88646000D01*
X70718000Y-184404000D02*
X71929700Y-184404000D01*
X170942000Y-45345700D02*
X170942000Y-44194000D01*
X127445000Y-96528300D02*
X127139000Y-96222000D01*
X90277000Y-147288000D02*
X97303000Y-147288000D01*
X122323000Y-96435100D02*
X122323000Y-96154200D01*
X88006000Y-142494000D02*
X88006000Y-145018000D01*
X153041000Y-175253000D02*
X163723000Y-185935000D01*
X87981000Y-149653000D02*
X87981000Y-152146000D01*
X168426000Y-102069000D02*
X169072000Y-101422000D01*
X182626000Y-100584000D02*
X172598000Y-100584000D01*
X143113000Y-174600000D02*
X143113000Y-175210000D01*
X206494000Y-139422000D02*
X197997000Y-130925000D01*
X166890000Y-94222000D02*
X167894000Y-94222000D01*
X84961500Y-80289400D02*
X84961500Y-88646000D01*
X85652900Y-79994300D02*
X87874300Y-79994300D01*
X229362000Y-180594000D02*
X230819000Y-180594000D01*
X110174000Y-90346400D02*
X114809000Y-94981000D01*
X81343000Y-97536000D02*
X81343000Y-88646000D01*
X170690000Y-45598100D02*
X170942000Y-45345700D01*
X85357800Y-80289400D02*
X85652900Y-79994300D01*
%TO.N,X44*%
X131184000Y-99315900D02*
X129779000Y-100720000D01*
X127054000Y-100720000D02*
X126956000Y-100622000D01*
X197992000Y-68326000D02*
X197612000Y-68706000D01*
X204763000Y-88388400D02*
X203575000Y-89576200D01*
X166886000Y-89576200D02*
X157146000Y-99315900D01*
X204763000Y-84628000D02*
X204763000Y-88388400D01*
X197612000Y-78503600D02*
X199626000Y-80518000D01*
X203450000Y-89576200D02*
X166886000Y-89576200D01*
X200914000Y-164204000D02*
X201321000Y-163797000D01*
X129779000Y-100720000D02*
X127054000Y-100720000D01*
X203575000Y-89576200D02*
X203450000Y-89576200D01*
X199626000Y-80518000D02*
X200653000Y-80518000D01*
X157146000Y-99315900D02*
X131184000Y-99315900D01*
X200914000Y-165356000D02*
X200914000Y-164204000D01*
X197612000Y-68706000D02*
X197612000Y-78503600D01*
X126956000Y-100622000D02*
X126424000Y-100622000D01*
X201321000Y-163797000D02*
X201321000Y-158918000D01*
X200653000Y-80518000D02*
X204763000Y-84628000D01*
%TO.N,X46*%
X166487000Y-90830500D02*
X200309000Y-90830500D01*
X198374000Y-167504000D02*
X198062000Y-167504000D01*
X198062000Y-167504000D02*
X197823000Y-167265000D01*
X126424000Y-101022000D02*
X131259000Y-101022000D01*
X198374000Y-168656000D02*
X198374000Y-167504000D01*
X157362000Y-99955400D02*
X166487000Y-90830500D01*
X132326000Y-99955400D02*
X157362000Y-99955400D01*
X197949000Y-63605000D02*
X199722000Y-63605000D01*
X131259000Y-101022000D02*
X132326000Y-99955400D01*
X199722000Y-63605000D02*
X202632000Y-66515800D01*
%TO.N,Y40*%
X167025000Y-99884300D02*
X166987000Y-99884300D01*
X167894000Y-100222000D02*
X167362000Y-100222000D01*
X167362000Y-100222000D02*
X167025000Y-99884300D01*
%TO.N,Y36*%
X167894000Y-101022000D02*
X166731000Y-101022000D01*
X166731000Y-101022000D02*
X166673000Y-100964000D01*
%TO.N,Y42*%
X168551000Y-99696700D02*
X168551000Y-99530700D01*
X168426000Y-99822000D02*
X168551000Y-99696700D01*
X167894000Y-99822000D02*
X168426000Y-99822000D01*
%TO.N,Net-(LED_1-A)*%
X94619900Y-26484900D02*
X95313000Y-27178000D01*
X88458000Y-27178000D02*
X89151100Y-26484900D01*
X89151100Y-26484900D02*
X94619900Y-26484900D01*
%TO.N,Net-(LED_2-A)*%
X89149700Y-34868300D02*
X94621300Y-34868300D01*
X88458000Y-35560000D02*
X89149700Y-34868300D01*
X94621300Y-34868300D02*
X95313000Y-35560000D01*
%TO.N,VDD*%
X155478000Y-98872700D02*
X156736000Y-98872700D01*
X125569000Y-100222000D02*
X124714000Y-100222000D01*
X125569000Y-98545300D02*
X125892000Y-98222000D01*
X125246000Y-97575400D02*
X125246000Y-96222000D01*
X125569000Y-100222000D02*
X125569000Y-98545300D01*
X125246000Y-96222000D02*
X124714000Y-96222000D01*
X89221300Y-107408000D02*
X96619900Y-107408000D01*
X124714000Y-100222000D02*
X110658000Y-100222000D01*
X126424000Y-98222000D02*
X125892000Y-98222000D01*
X126424000Y-98222000D02*
X154827000Y-98222000D01*
X101730000Y-102298000D02*
X108581000Y-102298000D01*
X166660000Y-88948500D02*
X203569000Y-88948500D01*
X96619900Y-107408000D02*
X101730000Y-102298000D01*
X125892000Y-101422000D02*
X125892000Y-100545000D01*
X154827000Y-98222000D02*
X155478000Y-98872700D01*
X89070000Y-107257000D02*
X89221300Y-107408000D01*
X126424000Y-101422000D02*
X125892000Y-101422000D01*
X110658000Y-100222000D02*
X108581000Y-102298000D01*
X156736000Y-98872700D02*
X166660000Y-88948500D01*
X125892000Y-98222000D02*
X125246000Y-97575400D01*
X125892000Y-100545000D02*
X125569000Y-100222000D01*
%TO.N,/Power/VIN_IP*%
X109941000Y-88122200D02*
X109139000Y-88923900D01*
X124731000Y-86452700D02*
X123061000Y-88122200D01*
X148696000Y-65133400D02*
X127376000Y-86452700D01*
X101051000Y-88884600D02*
X100166000Y-87999600D01*
X103974000Y-88884600D02*
X101051000Y-88884600D01*
X127376000Y-86452700D02*
X124731000Y-86452700D01*
X181854000Y-62301700D02*
X179022000Y-65133400D01*
X179022000Y-65133400D02*
X148696000Y-65133400D01*
X109139000Y-88923900D02*
X104013000Y-88923900D01*
X104013000Y-88923900D02*
X103974000Y-88884600D01*
X123061000Y-88122200D02*
X109941000Y-88122200D01*
%TO.N,Net-(D3-K)*%
X171630000Y-57819000D02*
X166438000Y-57819000D01*
X175252000Y-58877900D02*
X172689000Y-58877900D01*
X165950000Y-47529700D02*
X165950000Y-45022200D01*
X172689000Y-58877900D02*
X171630000Y-57819000D01*
X168179800Y-49759500D02*
X165950000Y-47529700D01*
%TO.N,1V8*%
X162477500Y-47375900D02*
X162477500Y-39000000D01*
%TO.N,Net-(U4-TC)*%
X91672200Y-130154000D02*
X91672200Y-130552000D01*
X91672200Y-130552000D02*
X90724500Y-131499000D01*
%TO.N,Net-(U15-SwE)*%
X182424000Y-68288200D02*
X183537000Y-67174900D01*
X175014000Y-68288200D02*
X182424000Y-68288200D01*
%TO.N,X28*%
X156308000Y-97422000D02*
X210845000Y-42885500D01*
X210845000Y-42885500D02*
X230109000Y-42885500D01*
X230109000Y-42885500D02*
X230876000Y-42118200D01*
X230876000Y-38608000D02*
X232028000Y-38608000D01*
X126424000Y-97422000D02*
X156308000Y-97422000D01*
X230876000Y-42118200D02*
X230876000Y-38608000D01*
%TO.N,X60*%
X81914700Y-59754300D02*
X79693000Y-61976000D01*
X87767300Y-59754300D02*
X81914700Y-59754300D01*
X125676000Y-103822000D02*
X125628000Y-103774000D01*
X65215000Y-62737700D02*
X78931300Y-62737700D01*
X126424000Y-103822000D02*
X125676000Y-103822000D01*
X65215000Y-61976000D02*
X65215000Y-62737700D01*
X78931300Y-62737700D02*
X79693000Y-61976000D01*
%TO.N,X15_WLAN_TXD*%
X142780000Y-73812700D02*
X150202000Y-73812700D01*
X126904000Y-89688900D02*
X142780000Y-73812700D01*
X122761000Y-93238500D02*
X122761000Y-91857200D01*
X159829000Y-61347700D02*
X159260000Y-61916400D01*
X123008000Y-93847200D02*
X123008000Y-93484800D01*
X123008000Y-93484800D02*
X122761000Y-93238500D01*
X122761000Y-91857200D02*
X124930000Y-89688900D01*
X170434000Y-60196000D02*
X170434000Y-61347700D01*
X124714000Y-95022000D02*
X124182000Y-95022000D01*
X124930000Y-89688900D02*
X126904000Y-89688900D01*
X124182000Y-95022000D02*
X123008000Y-93847200D01*
X170434000Y-61347700D02*
X159829000Y-61347700D01*
%TO.N,X29*%
X228728000Y-41148000D02*
X207726000Y-41148000D01*
X126752000Y-87930200D02*
X124893000Y-87930200D01*
X124139000Y-97822000D02*
X124714000Y-97822000D01*
X121190000Y-91633300D02*
X121190000Y-94594600D01*
X122899000Y-96304100D02*
X122899000Y-96582100D01*
X124893000Y-87930200D02*
X121190000Y-91633300D01*
X121190000Y-94594600D02*
X122899000Y-96304100D01*
X122899000Y-96582100D02*
X124139000Y-97822000D01*
X148885000Y-65797200D02*
X126752000Y-87930200D01*
X207726000Y-41148000D02*
X183077000Y-65797200D01*
X183077000Y-65797200D02*
X148885000Y-65797200D01*
%TO.N,X2*%
X113538000Y-147066000D02*
X113538000Y-145609000D01*
X113538000Y-145609000D02*
X114343000Y-145609000D01*
X126424000Y-92222000D02*
X125936000Y-91733800D01*
X116678000Y-142889000D02*
X116199000Y-142409000D01*
X116678000Y-143274000D02*
X116678000Y-142889000D01*
X114343000Y-145609000D02*
X116678000Y-143274000D01*
X125936000Y-91733800D02*
X124580000Y-91733800D01*
%TO.N,Net-(LED_3-A)*%
X94607100Y-43236100D02*
X89351900Y-43236100D01*
X95313000Y-43942000D02*
X94607100Y-43236100D01*
X89351900Y-43236100D02*
X88646000Y-43942000D01*
%TO.N,X77*%
X156495000Y-98424600D02*
X173318000Y-81602000D01*
X200152000Y-81343000D02*
X200152000Y-81602000D01*
X124714000Y-107422000D02*
X124182000Y-107422000D01*
X155991000Y-98424600D02*
X156495000Y-98424600D01*
X200152000Y-81602000D02*
X204148000Y-85598000D01*
X124182000Y-107422000D02*
X124182000Y-108078000D01*
X129220000Y-109186000D02*
X130017000Y-108390000D01*
X125291000Y-109186000D02*
X129220000Y-109186000D01*
X124182000Y-108078000D02*
X125291000Y-109186000D01*
X173318000Y-81602000D02*
X200152000Y-81602000D01*
%TO.N,X16*%
X230053000Y-42453300D02*
X230510000Y-41996600D01*
X230510000Y-41996600D02*
X230510000Y-38079600D01*
X233180000Y-27829700D02*
X231258000Y-25908000D01*
X230510000Y-38079600D02*
X233180000Y-35409500D01*
X231258000Y-25908000D02*
X228728000Y-25908000D01*
X126424000Y-95022000D02*
X146198000Y-95022000D01*
X183431000Y-66748200D02*
X207726000Y-42453300D01*
X207726000Y-42453300D02*
X230053000Y-42453300D01*
X233180000Y-35409500D02*
X233180000Y-27829700D01*
X174471000Y-66748200D02*
X183431000Y-66748200D01*
X146198000Y-95022000D02*
X174471000Y-66748200D01*
%TO.N,X78*%
X199505000Y-114860000D02*
X199961000Y-115316000D01*
X168076000Y-109905000D02*
X167904000Y-109732000D01*
X166986000Y-109732000D02*
X164676000Y-107422000D01*
X186226000Y-110654000D02*
X169440000Y-110654000D01*
X167904000Y-109732000D02*
X166986000Y-109732000D01*
X199065000Y-114860000D02*
X199505000Y-114860000D01*
X164676000Y-107422000D02*
X126424000Y-107422000D01*
X169440000Y-110654000D02*
X168690000Y-109905000D01*
X199961000Y-115316000D02*
X204148000Y-115316000D01*
X168690000Y-109905000D02*
X168076000Y-109905000D01*
%TO.N,X65*%
X65215000Y-97536000D02*
X65215000Y-96774300D01*
X86825600Y-106715000D02*
X88452100Y-108341000D01*
X88452100Y-108341000D02*
X120370000Y-108341000D01*
X78931300Y-96774300D02*
X79693000Y-97536000D01*
X79693000Y-99010900D02*
X86825600Y-106144000D01*
X86825600Y-106144000D02*
X86825600Y-106715000D01*
X120370000Y-108341000D02*
X123689000Y-105022000D01*
X123689000Y-105022000D02*
X124714000Y-105022000D01*
X79693000Y-97536000D02*
X79693000Y-99010900D01*
X65215000Y-96774300D02*
X78931300Y-96774300D01*
%TO.N,X1*%
X110998000Y-147538000D02*
X115468000Y-143068000D01*
X110998000Y-150376000D02*
X110998000Y-147538000D01*
X124714000Y-92222000D02*
X124182000Y-92222000D01*
X124182000Y-92222000D02*
X124035000Y-92075100D01*
X115468000Y-143068000D02*
X116244000Y-143068000D01*
X124035000Y-92075100D02*
X124035000Y-92039900D01*
%TO.N,X63*%
X87233100Y-106696000D02*
X88569200Y-108032000D01*
X87233100Y-106124000D02*
X87233100Y-106696000D01*
X79693000Y-89407700D02*
X79693000Y-88646000D01*
X100622000Y-104622000D02*
X124714000Y-104622000D01*
X97212700Y-108032000D02*
X100622000Y-104622000D01*
X79693000Y-89407700D02*
X65215000Y-89407700D01*
X65215000Y-89407700D02*
X65215000Y-88646000D01*
X80352500Y-99243800D02*
X87233100Y-106124000D01*
X79693000Y-89407700D02*
X80352500Y-90067200D01*
X88569200Y-108032000D02*
X97212700Y-108032000D01*
X80352500Y-90067200D02*
X80352500Y-99243800D01*
%TO.N,X14_WLAN_RXD*%
X150486000Y-77996100D02*
X150486000Y-77354200D01*
X126424000Y-94622000D02*
X126956000Y-94622000D01*
X178562000Y-45350600D02*
X178562000Y-40894000D01*
X170011000Y-50546000D02*
X173367000Y-50546000D01*
X126956000Y-94622000D02*
X127037000Y-94702900D01*
X162878000Y-57678500D02*
X170011000Y-50546000D01*
X127037000Y-94702900D02*
X133780000Y-94702900D01*
X150486000Y-77354200D02*
X150322000Y-77190200D01*
X133780000Y-94702900D02*
X150486000Y-77996100D01*
X173367000Y-50546000D02*
X178562000Y-45350600D01*
%TO.N,X30*%
X210791000Y-43688100D02*
X156657000Y-97822000D01*
X156657000Y-97822000D02*
X126424000Y-97822000D01*
X232028000Y-43688000D02*
X230876000Y-43688000D01*
X230876000Y-43688000D02*
X230876000Y-43688100D01*
X230876000Y-43688100D02*
X210791000Y-43688100D01*
%TO.N,Net-(LED_4-A)*%
X94633600Y-52660600D02*
X95313000Y-53340000D01*
X88712000Y-53340000D02*
X89391400Y-52660600D01*
X89391400Y-52660600D02*
X94633600Y-52660600D01*
%TO.N,X52*%
X94376200Y-152859000D02*
X93663000Y-152146000D01*
X95780100Y-152859000D02*
X94376200Y-152859000D01*
X107694000Y-140946000D02*
X95780100Y-152859000D01*
X126424000Y-102222000D02*
X126956000Y-102222000D01*
X127408000Y-140946000D02*
X107694000Y-140946000D01*
X126956000Y-102222000D02*
X126994000Y-102183000D01*
X128799000Y-102183000D02*
X128838000Y-102222000D01*
X126994000Y-102183000D02*
X128799000Y-102183000D01*
%TO.N,X66*%
X64895000Y-113662000D02*
X65215000Y-113662000D01*
X80735000Y-114880000D02*
X80735000Y-115318000D01*
X79693000Y-106426000D02*
X79693000Y-109504000D01*
X65215000Y-113662000D02*
X65215000Y-106426000D01*
X63933300Y-115984000D02*
X63933300Y-114624000D01*
X79693000Y-109504000D02*
X73085600Y-116111000D01*
X122509000Y-113846000D02*
X81768400Y-113846000D01*
X73085600Y-116111000D02*
X69594900Y-116111000D01*
X125892000Y-105153000D02*
X125490000Y-105554000D01*
X64679700Y-116730000D02*
X63933300Y-115984000D01*
X80735000Y-115318000D02*
X79323000Y-116730000D01*
X63933300Y-114624000D02*
X64895000Y-113662000D01*
X126532000Y-109823000D02*
X122509000Y-113846000D01*
X81768400Y-113846000D02*
X80735000Y-114880000D01*
X125892000Y-105022000D02*
X125892000Y-105153000D01*
X67145700Y-113662000D02*
X65215000Y-113662000D01*
X79323000Y-116730000D02*
X64679700Y-116730000D01*
X69594900Y-116111000D02*
X67145700Y-113662000D01*
X126424000Y-105022000D02*
X125892000Y-105022000D01*
%TO.N,X4*%
X120421000Y-145609000D02*
X122962000Y-143068000D01*
X126424000Y-92622000D02*
X125892000Y-92622000D01*
X118618000Y-145609000D02*
X120421000Y-145609000D01*
X118618000Y-147066000D02*
X118618000Y-145609000D01*
X125673000Y-92402400D02*
X125377000Y-92402400D01*
X125892000Y-92622000D02*
X125673000Y-92402400D01*
%TO.N,X75*%
X167454000Y-110034000D02*
X132264000Y-110034000D01*
X129840000Y-107963000D02*
X129664000Y-108140000D01*
X179920000Y-104940000D02*
X184276000Y-100584000D01*
X130193000Y-107963000D02*
X129840000Y-107963000D01*
X168540000Y-110358000D02*
X167778000Y-110358000D01*
X184276000Y-100584000D02*
X184530000Y-100330000D01*
X184530000Y-100330000D02*
X188654000Y-100330000D01*
X125246000Y-107022000D02*
X124714000Y-107022000D01*
X129664000Y-108140000D02*
X126016000Y-108140000D01*
X126016000Y-108140000D02*
X125246000Y-107369000D01*
X167778000Y-110358000D02*
X167454000Y-110034000D01*
X125246000Y-107369000D02*
X125246000Y-107022000D01*
X132264000Y-110034000D02*
X130193000Y-107963000D01*
X176062000Y-104940000D02*
X179920000Y-104940000D01*
%TO.N,X79*%
X125246000Y-107822000D02*
X125246000Y-108083000D01*
X124714000Y-107822000D02*
X125246000Y-107822000D01*
X125246000Y-108083000D02*
X125051000Y-108278000D01*
X124800000Y-175833000D02*
X124386000Y-175420000D01*
X125476000Y-177285000D02*
X125476000Y-175833000D01*
X125476000Y-175833000D02*
X124800000Y-175833000D01*
%TO.N,X8*%
X128808000Y-145580000D02*
X128808000Y-144996000D01*
X126424000Y-93422000D02*
X126956000Y-93422000D01*
X127018000Y-93359300D02*
X129172000Y-93359300D01*
X128778000Y-147066000D02*
X128778000Y-145609000D01*
X126956000Y-93422000D02*
X127018000Y-93359300D01*
X128778000Y-145609000D02*
X128808000Y-145580000D01*
%TO.N,X27*%
X121526000Y-94227400D02*
X121526000Y-91744700D01*
X183227000Y-66098900D02*
X207476000Y-41849700D01*
X123369000Y-96608800D02*
X123369000Y-96071000D01*
X229762000Y-41849700D02*
X229880000Y-41731500D01*
X124888000Y-88381900D02*
X126727000Y-88381900D01*
X207476000Y-41849700D02*
X229762000Y-41849700D01*
X124714000Y-97422000D02*
X124182000Y-97422000D01*
X149010000Y-66098900D02*
X183227000Y-66098900D01*
X123369000Y-96071000D02*
X121526000Y-94227400D01*
X126727000Y-88381900D02*
X149010000Y-66098900D01*
X121526000Y-91744700D02*
X124888000Y-88381900D01*
X229880000Y-36068000D02*
X228728000Y-36068000D01*
X124182000Y-97422000D02*
X123369000Y-96608800D01*
X229880000Y-41731500D02*
X229880000Y-36068000D01*
%TO.N,X25*%
X120124000Y-69439500D02*
X120124000Y-62020900D01*
X120124000Y-62020900D02*
X93663000Y-35560000D01*
X124380000Y-97022000D02*
X123671000Y-96312400D01*
X124714000Y-97022000D02*
X124380000Y-97022000D01*
X123671000Y-95885900D02*
X121827000Y-94042300D01*
X123671000Y-96312400D02*
X123671000Y-95885900D01*
X121827000Y-94042300D02*
X121827000Y-91888400D01*
X124755000Y-88960500D02*
X124925000Y-88960500D01*
X121827000Y-91888400D02*
X124755000Y-88960500D01*
%TO.N,X17*%
X201601000Y-43552300D02*
X179657000Y-65495500D01*
X124856000Y-86754400D02*
X122689000Y-88920800D01*
X219580000Y-28448000D02*
X204476000Y-43552300D01*
X124150000Y-95422000D02*
X122556000Y-93827900D01*
X232028000Y-28448000D02*
X219580000Y-28448000D01*
X122556000Y-93827900D02*
X122556000Y-93701000D01*
X127501000Y-86754400D02*
X124856000Y-86754400D01*
X124714000Y-95422000D02*
X124150000Y-95422000D01*
X148760000Y-65495500D02*
X127501000Y-86754400D01*
X204476000Y-43552300D02*
X201601000Y-43552300D01*
X179657000Y-65495500D02*
X148760000Y-65495500D01*
X122689000Y-88920800D02*
X122564000Y-88920800D01*
%TO.N,X67*%
X78594600Y-116414000D02*
X79693000Y-115316000D01*
X65215000Y-115316000D02*
X65215000Y-116078000D01*
X118948000Y-110189000D02*
X123715000Y-105422000D01*
X79693000Y-115316000D02*
X84819900Y-110189000D01*
X123715000Y-105422000D02*
X124714000Y-105422000D01*
X65215000Y-116078000D02*
X65551700Y-116414000D01*
X65551700Y-116414000D02*
X78594600Y-116414000D01*
X84819900Y-110189000D02*
X118948000Y-110189000D01*
%TO.N,X76*%
X168046000Y-109398000D02*
X168182000Y-109533000D01*
X126424000Y-107022000D02*
X126956000Y-107022000D01*
X226568000Y-104522000D02*
X222496000Y-104522000D01*
X165252000Y-107090000D02*
X167560000Y-109398000D01*
X127024000Y-107090000D02*
X165252000Y-107090000D01*
X126956000Y-107022000D02*
X127024000Y-107090000D01*
X167560000Y-109398000D02*
X168046000Y-109398000D01*
X168182000Y-109533000D02*
X176352000Y-109533000D01*
X199866000Y-106899000D02*
X212243000Y-106899000D01*
X176352000Y-109533000D02*
X176591000Y-109772000D01*
X222496000Y-104522000D02*
X218558000Y-100584000D01*
X212243000Y-106899000D02*
X218558000Y-100584000D01*
%TO.N,X72*%
X80632400Y-162800000D02*
X79630000Y-161798000D01*
X125531000Y-158206000D02*
X120937000Y-162800000D01*
X126424000Y-106222000D02*
X125892000Y-106222000D01*
X65215000Y-162560000D02*
X65215000Y-161798000D01*
X125892000Y-106222000D02*
X125892000Y-106760000D01*
X78868300Y-162560000D02*
X65215000Y-162560000D01*
X125892000Y-106760000D02*
X125683000Y-106970000D01*
X79630000Y-161798000D02*
X78868300Y-162560000D01*
X120937000Y-162800000D02*
X80632400Y-162800000D01*
%TO.N,X6*%
X123698000Y-147066000D02*
X123698000Y-145609000D01*
X125892000Y-93022000D02*
X125824000Y-92954200D01*
X123745000Y-145562000D02*
X123745000Y-145456000D01*
X125824000Y-92954200D02*
X125394000Y-92954200D01*
X126424000Y-93022000D02*
X125892000Y-93022000D01*
X123698000Y-145609000D02*
X123745000Y-145562000D01*
%TO.N,X7*%
X124714000Y-93422000D02*
X125310000Y-93422000D01*
X126238000Y-150376000D02*
X126238000Y-148919000D01*
X125851000Y-148533000D02*
X125851000Y-147519000D01*
X126238000Y-148919000D02*
X125851000Y-148533000D01*
X125310000Y-93422000D02*
X125394000Y-93506000D01*
%TO.N,X5*%
X124714000Y-93022000D02*
X124182000Y-93022000D01*
X124061000Y-93143500D02*
X124038000Y-93143500D01*
X121158000Y-150376000D02*
X121158000Y-148852000D01*
X124182000Y-93022000D02*
X124061000Y-93143500D01*
X121158000Y-148852000D02*
X121557000Y-148453000D01*
%TO.N,X37*%
X104376000Y-99422000D02*
X93600000Y-88646000D01*
X124714000Y-99422000D02*
X104376000Y-99422000D01*
%TO.N,X19*%
X230204000Y-34199800D02*
X230876000Y-33528000D01*
X124804000Y-89387200D02*
X126779000Y-89387200D01*
X207601000Y-42151600D02*
X229926000Y-42151600D01*
X183327000Y-66426000D02*
X207601000Y-42151600D01*
X124053000Y-95822000D02*
X122129000Y-93897700D01*
X149741000Y-66426000D02*
X183327000Y-66426000D01*
X126779000Y-89387200D02*
X149741000Y-66426000D01*
X122129000Y-92062800D02*
X124804000Y-89387200D01*
X229926000Y-42151600D02*
X230204000Y-41873200D01*
X230204000Y-41873200D02*
X230204000Y-34199800D01*
X122129000Y-93897700D02*
X122129000Y-92062800D01*
X230876000Y-33528000D02*
X232028000Y-33528000D01*
X124714000Y-95822000D02*
X124053000Y-95822000D01*
%TO.N,X34*%
X117087000Y-85400400D02*
X123842000Y-85400400D01*
X126956000Y-98622000D02*
X127002000Y-98575800D01*
X93663000Y-61976000D02*
X117087000Y-85400400D01*
X126424000Y-98622000D02*
X126956000Y-98622000D01*
X128078000Y-98575800D02*
X128154000Y-98651800D01*
X127002000Y-98575800D02*
X128078000Y-98575800D01*
%TO.N,X33*%
X124074000Y-98622000D02*
X121896000Y-96444100D01*
X121896000Y-96444100D02*
X121896000Y-96330900D01*
X124714000Y-98622000D02*
X124074000Y-98622000D01*
X93663000Y-53340000D02*
X118982000Y-78658600D01*
X118982000Y-78658600D02*
X118982000Y-84973700D01*
%TO.N,X39*%
X103521000Y-99822000D02*
X96237600Y-107105000D01*
X94342000Y-107105000D02*
X93663000Y-106426000D01*
X124714000Y-99822000D02*
X103521000Y-99822000D01*
X96237600Y-107105000D02*
X94342000Y-107105000D01*
%TO.N,X38*%
X94208000Y-88209800D02*
X93961500Y-87963300D01*
X94208000Y-88648200D02*
X94208000Y-88209800D01*
X122927000Y-89397400D02*
X94957200Y-89397400D01*
X94957200Y-89397400D02*
X94208000Y-88648200D01*
X125086000Y-87239000D02*
X122927000Y-89397400D01*
X93961500Y-87963300D02*
X93214200Y-87963300D01*
X128261000Y-99280100D02*
X128079000Y-99462100D01*
X126996000Y-99462100D02*
X126956000Y-99422000D01*
X126956000Y-99422000D02*
X126424000Y-99422000D01*
X93214200Y-87963300D02*
X92934000Y-88243500D01*
X92934000Y-96807000D02*
X93663000Y-97536000D01*
X126752000Y-87239000D02*
X125086000Y-87239000D01*
X92934000Y-88243500D02*
X92934000Y-96807000D01*
X128079000Y-99462100D02*
X126996000Y-99462100D01*
%TO.N,X71*%
X124182000Y-106222000D02*
X124182000Y-106428000D01*
X65215000Y-152908000D02*
X78931300Y-152908000D01*
X65215000Y-152146000D02*
X65215000Y-152908000D01*
X124182000Y-106428000D02*
X117380000Y-113231000D01*
X78931300Y-152908000D02*
X79693000Y-152146000D01*
X124714000Y-106222000D02*
X124182000Y-106222000D01*
X79693000Y-152146000D02*
X82320100Y-149519000D01*
X82320100Y-149519000D02*
X85380600Y-149519000D01*
X117380000Y-113231000D02*
X97924500Y-113231000D01*
%TO.N,X59*%
X66496700Y-53086000D02*
X66520000Y-53062700D01*
X80134000Y-53781000D02*
X79693000Y-53340000D01*
X124714000Y-103822000D02*
X121661000Y-103822000D01*
X121661000Y-103822000D02*
X121637000Y-103798000D01*
X80134000Y-54135600D02*
X80134000Y-53781000D01*
X66520000Y-53062700D02*
X70494200Y-53062700D01*
X65215000Y-53086000D02*
X66496700Y-53086000D01*
%TO.N,X11*%
X123309000Y-93465800D02*
X123309000Y-93359900D01*
X125054000Y-89990600D02*
X127029000Y-89990600D01*
X169768000Y-26550900D02*
X172258000Y-26550900D01*
X123103000Y-93153700D02*
X123103000Y-91942000D01*
X175514000Y-23136500D02*
X177270000Y-23136500D01*
X149954000Y-75765100D02*
X158171000Y-67548400D01*
X124065000Y-94222000D02*
X123309000Y-93465800D01*
X177270000Y-23136500D02*
X179081000Y-21326300D01*
X172258000Y-26550900D02*
X175514000Y-23294600D01*
X124714000Y-94222000D02*
X124065000Y-94222000D01*
X179081000Y-21326300D02*
X199898000Y-21326300D01*
X175514000Y-22732000D02*
X175514000Y-23136500D01*
X141255000Y-75765100D02*
X149954000Y-75765100D01*
X127029000Y-89990600D02*
X141255000Y-75765100D01*
X123309000Y-93359900D02*
X123103000Y-93153700D01*
X123103000Y-91942000D02*
X125054000Y-89990600D01*
X175514000Y-23294600D02*
X175514000Y-23136500D01*
X199898000Y-21326300D02*
X199898000Y-22478000D01*
%TO.N,X61*%
X79693000Y-71881700D02*
X80700700Y-72889400D01*
X79693000Y-71881700D02*
X79693000Y-71120000D01*
X88674000Y-107710000D02*
X97107900Y-107710000D01*
X79693000Y-71881700D02*
X65215000Y-71881700D01*
X100593000Y-104225000D02*
X124179000Y-104225000D01*
X124179000Y-104225000D02*
X124182000Y-104222000D01*
X124182000Y-104222000D02*
X124714000Y-104222000D01*
X87534900Y-106000000D02*
X87534900Y-106571000D01*
X65215000Y-71881700D02*
X65215000Y-71120000D01*
X80700700Y-99165400D02*
X87534900Y-106000000D01*
X87534900Y-106571000D02*
X88674000Y-107710000D01*
X80700700Y-72889400D02*
X80700700Y-99165400D01*
X97107900Y-107710000D02*
X100593000Y-104225000D01*
%TO.N,X70*%
X126956000Y-105822000D02*
X126956000Y-106276000D01*
X79693000Y-141732000D02*
X79693000Y-142494000D01*
X119078000Y-124863000D02*
X109759000Y-124863000D01*
X126600000Y-117341000D02*
X119078000Y-124863000D01*
X109759000Y-124863000D02*
X100370000Y-134252000D01*
X100370000Y-134252000D02*
X87173400Y-134252000D01*
X87173400Y-134252000D02*
X79693000Y-141732000D01*
X126424000Y-105822000D02*
X126956000Y-105822000D01*
X126956000Y-106276000D02*
X127343000Y-106663000D01*
X65215000Y-142494000D02*
X65215000Y-141732000D01*
X65215000Y-141732000D02*
X79693000Y-141732000D01*
%TO.N,X26*%
X124810000Y-75088500D02*
X93663000Y-43942000D01*
X127875000Y-96035300D02*
X127709000Y-95869700D01*
X124810000Y-86026000D02*
X124810000Y-75088500D01*
X126424000Y-97022000D02*
X127606000Y-97022000D01*
X127606000Y-97022000D02*
X127875000Y-96753200D01*
X127875000Y-96753200D02*
X127875000Y-96035300D01*
%TO.N,X68*%
X97075700Y-115630000D02*
X90138400Y-122568000D01*
X79693000Y-124206000D02*
X78931300Y-123444000D01*
X81331500Y-122568000D02*
X79693000Y-124206000D01*
X126424000Y-105422000D02*
X127034000Y-105422000D01*
X127034000Y-105422000D02*
X127085000Y-105371000D01*
X90138400Y-122568000D02*
X81331500Y-122568000D01*
X78931300Y-123444000D02*
X65215000Y-123444000D01*
X65215000Y-123444000D02*
X65215000Y-124206000D01*
X126693000Y-115630000D02*
X97075700Y-115630000D01*
%TO.N,X36*%
X126424000Y-99022000D02*
X127165000Y-99022000D01*
X99335600Y-85936600D02*
X93663000Y-80264000D01*
X123405000Y-85936600D02*
X99335600Y-85936600D01*
X124024000Y-86555700D02*
X123405000Y-85936600D01*
%TO.N,X50*%
X113700000Y-116706000D02*
X96886600Y-133520000D01*
X127685000Y-115929000D02*
X126908000Y-116706000D01*
X94341100Y-133520000D02*
X93663000Y-132842000D01*
X96886600Y-133520000D02*
X94341100Y-133520000D01*
X127377000Y-101822000D02*
X127689000Y-101510000D01*
X126424000Y-101822000D02*
X127377000Y-101822000D01*
X126908000Y-116706000D02*
X113700000Y-116706000D01*
%TO.N,X18*%
X228728000Y-30988000D02*
X226840000Y-30988000D01*
X126424000Y-95422000D02*
X156493000Y-95422000D01*
X156493000Y-95422000D02*
X206171000Y-45744000D01*
%TO.N,X56*%
X126956000Y-103022000D02*
X126956000Y-103031000D01*
X65215000Y-26670300D02*
X65215000Y-27432000D01*
X126956000Y-103031000D02*
X127090000Y-103165000D01*
X78931300Y-26670300D02*
X65215000Y-26670300D01*
X80766600Y-25850400D02*
X79439000Y-27178000D01*
X111162000Y-25850400D02*
X80766600Y-25850400D01*
X120885000Y-35572900D02*
X111162000Y-25850400D01*
X126424000Y-103022000D02*
X126956000Y-103022000D01*
X79439000Y-27178000D02*
X78931300Y-26670300D01*
%TO.N,X57*%
X124182000Y-103422000D02*
X123920000Y-103160000D01*
X87008500Y-51621800D02*
X80518000Y-45131300D01*
X124714000Y-103422000D02*
X124182000Y-103422000D01*
X65215000Y-36829700D02*
X78423300Y-36829700D01*
X78423300Y-36829700D02*
X79693000Y-35560000D01*
X80518000Y-38924400D02*
X78423300Y-36829700D01*
X80518000Y-45131300D02*
X80518000Y-38924400D01*
X65215000Y-36068000D02*
X65215000Y-36829700D01*
X123920000Y-103160000D02*
X121550000Y-103160000D01*
%TO.N,X3*%
X124714000Y-92622000D02*
X123895000Y-92622000D01*
X123895000Y-92622000D02*
X123865000Y-92591700D01*
X116078000Y-148919000D02*
X116792000Y-148205000D01*
X116078000Y-150376000D02*
X116078000Y-148919000D01*
%TO.N,X58*%
X79693000Y-45432000D02*
X87489200Y-53228200D01*
X65215000Y-43434300D02*
X79185300Y-43434300D01*
X79185300Y-43434300D02*
X79693000Y-43942000D01*
X65215000Y-44196000D02*
X65215000Y-43434300D01*
X126424000Y-103422000D02*
X125892000Y-103422000D01*
X79693000Y-43942000D02*
X79693000Y-45432000D01*
X125451000Y-102981000D02*
X125451000Y-102293000D01*
X125892000Y-103422000D02*
X125451000Y-102981000D01*
%TO.N,X24*%
X125892000Y-96622000D02*
X125766000Y-96496100D01*
X114998000Y-32661800D02*
X99146800Y-32661800D01*
X99146800Y-32661800D02*
X93663000Y-27178000D01*
X126424000Y-96622000D02*
X125892000Y-96622000D01*
X125766000Y-96496100D02*
X125766000Y-96419200D01*
%TO.N,X40*%
X127014000Y-99763800D02*
X127882000Y-99763800D01*
X126956000Y-99822000D02*
X127014000Y-99763800D01*
X127882000Y-99763800D02*
X128265000Y-100146000D01*
X124125000Y-114305000D02*
X94673600Y-114305000D01*
X128361000Y-110070000D02*
X124125000Y-114305000D01*
X94673600Y-114305000D02*
X93663000Y-115316000D01*
X126424000Y-99822000D02*
X126956000Y-99822000D01*
%TO.N,X62*%
X125513000Y-104222000D02*
X125401000Y-104333000D01*
X91711700Y-86260500D02*
X120268000Y-86260500D01*
X65215000Y-79502300D02*
X78931300Y-79502300D01*
X126424000Y-104222000D02*
X125513000Y-104222000D01*
X120268000Y-86260500D02*
X121703000Y-87695500D01*
X79693000Y-81184800D02*
X79693000Y-80264000D01*
X79812900Y-81304700D02*
X79693000Y-81184800D01*
X65215000Y-80264000D02*
X65215000Y-79502300D01*
X78931300Y-79502300D02*
X79693000Y-80264000D01*
%TO.N,X35*%
X122161000Y-99022000D02*
X119474000Y-96334700D01*
X124714000Y-99022000D02*
X122161000Y-99022000D01*
X107553000Y-85010000D02*
X93663000Y-71120000D01*
X111706000Y-85010000D02*
X107553000Y-85010000D01*
%TO.N,X10*%
X174747000Y-18026300D02*
X172974000Y-19798900D01*
X202438000Y-18026300D02*
X174747000Y-18026300D01*
X172974000Y-20583700D02*
X172974000Y-19798900D01*
X169241000Y-20583700D02*
X172974000Y-20583700D01*
X167482000Y-22342800D02*
X169241000Y-20583700D01*
X172974000Y-19798900D02*
X172974000Y-19432000D01*
X150056000Y-77809700D02*
X134044000Y-93822000D01*
X202438000Y-19178000D02*
X202438000Y-18026300D01*
X134044000Y-93822000D02*
X126424000Y-93822000D01*
%TO.N,X49*%
X94359500Y-124902000D02*
X104175000Y-124902000D01*
X124182000Y-101822000D02*
X124123000Y-101763000D01*
X124714000Y-101822000D02*
X124182000Y-101822000D01*
X93663000Y-124206000D02*
X94359500Y-124902000D01*
X124123000Y-101763000D02*
X115707000Y-101763000D01*
X104175000Y-124902000D02*
X111919000Y-117159000D01*
%TO.N,X9*%
X141170000Y-76276900D02*
X161960000Y-76276900D01*
X124102000Y-93822000D02*
X123611000Y-93330800D01*
X178954000Y-21026100D02*
X172716000Y-21026100D01*
X123611000Y-93235000D02*
X123407000Y-93031400D01*
X169804000Y-23883700D02*
X169600000Y-23679600D01*
X172716000Y-21026100D02*
X170434000Y-23307800D01*
X127154000Y-90292300D02*
X141170000Y-76276900D01*
X170434000Y-22732000D02*
X170434000Y-23307800D01*
X170434000Y-23883700D02*
X169804000Y-23883700D01*
X124714000Y-93822000D02*
X124102000Y-93822000D01*
X197358000Y-19178000D02*
X197358000Y-20329700D01*
X123407000Y-92064300D02*
X125179000Y-90292300D01*
X123407000Y-93031400D02*
X123407000Y-92064300D01*
X197358000Y-20329700D02*
X179651000Y-20329700D01*
X125179000Y-90292300D02*
X127154000Y-90292300D01*
X179651000Y-20329700D02*
X178954000Y-21026100D01*
X123611000Y-93330800D02*
X123611000Y-93235000D01*
X170434000Y-23307800D02*
X170434000Y-23883700D01*
%TO.N,Net-(LED_5-A)*%
X94617300Y-61280300D02*
X95313000Y-61976000D01*
X89473700Y-61280300D02*
X94617300Y-61280300D01*
X88778000Y-61976000D02*
X89473700Y-61280300D01*
%TO.N,X51*%
X108422000Y-127672000D02*
X93600000Y-142494000D01*
X111828000Y-127672000D02*
X108422000Y-127672000D01*
X124714000Y-102222000D02*
X119999000Y-102222000D01*
%TO.N,X69*%
X65563000Y-133952000D02*
X65215000Y-133604000D01*
X79693000Y-132842000D02*
X78583300Y-133952000D01*
X78583300Y-133952000D02*
X65563000Y-133952000D01*
X115863000Y-118120000D02*
X119363000Y-118120000D01*
X119363000Y-110614000D02*
X124156000Y-105822000D01*
X100161000Y-133822000D02*
X115863000Y-118120000D01*
X65215000Y-133604000D02*
X65215000Y-132842000D01*
X80673500Y-133822000D02*
X100161000Y-133822000D01*
X124156000Y-105822000D02*
X124714000Y-105822000D01*
X79693000Y-132842000D02*
X80673500Y-133822000D01*
%TO.N,Y26*%
X167894000Y-103022000D02*
X145227000Y-103022000D01*
X145227000Y-103022000D02*
X145201000Y-103048000D01*
%TO.N,Net-(LED_6-A)*%
X88646000Y-71120000D02*
X89328900Y-70437100D01*
X89328900Y-70437100D02*
X94630100Y-70437100D01*
X94630100Y-70437100D02*
X95313000Y-71120000D01*
%TO.N,Y50*%
X168426000Y-98222000D02*
X168426000Y-98371700D01*
X168426000Y-98371700D02*
X168703000Y-98648600D01*
X180594000Y-22732000D02*
X180594000Y-24175100D01*
X180594000Y-24175100D02*
X178229000Y-26540500D01*
X167894000Y-98222000D02*
X168426000Y-98222000D01*
%TO.N,Y15*%
X159785000Y-62946700D02*
X159975000Y-62756900D01*
X169604000Y-105022000D02*
X170199000Y-105022000D01*
X171858000Y-62756900D02*
X172157000Y-63055800D01*
X171248000Y-103974000D02*
X171248000Y-103119000D01*
X170199000Y-105022000D02*
X171248000Y-103974000D01*
X127254000Y-58928000D02*
X131273000Y-62946700D01*
X159975000Y-62756900D02*
X171858000Y-62756900D01*
X131273000Y-62946700D02*
X159785000Y-62946700D01*
%TO.N,Y73*%
X167218000Y-139309000D02*
X147896000Y-158631000D01*
X169604000Y-93422000D02*
X170136000Y-93422000D01*
X170454000Y-93740500D02*
X176584000Y-93740500D01*
X130499000Y-158631000D02*
X123698000Y-165432000D01*
X147896000Y-158631000D02*
X130499000Y-158631000D01*
X170136000Y-93422000D02*
X170454000Y-93740500D01*
%TO.N,Y32*%
X167894000Y-101822000D02*
X167883000Y-101811000D01*
X159972000Y-101811000D02*
X159771000Y-101611000D01*
X167883000Y-101811000D02*
X159972000Y-101811000D01*
%TO.N,Y13*%
X176140000Y-105984000D02*
X175579000Y-105422000D01*
X219432000Y-153670000D02*
X223522000Y-153670000D01*
X197415000Y-131653000D02*
X219432000Y-153670000D01*
X175579000Y-105422000D02*
X169604000Y-105422000D01*
%TO.N,Y6*%
X218006000Y-52009700D02*
X229799000Y-52009700D01*
X203072000Y-66943600D02*
X218006000Y-52009700D01*
X230876000Y-48768000D02*
X232028000Y-48768000D01*
X202454000Y-66943600D02*
X203072000Y-66943600D01*
X167362000Y-106986000D02*
X167234000Y-106858000D01*
X202207000Y-66696700D02*
X202454000Y-66943600D01*
X229799000Y-52009700D02*
X230876000Y-50932300D01*
X230876000Y-50932300D02*
X230876000Y-48768000D01*
X167362000Y-107022000D02*
X167362000Y-106986000D01*
X167894000Y-107022000D02*
X167362000Y-107022000D01*
X199108000Y-66696700D02*
X202207000Y-66696700D01*
%TO.N,Y65*%
X174536000Y-96763600D02*
X174786000Y-96513600D01*
X173648000Y-95022000D02*
X169604000Y-95022000D01*
X170752000Y-96763600D02*
X174536000Y-96763600D01*
X174786000Y-96513600D02*
X174786000Y-96160200D01*
X174786000Y-96160200D02*
X173648000Y-95022000D01*
X170728000Y-96739600D02*
X170752000Y-96763600D01*
%TO.N,Y30*%
X167253000Y-102113000D02*
X143102000Y-102113000D01*
X143102000Y-102113000D02*
X142993000Y-102222000D01*
X167362000Y-102222000D02*
X167253000Y-102113000D01*
X167894000Y-102222000D02*
X167362000Y-102222000D01*
%TO.N,Y16*%
X167362000Y-105022000D02*
X167321000Y-104980000D01*
X167894000Y-105022000D02*
X167362000Y-105022000D01*
X167321000Y-104980000D02*
X149073000Y-104980000D01*
%TO.N,Y8*%
X167894000Y-106622000D02*
X168426000Y-106622000D01*
X168511000Y-106537000D02*
X168911000Y-106537000D01*
X228292000Y-53848000D02*
X214869000Y-67270300D01*
X214869000Y-67270300D02*
X199561000Y-67270300D01*
X232028000Y-53848000D02*
X228292000Y-53848000D01*
X168426000Y-106622000D02*
X168511000Y-106537000D01*
%TO.N,Y51*%
X194818000Y-22478000D02*
X194818000Y-23629700D01*
X170136000Y-97822000D02*
X170136000Y-97604600D01*
X194818000Y-23629700D02*
X193633000Y-24814600D01*
X193633000Y-24814600D02*
X193633000Y-26107100D01*
X170136000Y-97604600D02*
X170261000Y-97479400D01*
X169604000Y-97822000D02*
X170136000Y-97822000D01*
%TO.N,Y21*%
X169604000Y-103822000D02*
X168900000Y-103822000D01*
X129034000Y-63248400D02*
X170026000Y-63248400D01*
X124714000Y-58928000D02*
X129034000Y-63248400D01*
X170026000Y-63248400D02*
X170042000Y-63232200D01*
%TO.N,Y27*%
X170091000Y-102622000D02*
X169604000Y-102622000D01*
X135128000Y-40861500D02*
X152967000Y-58700900D01*
X172404000Y-60422400D02*
X172404000Y-61924400D01*
X152967000Y-58700900D02*
X170682000Y-58700900D01*
X170829000Y-101884000D02*
X170091000Y-102622000D01*
X170682000Y-58700900D02*
X172404000Y-60422400D01*
%TO.N,Y74*%
X167894000Y-93422000D02*
X167193000Y-93422000D01*
X207264000Y-45855700D02*
X206678000Y-45855700D01*
X206678000Y-45855700D02*
X167163000Y-85370300D01*
X207264000Y-44704000D02*
X207264000Y-45855700D01*
X167193000Y-93422000D02*
X167163000Y-93452000D01*
%TO.N,Y3*%
X212862000Y-131906000D02*
X216498000Y-128269000D01*
X169072000Y-108069000D02*
X169072000Y-107422000D01*
X216498000Y-126545000D02*
X215506000Y-125553000D01*
X215506000Y-125553000D02*
X205281000Y-125553000D01*
X188151000Y-108424000D02*
X169427000Y-108424000D01*
X212862000Y-134874000D02*
X212862000Y-131906000D01*
X169072000Y-107422000D02*
X169604000Y-107422000D01*
X211710000Y-134874000D02*
X212862000Y-134874000D01*
X205281000Y-125553000D02*
X188151000Y-108424000D01*
X169427000Y-108424000D02*
X169072000Y-108069000D01*
X216498000Y-128269000D02*
X216498000Y-126545000D01*
%TO.N,Y29*%
X127692000Y-68115000D02*
X123147000Y-68115000D01*
X148600000Y-64608200D02*
X143134000Y-70075100D01*
X128524000Y-68946600D02*
X127692000Y-68115000D01*
X128524000Y-69216200D02*
X128524000Y-68946600D01*
X169604000Y-102222000D02*
X168882000Y-102222000D01*
X129383000Y-70075100D02*
X128524000Y-69216200D01*
X123147000Y-68115000D02*
X122174000Y-69088000D01*
X143134000Y-70075100D02*
X129383000Y-70075100D01*
X170365000Y-64608200D02*
X148600000Y-64608200D01*
%TO.N,Y10*%
X199099000Y-68281700D02*
X197793000Y-66976400D01*
X232028000Y-58928000D02*
X228191000Y-58928000D01*
X167322000Y-106181000D02*
X167226000Y-106181000D01*
X218837000Y-68281700D02*
X199099000Y-68281700D01*
X167894000Y-106222000D02*
X167362000Y-106222000D01*
X167362000Y-106222000D02*
X167322000Y-106181000D01*
X228191000Y-58928000D02*
X218837000Y-68281700D01*
%TO.N,Y75*%
X171360000Y-93022000D02*
X171588000Y-93249700D01*
X169604000Y-93022000D02*
X171360000Y-93022000D01*
X168656000Y-172128000D02*
X166301000Y-169773000D01*
X168656000Y-177285000D02*
X168656000Y-172128000D01*
%TO.N,Y48*%
X166348000Y-97607500D02*
X166348000Y-95367800D01*
X167362000Y-98622000D02*
X166348000Y-97607500D01*
X167894000Y-98622000D02*
X167362000Y-98622000D01*
X167894000Y-20583700D02*
X167854000Y-20583700D01*
X166348000Y-95367800D02*
X166893000Y-94822700D01*
X167894000Y-19432000D02*
X167894000Y-20583700D01*
X167854000Y-20583700D02*
X167715000Y-20722400D01*
%TO.N,Y28*%
X167362000Y-102622000D02*
X167280000Y-102540000D01*
X167280000Y-102540000D02*
X161641000Y-102540000D01*
X167894000Y-102622000D02*
X167362000Y-102622000D01*
%TO.N,Y79*%
X149352000Y-138684000D02*
X149352000Y-137532000D01*
X149352000Y-137532000D02*
X160959000Y-137532000D01*
X169604000Y-92222000D02*
X171165000Y-92222000D01*
X160959000Y-137532000D02*
X165875000Y-132617000D01*
X171165000Y-92222000D02*
X171457000Y-92514000D01*
%TO.N,Y77*%
X169604000Y-92622000D02*
X168924000Y-92622000D01*
X146120000Y-155395000D02*
X100066000Y-155395000D01*
X162260000Y-139255000D02*
X146120000Y-155395000D01*
X100066000Y-155395000D02*
X93663000Y-161798000D01*
%TO.N,Y63*%
X170136000Y-95422000D02*
X170309000Y-95594900D01*
X169604000Y-95422000D02*
X170136000Y-95422000D01*
X170309000Y-95594900D02*
X170309000Y-95643000D01*
%TO.N,Net-(LED_7-A)*%
X94630100Y-79581100D02*
X95313000Y-80264000D01*
X88784000Y-80264000D02*
X89466900Y-79581100D01*
X89466900Y-79581100D02*
X94630100Y-79581100D01*
%TO.N,Y9*%
X169604000Y-106222000D02*
X172702000Y-106222000D01*
X227576000Y-56388000D02*
X216127000Y-67837400D01*
X216127000Y-67837400D02*
X199885000Y-67837400D01*
X228728000Y-56388000D02*
X227576000Y-56388000D01*
%TO.N,Net-(LED_8-A)*%
X95250000Y-88646000D02*
X94260300Y-87656300D01*
X89864700Y-87656300D02*
X88875000Y-88646000D01*
X94260300Y-87656300D02*
X89864700Y-87656300D01*
%TO.N,Y67*%
X198394000Y-116894000D02*
X213388000Y-116894000D01*
X197134000Y-107239000D02*
X197134000Y-115632000D01*
X184517000Y-94622000D02*
X197134000Y-107239000D01*
X197134000Y-115632000D02*
X198394000Y-116894000D01*
X169604000Y-94622000D02*
X184517000Y-94622000D01*
%TO.N,Net-(LED_9-A)*%
X89410600Y-98234600D02*
X94614400Y-98234600D01*
X94614400Y-98234600D02*
X95313000Y-97536000D01*
X88712000Y-97536000D02*
X89410600Y-98234600D01*
%TO.N,Y11*%
X174962000Y-105734000D02*
X170224000Y-105734000D01*
X211192000Y-77852600D02*
X201610000Y-77852600D01*
X227576000Y-61468000D02*
X211192000Y-77852600D01*
X183936000Y-101592000D02*
X179118000Y-106410000D01*
X175638000Y-106410000D02*
X174962000Y-105734000D01*
X179118000Y-106410000D02*
X175638000Y-106410000D01*
X170136000Y-105822000D02*
X169604000Y-105822000D01*
X228728000Y-61468000D02*
X227576000Y-61468000D01*
X170224000Y-105734000D02*
X170136000Y-105822000D01*
%TO.N,Net-(LED_10-A)*%
X88712000Y-106426000D02*
X89410600Y-105727000D01*
X94614400Y-105727000D02*
X95313000Y-106426000D01*
X89410600Y-105727000D02*
X94614400Y-105727000D01*
%TO.N,Y31*%
X170288000Y-101822000D02*
X171128000Y-100982000D01*
X139806000Y-64156400D02*
X173316000Y-64156400D01*
X134874000Y-69088000D02*
X139806000Y-64156400D01*
X171128000Y-100982000D02*
X172240000Y-100982000D01*
X169604000Y-101822000D02*
X170288000Y-101822000D01*
%TO.N,Y76*%
X167894000Y-93022000D02*
X167362000Y-93022000D01*
X166891000Y-92550900D02*
X165370000Y-92550900D01*
X167362000Y-93022000D02*
X166891000Y-92550900D01*
%TO.N,Y20*%
X160122000Y-103498000D02*
X160846000Y-104222000D01*
X160846000Y-104222000D02*
X167894000Y-104222000D01*
%TO.N,Y59*%
X162843000Y-58259100D02*
X170710000Y-58259100D01*
X174245000Y-96222000D02*
X174358000Y-96335700D01*
X173834000Y-61383500D02*
X173834000Y-62043100D01*
X144926000Y-38222900D02*
X144926000Y-40341500D01*
X144926000Y-40341500D02*
X162843000Y-58259100D01*
X170710000Y-58259100D02*
X173834000Y-61383500D01*
X169604000Y-96222000D02*
X174245000Y-96222000D01*
%TO.N,Net-(LED_11-A)*%
X94619800Y-116009000D02*
X95313000Y-115316000D01*
X88712000Y-115316000D02*
X89405200Y-116009000D01*
X89405200Y-116009000D02*
X94619800Y-116009000D01*
%TO.N,Y49*%
X169604000Y-98222000D02*
X169072000Y-98222000D01*
X169072000Y-98068600D02*
X168751000Y-97747200D01*
X178054000Y-20583700D02*
X174096000Y-20583700D01*
X178054000Y-19432000D02*
X178054000Y-20583700D01*
X169072000Y-98222000D02*
X169072000Y-98068600D01*
%TO.N,Net-(LED_12-A)*%
X94634200Y-123527000D02*
X95313000Y-124206000D01*
X89390800Y-123527000D02*
X94634200Y-123527000D01*
X88712000Y-124206000D02*
X89390800Y-123527000D01*
%TO.N,Y5*%
X227576000Y-45887100D02*
X226840000Y-45150500D01*
X183788000Y-107022000D02*
X189654000Y-101156000D01*
X227576000Y-46228000D02*
X227576000Y-45887100D01*
X228728000Y-46228000D02*
X227576000Y-46228000D01*
X169604000Y-107022000D02*
X183788000Y-107022000D01*
%TO.N,Y46*%
X181949000Y-128780000D02*
X164078000Y-110908000D01*
X193294000Y-128780000D02*
X181949000Y-128780000D01*
X167894000Y-99022000D02*
X166980000Y-99022000D01*
X166980000Y-99022000D02*
X166953000Y-98995500D01*
%TO.N,Y12*%
X216498000Y-78386400D02*
X198098000Y-78386400D01*
X168786000Y-105822000D02*
X168937000Y-105973000D01*
X232028000Y-64008000D02*
X230876000Y-64008000D01*
X167894000Y-105822000D02*
X168786000Y-105822000D01*
X230876000Y-64008000D02*
X216498000Y-78386400D01*
%TO.N,Y4*%
X210558000Y-133442000D02*
X216162000Y-127838000D01*
X213205000Y-138133000D02*
X210558000Y-135486000D01*
X210558000Y-135486000D02*
X210558000Y-133442000D01*
X167909000Y-108472000D02*
X167770000Y-108472000D01*
X216162000Y-127838000D02*
X216162000Y-126670000D01*
X168462000Y-109166000D02*
X168163000Y-108867000D01*
X167770000Y-108472000D02*
X167362000Y-108064000D01*
X216162000Y-138015000D02*
X216044000Y-138133000D01*
X167362000Y-107422000D02*
X167894000Y-107422000D01*
X215669000Y-126178000D02*
X203575000Y-126178000D01*
X216162000Y-132334000D02*
X216162000Y-138015000D01*
X186563000Y-109166000D02*
X168462000Y-109166000D01*
X215010000Y-132334000D02*
X216162000Y-132334000D01*
X216162000Y-126670000D02*
X215669000Y-126178000D01*
X168163000Y-108867000D02*
X168163000Y-108727000D01*
X168163000Y-108727000D02*
X167909000Y-108472000D01*
X203575000Y-126178000D02*
X186563000Y-109166000D01*
X167362000Y-108064000D02*
X167362000Y-107422000D01*
X216044000Y-138133000D02*
X213205000Y-138133000D01*
%TO.N,Y17*%
X160062000Y-62243200D02*
X170917000Y-62243200D01*
X170136000Y-104183000D02*
X170263000Y-104056000D01*
X133511000Y-62645000D02*
X159660000Y-62645000D01*
X159660000Y-62645000D02*
X160062000Y-62243200D01*
X170136000Y-104622000D02*
X170136000Y-104183000D01*
X169604000Y-104622000D02*
X170136000Y-104622000D01*
X129794000Y-58928000D02*
X133511000Y-62645000D01*
%TO.N,Y60*%
X167894000Y-96222000D02*
X167362000Y-96222000D01*
X167362000Y-96222000D02*
X167124000Y-96459900D01*
X167124000Y-96459900D02*
X167124000Y-96479000D01*
%TO.N,Y52*%
X210058000Y-22478000D02*
X210058000Y-23629700D01*
X190707000Y-26946400D02*
X171249000Y-46404300D01*
X210058000Y-23629700D02*
X206741000Y-26946400D01*
X206741000Y-26946400D02*
X190707000Y-26946400D01*
X167894000Y-97822000D02*
X167221000Y-97822000D01*
%TO.N,Y2*%
X141593000Y-132452000D02*
X163585000Y-110461000D01*
X168426000Y-107709000D02*
X168555000Y-107580000D01*
X115002000Y-134120000D02*
X116669000Y-132452000D01*
X168426000Y-107822000D02*
X168426000Y-107709000D01*
X114300000Y-134120000D02*
X115002000Y-134120000D01*
X167894000Y-107822000D02*
X168426000Y-107822000D01*
X116669000Y-132452000D02*
X141593000Y-132452000D01*
X163585000Y-110461000D02*
X167278000Y-110461000D01*
%TO.N,Y54*%
X168426000Y-96812400D02*
X168558000Y-96680600D01*
X225552000Y-84557000D02*
X229457000Y-84557000D01*
X229457000Y-84557000D02*
X229940000Y-84074000D01*
X229781000Y-80819600D02*
X211498000Y-80819600D01*
X168426000Y-97422000D02*
X168426000Y-96812400D01*
X202279000Y-91424200D02*
X169653000Y-91424200D01*
X229940000Y-84074000D02*
X229940000Y-80978500D01*
X206797000Y-85521500D02*
X206797000Y-86906600D01*
X229940000Y-84074000D02*
X232028000Y-84074000D01*
X206797000Y-86906600D02*
X202279000Y-91424200D01*
X167894000Y-97422000D02*
X168426000Y-97422000D01*
X229940000Y-80978500D02*
X229781000Y-80819600D01*
X211498000Y-80819600D02*
X206797000Y-85521500D01*
%TO.N,Y62*%
X167178000Y-95822000D02*
X167894000Y-95822000D01*
X166686000Y-96313100D02*
X167178000Y-95822000D01*
X166686000Y-96821500D02*
X166686000Y-96313100D01*
X166826000Y-96960800D02*
X166686000Y-96821500D01*
%TO.N,Y7*%
X228728000Y-51308000D02*
X215641000Y-51308000D01*
X170136000Y-106622000D02*
X169604000Y-106622000D01*
X179418000Y-106714000D02*
X170227000Y-106714000D01*
X185344000Y-100787000D02*
X179418000Y-106714000D01*
X170227000Y-106714000D02*
X170136000Y-106622000D01*
%TO.N,Y25*%
X155433000Y-62343300D02*
X159460000Y-62343300D01*
X144113000Y-51022800D02*
X155433000Y-62343300D01*
X171484000Y-61770800D02*
X172878000Y-63164000D01*
X132589000Y-51022800D02*
X144113000Y-51022800D01*
X170136000Y-103022000D02*
X170573000Y-102584000D01*
X172878000Y-63164000D02*
X174944000Y-63164000D01*
X174944000Y-63164000D02*
X176125000Y-64344800D01*
X171270000Y-102584000D02*
X172301000Y-101553000D01*
X160033000Y-61770800D02*
X171484000Y-61770800D01*
X122428000Y-40861500D02*
X132589000Y-51022800D01*
X159460000Y-62343300D02*
X160033000Y-61770800D01*
X170573000Y-102584000D02*
X171270000Y-102584000D01*
X169604000Y-103022000D02*
X170136000Y-103022000D01*
%TO.N,Y78*%
X168426000Y-92622000D02*
X168426000Y-92443300D01*
X168426000Y-92443300D02*
X168988000Y-91880600D01*
X167894000Y-92622000D02*
X168426000Y-92622000D01*
X168988000Y-91880600D02*
X188895000Y-91880600D01*
X199136000Y-102122000D02*
X202356000Y-102122000D01*
X199136000Y-102122000D02*
X199136000Y-105855000D01*
X188895000Y-91880600D02*
X199136000Y-102122000D01*
X202356000Y-102122000D02*
X204148000Y-100330000D01*
%TO.N,Y61*%
X169072000Y-95822000D02*
X169072000Y-94421000D01*
X169604000Y-95822000D02*
X169072000Y-95822000D01*
X94314400Y-117916000D02*
X69532700Y-117916000D01*
X134343000Y-115204000D02*
X97026900Y-115204000D01*
X134525000Y-115386000D02*
X134343000Y-115204000D01*
X169072000Y-94421000D02*
X168587000Y-93935500D01*
X97026900Y-115204000D02*
X94314400Y-117916000D01*
%TO.N,Y19*%
X172842000Y-63729700D02*
X137692000Y-63729700D01*
X169212000Y-104222000D02*
X168932000Y-104502000D01*
X169604000Y-104222000D02*
X169212000Y-104222000D01*
X137692000Y-63729700D02*
X132334000Y-69088000D01*
%TO.N,Y18*%
X167294000Y-104554000D02*
X148705000Y-104554000D01*
X167362000Y-104622000D02*
X167294000Y-104554000D01*
X148705000Y-104554000D02*
X148574000Y-104423000D01*
X167894000Y-104622000D02*
X167362000Y-104622000D01*
%TO.N,Y1*%
X216800000Y-126420000D02*
X214776000Y-124396000D01*
X215010000Y-137414000D02*
X213858000Y-137414000D01*
X188403000Y-107822000D02*
X169604000Y-107822000D01*
X216800000Y-128606000D02*
X216800000Y-126420000D01*
X214776000Y-124396000D02*
X204977000Y-124396000D01*
X204977000Y-124396000D02*
X188403000Y-107822000D01*
X213858000Y-137414000D02*
X213858000Y-131548000D01*
X213858000Y-131548000D02*
X216800000Y-128606000D01*
%TO.N,Y14*%
X208318000Y-127554000D02*
X183000000Y-127554000D01*
X167894000Y-105422000D02*
X167362000Y-105422000D01*
X166775000Y-106009000D02*
X166775000Y-108010000D01*
X166775000Y-108010000D02*
X167737000Y-108971000D01*
X211710000Y-129794000D02*
X210558000Y-129794000D01*
X210558000Y-129794000D02*
X208318000Y-127554000D01*
X183000000Y-127554000D02*
X168256000Y-112810000D01*
X167362000Y-105422000D02*
X166775000Y-106009000D01*
%TO.N,Y22*%
X213302000Y-126697000D02*
X182746000Y-126697000D01*
X167053000Y-111004000D02*
X166564000Y-111004000D01*
X182746000Y-126697000D02*
X167053000Y-111004000D01*
X215010000Y-127254000D02*
X213858000Y-127254000D01*
X167290000Y-103822000D02*
X167217000Y-103749000D01*
X213858000Y-127254000D02*
X213302000Y-126697000D01*
X167894000Y-103822000D02*
X167290000Y-103822000D01*
%TO.N,Net-(LED_13-A)*%
X89308600Y-132154000D02*
X94625400Y-132154000D01*
X88621000Y-132842000D02*
X89308600Y-132154000D01*
X94625400Y-132154000D02*
X95313000Y-132842000D01*
%TO.N,Net-(LED_14-A)*%
X94232500Y-143512000D02*
X95250000Y-142494000D01*
X88646000Y-142494000D02*
X89663500Y-143512000D01*
X89663500Y-143512000D02*
X94232500Y-143512000D01*
%TO.N,Net-(LED_15-A)*%
X88621000Y-152146000D02*
X89305700Y-151461000D01*
X89305700Y-151461000D02*
X94628300Y-151461000D01*
X94628300Y-151461000D02*
X95313000Y-152146000D01*
%TO.N,Net-(LED_16-A)*%
X89308600Y-162486000D02*
X88621000Y-161798000D01*
X95313000Y-161798000D02*
X94625400Y-162486000D01*
X94625400Y-162486000D02*
X89308600Y-162486000D01*
%TD*%
M02*
